<svg width="209" height="152" viewBox="0 0 209 152" fill="none" xmlns="http://www.w3.org/2000/svg">
<path d="M14.5947 88.9614C18.7872 85.6914 24.489 83.8548 30.3026 83.81C31.197 83.81 31.197 82.6902 30.3026 82.6902C24.0977 82.735 18.0605 84.7507 13.5885 88.1999C12.9736 88.6478 13.9239 89.4541 14.5947 88.9614Z" fill="#045C45"/>
<path d="M12.8615 89.9023C17.7807 95.1432 26.557 95.412 33.9917 96.0839C34.8861 96.1735 34.8861 95.0536 33.9917 94.964C27.1719 94.3369 18.5633 94.1577 14.0354 89.3199C13.5323 88.7824 12.3584 89.3199 12.8615 89.9023Z" fill="#045C45"/>
<path d="M37.178 84.124C39.6935 83.3625 42.3767 83.2281 45.0599 83.3177C47.5754 83.4072 50.0909 83.7208 52.5505 84.3031C55.0101 84.8407 57.3579 85.6022 59.5939 86.5877C60.7119 87.0804 61.774 87.6179 62.8361 88.1555C63.3951 88.469 63.8982 88.7378 64.4013 89.0961C64.7926 89.3649 65.5752 89.768 65.4634 90.2608C65.6311 90.1264 65.7988 89.992 65.9665 89.8576C61.3268 91.2911 56.6312 92.6349 51.7679 93.5308C49.3642 93.9787 46.9605 94.2923 44.5009 94.4267C42.3767 94.561 39.973 94.3371 38.0724 95.3226C37.3457 95.7257 38.0165 96.6664 38.7991 96.308C40.4761 95.4121 42.7121 95.6809 44.6127 95.5465C46.7369 95.4121 48.8611 95.1882 50.9853 94.8298C55.3455 94.1131 59.5939 92.9932 63.7864 91.739C64.2895 91.6046 64.7926 91.4254 65.2398 91.2911C65.6311 91.1567 66.3019 91.0671 66.6373 90.7983C67.2522 90.3056 66.6932 89.4097 66.3019 89.0065C65.687 88.4242 64.7926 87.9315 64.01 87.4835C63.2274 87.0356 62.3889 86.5877 61.5504 86.1845C58.1405 84.5719 54.3952 83.4073 50.5381 82.7801C46.122 82.0634 41.091 81.7946 36.8426 83.0937C36.0041 83.2729 36.3395 84.3479 37.178 84.124Z" fill="#045C45"/>
<path d="M33.7682 72.6115C36.4514 80.0921 39.0228 87.7072 38.6874 95.5462C38.6315 96.2629 40.029 96.2629 40.0849 95.5462C40.4203 87.6176 37.8489 79.8682 35.1098 72.2979C34.8862 71.626 33.4887 71.8948 33.7682 72.6115Z" fill="#045C45"/>
<path d="M27.3958 73.0596C28.4579 76.8223 29.5759 80.5851 30.638 84.303C31.7001 87.9313 33.2653 91.7388 32.7063 95.5016C32.5945 96.2183 33.992 96.2183 34.1038 95.5016C34.6628 91.6941 33.0976 87.8865 32.0355 84.2134C30.9175 80.4059 29.7995 76.5536 28.6815 72.746C28.5697 72.0293 27.2281 72.3429 27.3958 73.0596Z" fill="#045C45"/>
<path d="M37.7927 96.5321C38.0163 100.071 37.5691 103.565 37.066 107.059C36.5629 110.508 36.004 113.957 35.7245 117.406C35.1096 124.036 35.2773 130.665 34.327 137.295C33.8239 140.968 32.9294 144.641 31.3642 148.135C31.0847 148.807 32.4264 149.121 32.7059 148.449C35.445 142.222 36.1158 135.593 36.4512 129.053C36.6189 125.693 36.7307 122.334 37.0102 118.974C37.2897 115.435 37.7369 111.897 38.2959 108.403C38.9108 104.461 39.5257 100.519 39.2462 96.5769C39.1344 95.8154 37.7368 95.8153 37.7927 96.5321Z" fill="#045C45"/>
<path d="M32.0352 96.3078C32.4265 99.8018 32.4265 103.296 32.0352 106.79C31.8116 108.492 31.5321 110.239 31.4203 111.941C31.3085 113.688 31.3644 115.435 31.5321 117.227C31.8675 120.721 32.0911 124.17 31.6439 127.664C31.1967 131.113 30.3023 134.517 29.1843 137.877C28.5694 139.669 28.1222 141.461 28.1222 143.297C28.1222 145.044 28.4017 146.925 27.5073 148.628C27.1719 149.3 28.3458 149.837 28.7371 149.21C29.5756 147.732 29.5756 146.119 29.5756 144.507C29.5197 142.804 29.6315 141.237 30.1346 139.624C31.1408 136.22 32.2588 132.86 32.8178 129.411C33.3768 125.962 33.4886 122.513 33.1532 119.019C32.9855 117.182 32.7619 115.345 32.7619 113.509C32.7619 111.762 33.0414 110.06 33.265 108.357C33.824 104.371 33.9358 100.384 33.4327 96.3974C33.3768 95.6359 31.9793 95.5911 32.0352 96.3078Z" fill="#045C45"/>
<path d="M65.9668 91.8282C67.4761 103.296 68.9854 114.763 70.4947 126.23C70.9419 129.5 71.3332 132.77 71.7804 136.04C71.8922 136.757 73.2897 136.757 73.1779 136.04C71.6686 124.528 70.1593 113.016 68.65 101.504C68.2028 98.2786 67.8115 95.0534 67.3643 91.8282C67.2525 91.1563 65.855 91.1115 65.9668 91.8282Z" fill="#045C45"/>
<path d="M61.3828 93.3516C62.2772 99.6228 64.625 105.67 65.4635 111.941C65.6871 113.554 65.743 115.166 65.743 116.779C65.6871 118.392 65.6312 119.959 65.743 121.572C66.0225 124.842 66.9728 128.067 67.7554 131.248C68.3144 133.532 68.9852 136.937 72.5628 137.205C73.4572 137.25 73.4572 136.13 72.5628 136.085C71.2771 135.996 70.4945 134.966 70.0473 134.114C69.4883 132.95 69.2647 131.74 68.9852 130.531C68.2585 127.485 67.3082 124.394 67.0846 121.259C66.861 118.212 67.2523 115.166 66.861 112.12C66.4697 109.164 65.743 106.208 65.0163 103.296C64.1219 99.9812 63.2275 96.6664 62.7803 93.3068C62.6685 92.6349 61.271 92.6349 61.3828 93.3516Z" fill="#045C45"/>
<path d="M39.9171 102.042C43.7183 101.594 47.5195 101.146 51.3207 100.698C54.7865 100.295 58.42 100.026 61.6622 98.8613C62.5007 98.5477 61.774 97.6071 60.9355 97.8758C57.7492 99.0405 54.0598 99.2197 50.6499 99.6228C46.9605 100.071 43.2152 100.519 39.5258 100.922C38.6314 101.056 39.0227 102.131 39.9171 102.042Z" fill="#045C45"/>
<path d="M11.4639 96.0389C16.998 99.936 24.0973 102.221 31.4761 102.4C32.3705 102.445 32.3705 101.325 31.4761 101.28C24.4886 101.101 17.6688 98.9505 12.4701 95.2326C11.7993 94.7399 10.7931 95.5462 11.4639 96.0389Z" fill="#045C45"/>
<path d="M9.67539 69.5206C10.6816 78.1211 11.0729 86.7664 10.7934 95.3669C10.7375 97.517 10.6257 99.6672 10.2344 101.773C9.84309 103.923 9.33999 106.028 8.83689 108.133C7.88659 112.389 6.9363 116.644 5.986 120.9C5.427 123.319 4.92389 125.737 4.36489 128.156C4.08539 129.276 3.86179 130.396 3.58229 131.516C3.35869 132.501 3.02329 133.487 2.12889 134.204C1.51399 134.741 2.52019 135.503 3.13509 135.01C4.75619 133.666 4.9239 131.74 5.3152 129.993C5.8183 127.798 6.32139 125.603 6.76859 123.408C7.71889 119.063 8.72509 114.763 9.67539 110.418C10.6257 106.162 11.7996 101.907 12.0232 97.5618C12.2468 93.172 12.2468 88.7821 12.0791 84.3923C11.9114 79.4201 11.5201 74.4479 10.9611 69.4758C11.017 68.8039 9.61949 68.8039 9.67539 69.5206Z" fill="#045C45"/>
<path d="M4.19702 59.8898C5.03552 65.1307 5.92992 70.3268 6.71252 75.5678C7.49512 80.7191 7.83052 85.8705 7.77462 91.0218C7.71872 93.5751 7.71872 96.1732 7.38332 98.7265C7.04792 101.28 6.15352 103.743 5.25912 106.207C4.36472 108.626 3.63802 111.045 3.07902 113.553C2.52002 116.107 2.12872 118.66 1.68152 121.213C1.17842 124.035 0.619414 126.902 0.172214 129.724C-0.163186 131.561 -0.219085 133.845 2.01692 134.92C2.79952 135.279 3.47032 134.338 2.74362 133.935C0.787117 132.994 1.45792 130.486 1.68152 128.963C2.12872 126.499 2.57592 124.035 3.02312 121.572C3.91752 116.599 4.75601 111.672 6.48891 106.879C7.38331 104.46 8.22182 102.086 8.66902 99.5776C9.06032 97.1587 9.17212 94.7398 9.17212 92.2761C9.28392 87.1695 9.06032 82.1078 8.38952 77.0012C7.60692 71.2675 6.60072 65.5338 5.70632 59.8002C5.48272 59.2178 4.08522 59.2178 4.19702 59.8898Z" fill="#045C45"/>
<path d="M11.2963 69.5658C17.2217 70.5065 23.203 71.6712 29.2402 72.0743C31.8116 72.2535 34.7743 72.4326 37.2339 71.6711C39.414 70.9992 40.8674 69.521 41.3146 67.6844C41.9295 65.2208 40.8115 62.8467 39.6376 60.5621C39.3022 59.8902 37.9606 60.2038 38.296 60.8757C39.2463 62.7123 40.2525 64.6832 40.0848 66.699C39.9171 68.4908 38.7432 70.0586 36.5631 70.6409C34.2153 71.268 31.5321 71.0888 29.1284 70.9096C26.3334 70.7305 23.5384 70.3273 20.7993 69.8794C17.7807 69.3866 14.7621 68.9387 11.6876 68.446C10.7932 68.3564 10.4019 69.4314 11.2963 69.5658Z" fill="#045C45"/>
<path d="M6.04167 54.9625C6.09757 56.3959 7.15968 57.6053 8.61308 58.4116C10.346 59.3523 12.4702 59.5763 14.4826 59.845C19.2341 60.4274 23.9297 61.0545 28.6812 61.5024C31.3644 61.7712 34.0476 61.9504 36.6749 61.7264C37.5693 61.6816 37.5693 60.5618 36.6749 60.6066C31.1408 61.0097 25.4949 60.0242 20.0167 59.3523C17.3894 59.0387 14.7062 58.8596 12.1348 58.3668C10.0106 57.9637 7.49508 56.9334 7.38328 54.9177C7.38328 54.2457 5.98577 54.2457 6.04167 54.9625Z" fill="#045C45"/>
<path d="M5.65056 58.0536C6.04186 61.8612 6.54496 65.8479 9.89896 68.8043C10.5139 69.3418 11.4642 68.5355 10.9052 67.998C7.83066 65.3103 7.43936 61.5028 7.04806 58.0536C6.99216 57.3369 5.59466 57.3369 5.65056 58.0536Z" fill="#045C45"/>
<path d="M128.463 93.8888C134.221 96.1733 140.09 98.5026 146.519 99.2641C149.873 99.6673 153.338 99.4881 156.692 100.115C159.879 100.698 162.953 101.325 166.307 101.369C169.885 101.414 173.462 100.877 176.816 99.8465C177.655 99.5777 177.264 98.5026 176.425 98.7714C173.518 99.6673 170.444 100.16 167.313 100.25C164.071 100.339 160.997 99.8017 157.866 99.1745C156.245 98.861 154.624 98.637 152.947 98.5474C151.326 98.4578 149.761 98.4578 148.14 98.3234C145.009 98.0547 141.991 97.3828 139.028 96.4869C135.674 95.4566 132.432 94.2024 129.19 92.9481C128.351 92.6346 127.68 93.5752 128.463 93.8888Z" fill="#045C45"/>
<path d="M128.91 89.1857C132.041 90.3504 135.171 91.5598 138.301 92.7245C139.699 93.262 141.096 93.7995 142.606 94.1579C144.171 94.561 145.792 94.7402 147.469 94.785C149.146 94.8746 150.879 94.9194 152.556 95.0538C154.177 95.1882 155.798 95.4569 157.363 95.7257C158.984 95.9945 160.661 96.3528 162.283 96.6664C163.848 96.9799 165.469 97.2039 167.09 97.1143C170.388 96.9351 173.518 95.2777 176.872 95.6809C177.767 95.7705 178.158 94.6954 177.264 94.6058C174.301 94.2475 171.618 95.2777 168.823 95.7705C165.581 96.3528 162.45 95.5017 159.32 94.9194C156.134 94.3371 152.891 93.8891 149.649 93.7547C147.972 93.7099 146.295 93.6651 144.674 93.3964C143.109 93.1276 141.6 92.6349 140.146 92.0973C136.624 90.7983 133.159 89.4545 129.693 88.1554C128.798 87.9315 128.072 88.8721 128.91 89.1857Z" fill="#045C45"/>
<path d="M127.512 89.4541C127.345 90.6187 127.457 91.7834 127.848 92.9032C127.96 93.172 128.351 93.396 128.686 93.3064C129.078 93.2168 129.245 92.9032 129.189 92.6345C128.854 91.6042 128.798 90.5739 128.91 89.4541C128.966 89.1405 128.575 88.8717 128.239 88.9165C127.848 88.8717 127.568 89.1405 127.512 89.4541Z" fill="#045C45"/>
<path d="M174.748 73.5522C170.556 82.8695 170.164 92.9034 169.717 102.713C169.494 107.82 169.717 112.882 170.556 117.988C171.338 122.96 172.456 127.933 173.351 132.905C174.413 138.504 175.195 144.193 174.916 149.882C174.86 150.599 176.257 150.599 176.313 149.882C176.761 139.803 173.966 129.904 172.233 119.959C171.394 114.942 170.835 109.925 171.003 104.908C171.171 99.9809 171.394 95.0087 171.953 90.1261C172.568 84.6164 173.742 79.1067 176.09 73.9106C176.369 73.1491 175.028 72.8803 174.748 73.5522Z" fill="#045C45"/>
<path d="M169.046 72.7908C168.934 78.2558 166.586 83.4519 165.468 88.7824C164.35 94.2474 164.294 99.8019 164.518 105.312C164.909 116.241 165.189 127.306 168.152 138.056C168.543 139.579 168.934 141.013 168.934 142.58C168.934 144.103 168.934 145.582 169.493 147.06C169.94 148.225 170.443 149.703 171.45 150.643C172.4 151.495 173.965 151.763 175.139 151.047C175.866 150.599 174.86 149.792 174.133 150.24C173.63 150.554 172.959 150.285 172.568 149.972C172.065 149.568 171.785 148.986 171.561 148.449C171.002 147.239 170.499 146.03 170.388 144.731C170.276 143.432 170.443 142.088 170.22 140.789C170.052 139.534 169.661 138.37 169.325 137.16C167.984 131.964 167.257 126.723 166.81 121.438C166.363 116.241 166.139 111.045 165.971 105.804C165.804 100.474 165.748 95.1432 166.754 89.8575C167.816 84.1686 170.443 78.6141 170.555 72.8356C170.499 72.0741 169.102 72.0741 169.046 72.7908Z" fill="#045C45"/>
<path d="M177.99 60.1589C174.972 59.7109 171.953 59.6213 168.935 59.9349C167.593 60.0693 166.084 60.1589 164.966 60.8308C164.015 61.3683 163.289 62.2642 162.842 63.1153C161.891 64.9071 161.668 67.1916 162.506 69.0282C163.456 71.0887 166.251 71.671 168.599 72.3429C171.841 73.2388 175.195 74.0003 178.549 74.5827C179.444 74.717 179.779 73.642 178.941 73.5076C176.369 73.0596 173.798 72.5221 171.227 71.8502C169.941 71.5366 168.711 71.1783 167.481 70.8199C166.475 70.5064 165.413 70.2376 164.63 69.6553C163.065 68.4906 163.233 66.0269 163.736 64.5039C164.015 63.6976 164.519 62.8465 165.245 62.2194C166.084 61.4579 167.258 61.3235 168.487 61.1891C171.506 60.8308 174.636 60.8756 177.655 61.3235C178.494 61.3683 178.829 60.2933 177.99 60.1589Z" fill="#045C45"/>
<path d="M134.5 97.0693C133.661 102.355 132.599 107.596 132.04 112.882C131.481 118.123 132.096 123.364 131.313 128.56C130.866 131.516 130.084 134.383 129.022 137.25C129.245 137.115 129.469 136.981 129.692 136.847C128.183 136.892 127.289 135.772 126.953 134.697C126.618 133.398 126.786 131.964 126.841 130.665C126.897 127.798 127.065 124.976 127.289 122.109C127.736 116.465 128.351 110.821 129.133 105.177C129.581 101.952 130.028 98.7715 130.475 95.5463C130.587 94.8296 129.189 94.8296 129.077 95.5463C127.4 107.551 125.723 119.556 125.444 131.651C125.388 133.129 125.276 134.741 126.115 136.085C126.786 137.16 128.127 137.967 129.692 137.922C130.028 137.922 130.251 137.743 130.363 137.519C132.264 132.502 133.214 127.261 133.214 121.975C133.214 119.332 133.102 116.689 133.326 114.046C133.55 111.404 133.997 108.761 134.388 106.163C134.891 103.117 135.394 100.071 135.841 97.0245C136.009 96.3526 134.612 96.3526 134.5 97.0693Z" fill="#045C45"/>
<path d="M151.382 100.563C150.767 104.102 150.152 107.596 149.928 111.18C149.705 114.718 150.04 118.257 150.431 121.796C150.599 123.05 150.711 124.708 152.388 125.29C153.841 125.783 155.295 125.156 155.406 123.901C155.462 123.14 155.406 122.333 155.406 121.527C155.406 120.587 155.406 119.601 155.462 118.66C155.518 116.913 155.63 115.122 155.742 113.375C156.077 109.343 156.692 105.267 157.531 101.28C157.698 100.563 156.357 100.295 156.189 100.967C154.847 107.327 154.121 113.733 154.009 120.183C154.009 120.9 154.009 121.662 154.009 122.378C154.009 122.826 154.344 124.215 153.562 124.304C151.885 124.528 151.885 122.11 151.829 121.348C151.493 118.123 151.214 114.942 151.382 111.717C151.549 108.089 152.164 104.461 152.835 100.877C152.835 100.16 151.493 99.8467 151.382 100.563Z" fill="#045C45"/>
<path d="M129.86 87.7965C130.475 86.0495 132.991 85.3328 134.891 84.7953C137.351 84.0786 139.867 83.5411 142.438 83.1827C147.525 82.466 152.835 82.466 157.922 83.1827C160.829 83.5859 163.624 84.213 166.363 85.0641C167.202 85.3328 167.593 84.2578 166.754 83.989C156.413 80.8086 144.618 80.719 134.221 83.8098C131.929 84.4817 129.301 85.4224 128.575 87.483C128.295 88.1997 129.637 88.4684 129.86 87.7965Z" fill="#045C45"/>
<path d="M172.4 86.229C174.133 86.6321 175.866 87.0353 177.543 87.528C177.879 87.6176 178.326 87.4384 178.382 87.1249C178.493 86.8113 178.27 86.5425 177.879 86.453C176.202 86.005 174.469 85.5571 172.736 85.1539C172.4 85.0643 171.953 85.2435 171.897 85.5571C171.841 85.8258 172.065 86.1394 172.4 86.229Z" fill="#045C45"/>
<path d="M42.0414 65.131C57.0785 67.9083 72.451 68.9385 87.8235 69.2521C103.476 69.5209 119.183 69.2521 134.835 68.5354C143.668 68.1322 152.5 67.5499 161.332 66.6988C162.226 66.6092 162.226 65.4894 161.332 65.579C145.68 67.0572 129.86 67.7739 114.097 68.0427C98.7241 68.3114 83.3515 68.3562 68.0349 67.2812C59.4263 66.654 50.8736 65.6238 42.4327 64.056C41.5383 63.8768 41.147 64.9519 42.0414 65.131Z" fill="#045C45"/>
<path d="M18.1162 57.9192C16.0479 57.5161 15.6007 55.366 16.4392 54.0221C17.6131 52.1408 20.3522 51.2001 22.5882 50.3938C28.0664 48.4228 33.8241 47.0342 39.6936 46.0487C51.6562 43.9882 64.0101 43.3611 76.2522 42.8683C88.7179 42.3756 101.295 42.3756 113.761 42.9579C126.283 43.5403 138.804 44.7497 151.158 46.6759C157.251 47.6165 163.344 48.7812 169.382 50.125C173.518 51.0657 180.45 52.6335 179.388 57.2025C179.22 58.0088 178.717 58.6807 177.823 59.1287C177.096 59.5318 177.767 60.4725 178.549 60.1142C180.394 59.1287 181.065 57.3817 180.785 55.6795C180.45 53.7086 178.885 52.1856 176.816 51.2001C174.413 50.0354 171.562 49.4979 168.879 48.9156C165.58 48.1989 162.282 47.527 158.984 46.9446C146.071 44.5705 132.879 43.0923 119.687 42.2412C106.271 41.3901 92.8545 41.3005 79.4385 41.7485C72.8423 41.9724 66.2461 42.286 59.6499 42.7787C53.2773 43.2267 46.9047 43.8538 40.6439 44.8841C34.439 45.9144 28.3459 47.303 22.5882 49.3635C20.1286 50.2146 17.5013 51.1553 15.8802 52.9471C14.5945 54.3357 14.3709 56.3066 15.5448 57.8297C16.1038 58.5016 16.8864 58.9495 17.8367 59.1735C18.6193 59.1287 19.0106 58.0536 18.1162 57.9192Z" fill="#045C45"/>
<path d="M90.6745 70.2376C91.3453 79.1517 91.7925 88.0658 92.072 96.9798C92.2956 105.894 92.3515 114.808 92.1279 123.767C92.0161 128.784 91.6248 133.846 92.2956 138.863C92.3515 139.176 92.5751 139.4 92.9664 139.4C94.867 139.445 96.7117 139.087 98.3328 138.37C99.1154 138.011 98.4446 137.071 97.6061 137.384C96.1527 138.011 94.5875 138.325 92.9105 138.28C93.1341 138.459 93.3577 138.639 93.5813 138.818C93.0223 134.383 93.3018 129.948 93.4136 125.514C93.5254 121.034 93.5813 116.6 93.5813 112.12C93.5813 103.206 93.3577 94.2922 92.9664 85.3333C92.7428 80.2715 92.4074 75.2098 92.0161 70.1928C92.0161 69.5209 90.6186 69.5209 90.6745 70.2376Z" fill="#045C45"/>
<path d="M99.5625 70.1926C99.6743 79.0171 99.5625 87.8415 99.283 96.666C99.0035 105.491 98.3327 114.27 97.8296 123.05C97.5501 127.977 97.3824 132.905 97.7178 137.877C97.7737 138.594 99.1712 138.594 99.1153 137.877C98.5004 129.142 99.4507 120.362 100.01 111.627C100.569 102.803 100.904 93.9784 101.016 85.1539C101.072 80.1817 101.072 75.1647 101.016 70.1926C100.904 69.4759 99.5066 69.4759 99.5625 70.1926Z" fill="#045C45"/>
<path d="M41.2588 65.8029C41.4265 68.401 41.0352 71.0439 40.8116 73.5971C40.588 76.1952 40.3644 78.8381 40.1408 81.4361C40.0849 82.1529 41.4824 82.1529 41.5383 81.4361C41.7619 78.8381 41.9855 76.1952 42.2091 73.5971C42.4327 70.9991 42.824 68.401 42.6563 65.8029C42.6004 65.0862 41.2029 65.0862 41.2588 65.8029Z" fill="#045C45"/>
<path d="M42.265 102.713C42.1532 106.7 42.0414 110.642 41.9296 114.629C41.8737 116.6 41.8178 118.571 41.7619 120.542C41.7619 121.527 41.706 122.468 41.706 123.453C41.706 123.991 41.706 124.484 41.6501 125.021C41.6501 125.245 41.6501 125.424 41.6501 125.648C41.6501 125.783 41.6501 125.872 41.5942 126.007C41.4824 126.096 41.4824 126.141 41.6501 126.186C41.0911 125.603 39.9172 126.186 40.4203 126.768C40.9793 127.395 42.0973 127.395 42.6563 126.768C42.9917 126.41 43.0476 125.962 43.0476 125.559C43.1035 124.976 43.1035 124.349 43.1035 123.767C43.1594 121.482 43.2153 119.153 43.2712 116.868C43.383 112.21 43.4948 107.506 43.6625 102.848C43.6625 101.997 42.265 101.997 42.265 102.713Z" fill="#045C45"/>
<path d="M38.3521 101.37C38.0167 105.625 37.6255 109.925 37.7373 114.226C37.7932 116.331 37.905 118.436 38.2404 120.542C38.4081 121.572 38.5758 122.647 38.7994 123.677C39.023 124.528 39.1907 125.469 39.9733 126.096C40.6441 126.589 41.5943 125.782 40.9794 125.29C40.1968 124.707 40.141 123.543 39.9733 122.736C39.7497 121.706 39.5819 120.721 39.4701 119.69C39.1906 117.675 39.0789 115.614 39.0789 113.554C39.023 109.477 39.3584 105.401 39.6938 101.37C39.8056 100.653 38.408 100.653 38.3521 101.37Z" fill="#045C45"/>
<path d="M151.661 68.1771C150.935 72.2982 150.432 76.4192 150.152 80.5403C150.096 81.257 151.494 81.257 151.55 80.5403C151.829 76.5088 152.332 72.4773 153.003 68.4458C153.171 67.7739 151.829 67.4604 151.661 68.1771Z" fill="#045C45"/>
<path d="M157.922 68.0876C158.034 72.3878 157.531 76.6881 156.469 80.8988C156.301 81.6155 157.642 81.8843 157.81 81.2123C158.928 76.9121 159.431 72.4774 159.319 68.0876C159.264 67.3709 157.866 67.3709 157.922 68.0876Z" fill="#045C45"/>
<path d="M145.848 100.026C145.904 103.788 145.904 107.551 145.959 111.314C145.959 113.15 145.904 114.987 146.015 116.779C146.071 118.078 147.077 119.735 149.09 119.287C149.928 119.063 149.593 117.988 148.699 118.212C146.966 118.615 147.413 115.256 147.357 114.584C147.357 112.971 147.301 111.403 147.301 109.791C147.245 106.566 147.245 103.296 147.189 100.071C147.245 99.309 145.848 99.309 145.848 100.026Z" fill="#045C45"/>
<path d="M33.9357 55.2761C33.3208 56.6647 34.6624 58.0086 36.2276 58.4565C37.122 58.7253 38.1841 58.7701 39.1344 58.7701C40.3642 58.8149 41.594 58.8149 42.8797 58.8149C47.743 58.8149 52.6063 58.5909 57.4137 58.1877C58.5317 58.0982 59.6497 58.0086 60.7118 57.7846C61.5503 57.6502 62.7801 57.4262 63.4509 56.9335C64.9043 55.7688 61.718 54.5594 60.7118 54.2906C58.6435 53.7531 56.3516 53.6187 54.2274 53.4395C51.8237 53.2604 49.42 53.1708 47.0163 53.126C44.5008 53.126 41.9853 53.126 39.5257 53.4843C38.3518 53.6187 37.2338 53.8875 36.1717 54.2458C35.3891 54.5146 34.1034 55.0073 34.5506 55.9032C34.886 56.5751 36.2276 56.2616 35.8922 55.5897C35.8363 55.4553 38.0723 54.873 38.24 54.873C39.1344 54.6938 40.0288 54.5594 40.9232 54.4698C42.712 54.3354 44.5008 54.2906 46.3455 54.2906C50.2585 54.2906 54.2274 54.4698 58.0845 55.0073C58.8671 55.0969 59.7056 55.2313 60.4323 55.4105C60.7677 55.5001 61.1031 55.5897 61.3826 55.7241C61.5503 55.7689 62.3329 56.3512 62.3329 56.3512C62.3888 56.2616 62.3888 56.2168 62.4447 56.1272C62.3329 56.172 62.277 56.2168 62.1652 56.2616C61.9416 56.3512 61.7739 56.396 61.5503 56.4408C61.159 56.5303 60.7677 56.6199 60.3205 56.7095C59.3702 56.8887 58.4758 56.9783 57.5255 57.0679C53.5566 57.3814 49.6436 57.6054 45.6747 57.6502C43.4946 57.695 41.2586 57.695 39.0785 57.6502C37.681 57.6054 34.6065 57.2471 35.3332 55.5449C35.5568 54.9177 34.2152 54.6042 33.9357 55.2761Z" fill="#045C45"/>
<path d="M35.4454 58.636C38.464 61.6373 44.3335 61.2789 48.6378 61.1893C50.0912 61.1445 51.5446 61.0997 53.0539 61.0101C54.3955 60.9653 55.7371 60.9205 57.0787 60.6518C59.3147 60.2038 61.2153 59.084 62.5569 57.6058C63.06 57.0234 61.8861 56.4411 61.3271 57.0234C60.0414 58.4569 58.0849 59.3975 55.9048 59.7111C54.675 59.8903 53.4452 59.8903 52.1595 59.9351C50.8738 59.9799 49.5881 60.0247 48.3024 60.0694C44.4453 60.159 39.0789 60.5622 36.3957 57.8297C35.8926 57.2922 34.9423 58.0985 35.4454 58.636Z" fill="#045C45"/>
<path d="M50.1468 63.7422C56.2399 62.3984 62.4448 61.5473 68.7056 61.1441C69.6 61.0993 69.6 59.9795 68.7056 60.0243C62.333 60.4274 55.9604 61.3233 49.7555 62.6671C48.917 62.8463 49.2524 63.9214 50.1468 63.7422Z" fill="#045C45"/>
<path d="M126.339 59.9799C127.513 60.5622 128.407 61.4581 129.693 61.8612C130.364 62.0852 131.09 62.13 131.873 62.1748C132.711 62.2196 133.55 62.3988 134.388 62.5779C137.854 63.3842 141.32 64.2353 144.842 65.0416C145.68 65.2656 146.071 64.1458 145.233 63.9666C141.823 63.1603 138.469 62.354 135.059 61.5477C134.277 61.3685 133.55 61.1893 132.767 61.0997C131.985 61.0101 131.202 61.0549 130.475 60.8758C129.19 60.5174 128.295 59.5767 127.177 58.9944C126.283 58.636 125.612 59.5767 126.339 59.9799Z" fill="#045C45"/>
<path d="M152.22 54.9179C147.525 54.3356 142.717 53.7085 137.966 54.246C136.792 54.3804 135.674 54.5596 134.556 54.8283C133.606 55.0523 132.432 55.3211 131.649 55.8586C130.922 56.3961 130.811 57.2024 131.537 57.7848C132.264 58.3671 133.438 58.5911 134.388 58.7702C139.531 59.6661 144.841 59.9349 150.04 60.1589C152.332 60.2933 154.624 60.4276 156.916 60.2485C157.978 60.1589 159.04 60.0245 160.102 59.7557C161.052 59.5318 162.226 59.2182 162.953 58.6806C163.847 58.0535 162.785 57.0681 162.115 56.7097C161.052 56.1722 159.823 55.769 158.593 55.4555C156.077 54.8283 153.45 54.694 150.823 54.5148C149.928 54.47 149.928 55.5898 150.823 55.6346C152.779 55.769 154.792 55.9034 156.692 56.217C157.643 56.3961 158.537 56.5753 159.431 56.8889C159.823 57.0233 161.947 57.6504 161.835 58.0983C161.947 58.0087 162.059 57.8744 162.17 57.7848C159.599 59.1286 156.469 59.263 153.45 59.2182C149.984 59.1286 146.518 58.9046 143.109 58.6359C141.32 58.5015 139.531 58.3223 137.742 58.0983C136.177 57.9192 134.332 57.7848 132.935 57.2024C132.599 57.0233 132.264 56.9337 132.655 56.6649C132.935 56.4857 133.326 56.3961 133.661 56.3066C134.444 56.0826 135.227 55.9034 136.009 55.7242C137.574 55.4107 139.196 55.2763 140.761 55.2315C144.506 55.1419 148.195 55.5898 151.885 56.0826C152.723 56.1274 153.115 55.0523 152.22 54.9179Z" fill="#045C45"/>
<path d="M133.158 58.86C134.947 59.0392 136.233 60.4278 137.575 61.2341C139.196 62.1748 141.152 62.578 143.165 62.7571C145.401 62.9363 147.748 62.8915 149.984 62.8915C151.214 62.8915 152.5 62.9363 153.73 62.9363C154.848 62.9363 155.966 62.9363 157.028 62.7123C159.208 62.1748 160.829 60.7862 162.226 59.3976C162.785 58.86 161.835 58.0537 161.22 58.5913C159.99 59.7559 158.649 61.055 156.804 61.5477C155.742 61.8165 154.624 61.8165 153.562 61.8165C152.332 61.8165 151.158 61.7717 149.928 61.7717C147.748 61.7269 145.568 61.7717 143.444 61.6373C141.488 61.5029 139.531 61.0997 137.966 60.1143C136.457 59.1288 135.115 57.9641 133.103 57.7402C132.264 57.6058 132.264 58.7257 133.158 58.86Z" fill="#045C45"/>
<path d="M156.804 49.9454C156.189 49.811 155.462 49.8558 155.183 50.3933C154.903 50.9308 155.462 51.5132 155.91 51.8715C157.139 52.7226 158.816 52.6778 160.326 52.7226C161.164 52.7226 162.003 52.7674 162.841 52.7674C163.624 52.7674 164.406 52.5882 164.742 52.0059C165.469 50.7069 163.121 50.1693 162.003 49.9902C160.27 49.6766 158.425 49.6766 156.692 49.7214C155.798 49.7214 155.798 50.8413 156.692 50.8413C158.09 50.7965 159.487 50.7965 160.829 50.9309C161.444 51.0204 162.115 51.11 162.674 51.2892C162.897 51.3788 163.177 51.4684 163.4 51.558C163.68 51.6476 163.344 51.6028 163.456 51.558C163.4 51.6028 163.288 51.6476 163.177 51.6476C162.841 51.6924 162.506 51.6476 162.17 51.6476C161.835 51.6476 161.444 51.6476 161.108 51.6476C160.382 51.6476 159.655 51.6476 158.928 51.6028C158.313 51.558 157.643 51.5132 157.084 51.2444C156.86 51.1548 156.692 51.0204 156.58 50.8413C156.58 50.7965 156.525 50.7965 156.525 50.7517C156.413 50.5725 156.301 50.6173 156.245 51.0204C156.189 50.9757 156.469 51.0652 156.413 51.0652C157.307 51.1996 157.698 50.1245 156.804 49.9454Z" fill="#045C45"/>
<path d="M155.127 51.9165C155.574 52.678 156.022 53.4395 156.637 54.0666C157.307 54.7385 158.258 54.8729 159.208 54.9625C159.711 55.0073 160.27 55.0521 160.773 55.0969C161.276 55.1417 161.891 55.2761 162.338 55.0521C162.786 54.8729 163.009 54.3802 163.233 54.0666C163.512 53.6635 163.792 53.3051 164.071 52.902C164.518 52.2748 163.289 51.6925 162.841 52.3196C162.618 52.6332 162.394 52.9468 162.171 53.2603C162.059 53.3947 161.947 53.5291 161.891 53.6635C161.835 53.7531 161.779 53.8426 161.723 53.9322C161.668 53.977 161.556 54.0666 161.668 54.0218C161.779 53.977 161.612 53.977 161.556 53.977C161.444 53.977 161.332 53.977 161.276 53.9322C161.053 53.9322 160.829 53.8874 160.605 53.8874C160.158 53.8426 159.711 53.7978 159.264 53.753C158.537 53.7083 157.978 53.5739 157.531 53.0363C157.084 52.454 156.692 51.8717 156.357 51.2446C156.189 50.9758 155.686 50.8862 155.407 51.0654C155.015 51.3341 154.96 51.6477 155.127 51.9165Z" fill="#045C45"/>
<path d="M135.618 47.6168C136.233 48.5126 137.519 48.7366 138.692 48.7814C139.475 48.8262 140.314 48.8262 141.152 48.8262C141.879 48.8262 142.661 48.9158 143.388 48.8262C144.059 48.7814 144.786 48.5574 145.121 48.0199C145.512 47.4376 145.233 46.8552 144.506 46.5865C143.053 46.0489 141.599 45.6458 140.034 45.601C139.196 45.5562 138.357 45.6458 137.519 45.7802C136.792 45.9146 135.842 46.0937 135.506 46.6761C135.338 46.9448 135.394 47.2584 135.73 47.4376C136.009 47.572 136.512 47.5272 136.68 47.2584C136.792 47.0792 137.015 47.0344 137.239 46.9896C137.574 46.9 137.966 46.8552 138.357 46.8104C139.028 46.7209 139.755 46.7209 140.425 46.7657C141.096 46.8105 141.767 46.9448 142.438 47.1688C142.773 47.2584 143.109 47.348 143.388 47.4824C143.444 47.4824 143.947 47.6616 143.947 47.6616C143.891 47.4824 143.891 47.4376 143.835 47.5272L143.779 47.572C143.5 47.6615 143.332 47.7063 142.997 47.7511C142.661 47.7511 142.326 47.7511 141.991 47.7511C141.208 47.7511 140.481 47.7063 139.699 47.7063C138.804 47.7063 137.295 47.8407 136.792 47.0792C136.401 46.4073 135.171 46.9896 135.618 47.6168Z" fill="#045C45"/>
<path d="M135.45 47.5268C135.339 49.2738 135.618 51.0655 136.233 52.7229C136.512 53.3948 137.854 53.1261 137.575 52.4094C136.96 50.7968 136.736 49.1842 136.848 47.5268C136.848 47.2132 136.513 46.9893 136.177 46.9893C135.73 46.9893 135.45 47.258 135.45 47.5268Z" fill="#045C45"/>
<path d="M144.115 48.3331C144.171 49.8561 143.724 51.3791 142.829 52.7677C142.382 53.3949 143.612 53.9772 144.059 53.3501C145.065 51.827 145.624 50.0801 145.568 48.3779C145.512 47.6164 144.115 47.6164 144.115 48.3331Z" fill="#045C45"/>
<path d="M136.513 53.2602C138.693 53.2602 140.929 53.3498 143.109 53.5738C143.5 53.6186 143.78 53.305 143.78 53.0363C143.78 52.7227 143.444 52.4987 143.109 52.4987C140.929 52.2747 138.749 52.1851 136.513 52.1851C135.618 52.1404 135.618 53.2602 136.513 53.2602Z" fill="#045C45"/>
<path d="M119.575 45.7798C118.68 47.0788 121.028 47.7059 122.146 47.9299C123.6 48.2435 125.165 48.2883 126.674 48.1091C127.345 48.0195 128.128 47.8851 128.463 47.3476C128.798 46.8548 128.687 46.2277 128.295 45.7798C127.401 44.7047 125.78 44.6151 124.326 44.6151C123.432 44.6151 122.538 44.5703 121.643 44.5703C120.693 44.5703 119.91 44.9735 119.798 45.735C119.743 46.0485 120.134 46.2725 120.469 46.2725C120.861 46.2725 121.14 46.0037 121.14 45.735C121.14 45.7798 121.196 45.735 121.252 45.6902C121.364 45.6454 121.531 45.6454 121.643 45.6454C122.034 45.6454 122.37 45.6454 122.761 45.6454C123.488 45.6454 124.159 45.6454 124.885 45.6902C125.5 45.6902 126.115 45.735 126.618 46.0037C126.842 46.0933 127.401 46.4965 127.233 46.7652C127.121 46.8996 126.786 46.9444 126.618 46.9444C126.339 46.9892 126.003 47.034 125.724 47.0788C125.109 47.1236 124.438 47.1236 123.823 47.0788C123.208 47.034 122.593 46.8996 121.979 46.7652C121.699 46.6757 121.42 46.6309 121.14 46.4965C121.028 46.4517 120.861 46.3621 120.749 46.3173C120.637 46.3173 120.749 46.2277 120.693 46.3173C121.196 45.735 120.022 45.1526 119.575 45.7798Z" fill="#045C45"/>
<path d="M127.457 47.6162C127.848 49.184 127.121 50.7518 126.45 52.1852C126.339 52.454 126.618 52.8124 126.953 52.8572C127.345 52.9467 127.68 52.7676 127.792 52.454C128.575 50.7966 129.245 49.0496 128.798 47.3027C128.742 46.9891 128.295 46.8547 127.96 46.8995C127.568 46.9891 127.345 47.3027 127.457 47.6162Z" fill="#045C45"/>
<path d="M118.568 46.7651C118.736 47.8402 119.015 48.9152 119.463 49.9455C119.798 50.7966 120.189 51.9164 121.307 52.3196C121.643 52.454 122.034 52.4092 122.258 52.1404C122.425 51.9164 122.369 51.5133 122.034 51.3789C121.643 51.2445 121.475 51.0205 121.307 50.707C121.084 50.3486 120.916 49.9007 120.748 49.4975C120.413 48.6016 120.133 47.7058 120.022 46.8099C119.966 46.4963 119.742 46.2723 119.351 46.2723C118.96 46.1828 118.512 46.4515 118.568 46.7651Z" fill="#045C45"/>
<path d="M121.419 52.32C122.985 52.544 124.606 52.8128 126.115 53.2159C126.45 53.3055 126.898 53.1263 126.953 52.8128C127.065 52.4992 126.842 52.2304 126.45 52.1409C124.885 51.7377 123.32 51.4689 121.755 51.245C121.363 51.2002 121.028 51.3346 120.916 51.6481C120.86 51.9169 121.084 52.2752 121.419 52.32Z" fill="#045C45"/>
<path d="M123.32 52.4543C123.041 53.6637 122.873 54.8732 122.985 56.0826C122.985 56.3962 123.32 56.6649 123.656 56.6202C124.047 56.6202 124.382 56.3514 124.326 56.0826C124.27 54.9628 124.382 53.7981 124.662 52.723C124.718 52.4543 124.55 52.0959 124.159 52.0511C123.823 52.0063 123.376 52.1407 123.32 52.4543Z" fill="#045C45"/>
<path d="M119.854 57.6502C121.867 57.6054 123.935 57.695 125.947 57.8742C126.339 57.919 126.618 57.6054 126.618 57.3367C126.618 57.0231 126.283 56.7992 125.947 56.7992C123.935 56.5752 121.923 56.5304 119.854 56.5752C118.96 56.5752 118.96 57.695 119.854 57.6502Z" fill="#045C45"/>
<path d="M67.1965 49.5425C68.9853 49.6321 70.6623 50.1248 72.3952 50.3488C73.9045 50.5279 75.861 50.6175 77.2585 49.9456C77.8734 49.6321 78.2647 49.0497 77.8734 48.4674C77.538 47.9747 76.8672 47.6611 76.1964 47.4819C75.3579 47.2579 74.5194 47.2132 73.6809 47.0788C72.7865 46.9444 71.8921 46.81 71.0536 46.7204C70.1592 46.6308 69.2648 46.6308 68.4822 46.9892C67.7555 47.3475 67.2524 47.9299 67.2524 48.6018C67.2524 49.3185 68.6499 49.3185 68.6499 48.6018C68.6499 48.0195 69.4325 47.7955 69.9915 47.7507C70.7741 47.7059 71.6126 47.8851 72.3393 47.9747C73.2337 48.109 74.1281 48.1986 75.0225 48.333C75.3579 48.3778 75.7492 48.4226 76.0846 48.557C76.1964 48.6018 76.3641 48.6466 76.4759 48.7362C76.5877 48.781 76.6995 48.9601 76.6995 48.9153C76.6995 48.8706 76.4759 49.0049 76.42 49.0497C76.2523 49.0945 76.1405 49.1393 75.9728 49.1841C75.5815 49.2737 75.1902 49.3185 74.7989 49.3633C74.0163 49.4081 73.2337 49.3185 72.4511 49.2289C70.7182 48.9601 69.0971 48.557 67.3083 48.4226C66.3021 48.3778 66.3021 49.4977 67.1965 49.5425Z" fill="#045C45"/>
<path d="M66.9727 49.0048C67.0286 51.7373 68.8733 54.1562 69.041 56.8438C69.0969 57.5605 70.4944 57.5605 70.4385 56.8438C70.2708 54.1562 68.4261 51.7373 68.3702 49.0048C68.3702 48.2881 66.9727 48.2881 66.9727 49.0048Z" fill="#045C45"/>
<path d="M76.7555 49.7216C76.5319 52.3645 76.0288 54.9626 75.2462 57.5158C75.0226 58.2326 76.3642 58.5013 76.5878 57.8294C77.3704 55.1865 77.9294 52.4541 78.153 49.7216C78.2089 49.0049 76.8114 49.0049 76.7555 49.7216Z" fill="#045C45"/>
<path d="M69.153 57.5605C71.2213 58.2324 73.5132 58.546 75.7492 58.5012C76.6436 58.4564 76.6436 57.3365 75.7492 57.3813C73.625 57.4261 71.5008 57.1574 69.5443 56.4855C69.2089 56.3511 68.7617 56.6198 68.7058 56.8886C68.594 57.2022 68.8176 57.4261 69.153 57.5605Z" fill="#045C45"/>
<path d="M44.2213 50.976C45.6747 51.3792 47.184 51.6032 48.6933 51.6032C49.4759 51.6032 50.2585 51.5584 50.9852 51.424C51.656 51.3344 52.4945 51.2448 53.0535 50.976C53.6684 50.6625 53.5566 49.9458 53.3889 49.4978C53.1653 48.8707 52.5504 48.6467 51.7678 48.5123C50.3144 48.2436 48.7492 48.1092 47.2399 48.1988C45.8983 48.2884 44.4449 48.6467 43.7741 49.677C43.3269 50.3041 44.5567 50.8864 45.0039 50.2593C45.6188 49.3634 47.1281 49.3186 48.1902 49.3186C49.0846 49.3186 49.9231 49.4082 50.8175 49.4978C51.0411 49.5426 51.2647 49.5426 51.4324 49.5874C51.5442 49.6322 51.7678 49.6322 51.8796 49.677C51.9355 49.7218 51.9914 49.8562 51.9914 49.9458C51.9914 49.9906 51.9914 50.0354 51.9914 50.1249C51.9914 50.2145 51.9355 50.3489 52.0473 50.1697C52.1032 50.1249 52.215 50.0354 52.2709 49.9906C52.0473 50.1249 51.656 50.1697 51.3765 50.2145C51.0411 50.3041 50.7057 50.3489 50.3144 50.3937C49.6995 50.4833 49.0287 50.5281 48.4138 50.4833C47.0722 50.4833 45.7306 50.2593 44.4449 49.901C43.7182 49.677 43.3269 50.7521 44.2213 50.976Z" fill="#045C45"/>
<path d="M43.8861 49.9459C43.7743 50.9314 43.942 51.9617 44.3892 52.9024C44.501 53.1711 44.8364 53.3951 45.2277 53.3055C45.5631 53.2159 45.8426 52.9024 45.7308 52.6336C45.619 52.4096 45.5072 52.1857 45.4513 51.9617C45.3954 51.8273 45.3954 51.7377 45.3395 51.6033C45.3395 51.5585 45.3395 51.5138 45.2836 51.469C45.2836 51.4242 45.2836 51.4242 45.2836 51.3794C45.2836 51.3346 45.2836 51.3346 45.2836 51.3346C45.2836 51.3794 45.2836 51.3794 45.2836 51.2898C45.2836 51.245 45.2836 51.2002 45.2836 51.2002C45.2836 51.1554 45.2836 51.1106 45.2836 51.0658C45.2836 50.9314 45.2836 50.8418 45.2836 50.7075C45.2836 50.4835 45.2836 50.2147 45.3395 49.9907C45.3954 49.6772 45.0041 49.4084 44.6687 49.4532C44.1656 49.4084 43.942 49.6324 43.8861 49.9459Z" fill="#045C45"/>
<path d="M51.4885 51.2895C51.4885 51.3343 51.4885 51.3343 51.4885 51.3791C51.4885 51.2447 51.4885 51.4687 51.4885 51.3791C51.4885 51.4239 51.4885 51.4687 51.4885 51.5583C51.4885 51.6479 51.4885 51.7823 51.4885 51.8719C51.4885 51.9614 51.5444 51.7375 51.4885 51.8719C51.4885 51.9166 51.4885 51.9166 51.4885 51.9614C51.4885 52.0062 51.4326 52.051 51.4326 52.1406C51.4326 52.1854 51.3767 52.2302 51.3767 52.3198C51.3767 52.3646 51.3767 52.3646 51.3208 52.4094C51.2649 52.499 51.3767 52.3198 51.3208 52.4094C51.2649 52.499 51.209 52.5886 51.1531 52.7229C51.0972 52.7677 51.0972 52.8125 51.0413 52.8573C51.0413 52.8573 50.9295 52.9469 51.0413 52.9021C51.0972 52.8125 51.0413 52.9021 50.9854 52.9469C50.8736 53.0365 50.8177 53.1261 50.7059 53.1709C50.65 53.1709 50.65 53.2157 50.5941 53.2157C50.4823 53.2605 50.5382 53.2605 50.5941 53.2157C50.5382 53.2605 50.4823 53.3053 50.4264 53.3053C50.091 53.4844 49.9792 53.798 50.2028 54.0668C50.4264 54.3355 50.8177 54.4251 51.1531 54.2459C52.4947 53.574 53.1655 52.275 52.8301 51.0655C52.7742 50.7968 52.327 50.5728 51.9916 50.6624C51.6003 50.7072 51.4326 50.976 51.4885 51.2895Z" fill="#045C45"/>
<path d="M98.3329 47.9745C100.289 48.4224 102.358 48.6464 104.37 48.6016C105.376 48.6016 106.438 48.512 107.445 48.3776C108.283 48.288 109.233 48.1984 109.904 47.7057C110.519 47.2129 110.687 46.4514 110.128 45.9139C109.625 45.3764 108.674 45.1972 107.948 45.018C105.991 44.5701 103.979 44.4357 101.966 44.6149C100.066 44.7941 97.6062 45.3316 97.5503 47.213C97.5503 47.9297 98.9478 47.9297 98.9478 47.213C98.9478 45.7347 102.022 45.6899 103.308 45.6452C104.314 45.6452 105.32 45.6899 106.327 45.8243C107.109 45.9587 108.171 46.0483 108.842 46.4514C109.681 46.9442 107.836 47.2129 107.5 47.2577C106.55 47.3921 105.544 47.4817 104.594 47.4817C102.581 47.5265 100.625 47.3025 98.7242 46.8994C97.8298 46.7202 97.4385 47.7953 98.3329 47.9745Z" fill="#045C45"/>
<path d="M97.5503 47.2128C97.4385 50.3036 98.2211 53.3497 99.0037 56.3509C99.1714 57.0676 100.513 56.754 100.345 56.0373C99.6186 53.1257 98.836 50.214 98.9478 47.2128C98.9478 46.4961 97.5503 46.4961 97.5503 47.2128Z" fill="#045C45"/>
<path d="M108.898 47.3923C109.457 50.4831 108.618 53.6635 106.606 56.3064C106.159 56.9335 107.333 57.471 107.836 56.8887C110.016 53.9323 110.854 50.4831 110.239 47.0787C110.128 46.4068 108.786 46.7204 108.898 47.3923Z" fill="#045C45"/>
<path d="M99.2272 57.1573C100.513 57.0677 101.854 57.1573 103.084 57.3813C104.314 57.6053 105.6 58.1428 106.885 57.8292C107.724 57.6053 107.389 56.5302 106.494 56.7542C105.935 56.8886 105.376 56.7542 104.817 56.6198C104.202 56.4854 103.643 56.3062 103.028 56.2166C101.743 55.9927 100.457 55.9479 99.1713 55.9927C98.78 55.9927 98.5005 56.2166 98.5005 56.5302C98.5564 56.8886 98.8918 57.2021 99.2272 57.1573Z" fill="#045C45"/>
<path d="M70.2152 114.449C77.3704 112.971 84.4138 111.314 91.4013 109.477C92.2398 109.253 91.9044 108.178 91.01 108.402C84.0225 110.239 76.9232 111.896 69.8239 113.374C68.9854 113.553 69.3208 114.629 70.2152 114.449Z" fill="#045C45"/>
<path d="M100.233 107.059C106.55 104.505 113.202 102.445 120.022 100.877C120.86 100.698 120.525 99.578 119.631 99.8019C112.699 101.415 105.935 103.52 99.5065 106.118C98.7239 106.432 99.4506 107.372 100.233 107.059Z" fill="#045C45"/>
<path d="M99.9536 111.762C101.295 110.866 102.916 110.329 104.481 109.881C106.27 109.388 108.115 108.94 109.96 108.447C113.649 107.462 117.338 106.432 121.196 105.984C122.09 105.894 121.699 104.774 120.804 104.909C116.779 105.401 112.922 106.521 109.009 107.507C105.599 108.403 101.686 109.075 98.8915 110.956C98.2766 111.404 99.2828 112.21 99.9536 111.762Z" fill="#045C45"/>
<path d="M121.196 106.118C122.202 106.028 123.264 105.983 124.214 106.342C125.22 106.745 126.171 107.238 127.121 107.73C127.904 108.089 128.574 107.148 127.848 106.745C126.842 106.252 125.835 105.67 124.717 105.311C123.599 104.908 122.425 104.908 121.196 104.998C120.804 105.043 120.525 105.222 120.525 105.535C120.525 105.849 120.86 106.163 121.196 106.118Z" fill="#045C45"/>
<path d="M133.55 109.881C137.63 110.552 141.599 111.628 145.401 113.016C146.183 113.33 146.91 112.344 146.127 112.031C142.214 110.552 138.189 109.477 133.941 108.761C133.047 108.671 132.655 109.746 133.55 109.881Z" fill="#045C45"/>
<path d="M134.612 105.043C136.568 104.998 138.189 106.208 139.866 106.835C141.823 107.552 143.835 107.999 145.903 108.403C146.798 108.582 147.133 107.507 146.295 107.328C144.171 106.924 141.99 106.476 140.034 105.67C138.301 104.953 136.68 103.923 134.668 103.968C133.717 103.923 133.661 105.043 134.612 105.043Z" fill="#045C45"/>
<path d="M100.345 95.7703C102.693 96.0838 104.873 96.7557 107.109 97.4276C109.345 98.0996 111.581 98.7267 113.817 99.309C118.401 100.474 122.985 101.504 127.68 102.355C128.575 102.534 128.91 101.414 128.072 101.28C123.376 100.429 118.736 99.3986 114.208 98.2339C111.972 97.6516 109.736 97.0245 107.5 96.3526C105.264 95.6807 103.084 95.0088 100.736 94.6952C99.8421 94.5608 99.4508 95.6359 100.345 95.7703Z" fill="#045C45"/>
<path d="M99.4506 99.6229C102.972 100.384 106.382 101.37 109.68 102.579C110.463 102.893 111.19 101.907 110.407 101.594C106.997 100.295 103.475 99.2645 99.8419 98.503C98.9475 98.3687 98.5562 99.4437 99.4506 99.6229Z" fill="#045C45"/>
<path d="M70.3268 117.541C72.2274 118.257 74.128 119.019 75.9727 119.735C76.8112 120.049 77.6497 120.407 78.4882 120.81C79.2708 121.214 80.0534 121.662 80.8919 122.02C82.5689 122.647 84.4695 122.916 86.2024 123.453C87.9912 123.991 89.7241 124.708 91.4011 125.514C92.1837 125.872 92.8545 124.932 92.1278 124.528C90.5067 123.722 88.8297 123.05 87.0409 122.513C85.2521 121.93 83.3515 121.662 81.6186 121.034C80.7801 120.721 80.0534 120.318 79.2708 119.915C78.4323 119.467 77.5379 119.108 76.6435 118.75C74.7429 118.033 72.8423 117.272 70.9976 116.555C70.215 116.286 69.4883 117.227 70.3268 117.541Z" fill="#045C45"/>
<path d="M70.8856 123.095C77.8731 125.603 84.8606 128.202 91.7363 130.889C92.5189 131.203 93.2456 130.217 92.463 129.904C85.5873 127.216 78.5998 124.618 71.6123 122.109C70.7738 121.841 70.0471 122.826 70.8856 123.095Z" fill="#045C45"/>
<path d="M42.712 112.434C44.7244 112.747 46.5691 113.464 48.4697 114.136C50.3703 114.808 52.2709 115.48 54.1715 116.196C58.0286 117.63 61.8298 119.108 65.4633 120.81C66.2459 121.169 66.9726 120.183 66.19 119.825C62.4447 118.123 58.5876 116.6 54.6187 115.121C52.6622 114.405 50.7057 113.733 48.7492 113.016C46.9045 112.344 45.0039 111.627 43.0474 111.314C42.2089 111.224 41.8176 112.299 42.712 112.434Z" fill="#045C45"/>
<path d="M42.9356 107.282C50.7057 109.656 58.3081 112.389 65.6869 115.48C66.4695 115.793 67.1962 114.853 66.4136 114.494C58.923 111.359 51.2088 108.581 43.3269 106.207C42.4884 105.939 42.153 107.014 42.9356 107.282Z" fill="#045C45"/>
<path d="M42.6005 67.8635C44.2216 67.9531 45.8427 68.3562 47.4079 68.7146C48.9731 69.0729 50.5383 69.4313 52.1035 69.7896C55.2339 70.5063 58.4202 71.2231 61.5506 71.9846C67.8673 73.4628 74.1281 74.941 80.4448 76.464C83.9665 77.3151 87.5441 78.1662 91.0658 79.0173C91.9043 79.2413 92.2956 78.1214 91.4571 77.9422C78.7678 74.8962 66.0226 71.8502 53.2774 68.9385C51.4886 68.5354 49.6998 68.1322 47.911 67.7291C46.1781 67.3259 44.4452 66.9228 42.6005 66.8332C41.7061 66.6988 41.7061 67.8187 42.6005 67.8635Z" fill="#045C45"/>
<path d="M72.1158 68.9836C73.681 69.2523 75.3021 69.4763 76.7555 69.969C78.2089 70.4618 79.5505 71.0441 81.0598 71.4025C84.2461 72.1192 87.4883 72.7015 90.7305 73.3286C91.6249 73.5078 91.9603 72.4327 91.1218 72.2535C87.8796 71.6264 84.6374 71.0441 81.4511 70.3274C79.9418 69.969 78.6002 69.3867 77.1468 68.894C75.6375 68.4012 74.0723 68.1325 72.4512 67.8637C71.6127 67.7741 71.2214 68.8492 72.1158 68.9836Z" fill="#045C45"/>
<path d="M74.2397 118.526C80.5005 116.286 87.0408 114.495 93.6929 113.195C94.5873 113.016 94.196 111.941 93.3016 112.12C86.4818 113.464 79.8856 115.301 73.513 117.585C72.6745 117.854 73.4012 118.84 74.2397 118.526Z" fill="#045C45"/>
<path d="M100.792 78.1658C114.432 75.8365 128.071 73.4624 141.711 71.1331C145.512 70.4611 149.369 69.834 153.17 69.1621C154.065 69.0277 153.674 67.9527 152.779 68.087C139.14 70.4163 125.5 72.7905 111.86 75.1198C108.059 75.7917 104.202 76.4188 100.401 77.0907C99.5064 77.2251 99.8977 78.3002 100.792 78.1658Z" fill="#045C45"/>
<path d="M100.01 72.8357C103.531 72.4774 107.053 72.0742 110.575 71.6263C113.929 71.2231 117.283 70.82 120.469 69.7897C121.308 69.5209 120.916 68.4459 120.078 68.7146C117.003 69.7449 113.705 70.1481 110.463 70.5512C106.997 70.9992 103.475 71.3575 100.01 71.7159C99.1153 71.8055 99.1153 72.9253 100.01 72.8357Z" fill="#045C45"/>
<path d="M178.27 61.3234C187.326 61.9506 196.437 61.3682 205.27 59.6212C206.164 59.4421 205.773 58.367 204.878 58.5462C196.158 60.2932 187.158 60.8307 178.27 60.2036C177.376 60.1588 177.376 61.2786 178.27 61.3234Z" fill="#045C45"/>
<path d="M205.158 59.3074C206.555 60.8304 207.226 62.667 207.17 64.5036C207.17 65.3995 206.946 66.3401 206.555 67.1912C206.387 67.6392 206.108 68.0423 205.828 68.4455C205.437 68.983 205.046 69.2966 204.263 69.5205C198.953 71.0883 193.419 72.3874 187.829 73.0593C184.642 73.4624 181.4 73.5968 178.214 73.4624C177.319 73.4176 177.319 74.5375 178.214 74.5823C184.419 74.8511 190.624 74 196.605 72.7009C198.114 72.3426 199.679 71.9842 201.189 71.5811C202.586 71.2227 204.04 70.8644 205.381 70.3716C206.555 69.9237 207.17 68.983 207.673 68.0423C208.176 67.1016 208.456 66.1162 208.567 65.0859C208.791 62.8462 208.064 60.5169 206.387 58.7251C205.828 58.1428 204.654 58.7251 205.158 59.3074Z" fill="#045C45"/>
<path d="M177.599 87.3935C178.493 87.3935 178.493 86.2737 177.599 86.2737C176.705 86.2737 176.705 87.3935 177.599 87.3935Z" fill="#045C45"/>
<path d="M197.164 72.2978C194.648 75.8814 193.027 79.8233 191.742 83.81C190.456 87.9311 189.282 92.097 188.388 96.2628C187.94 98.413 187.605 100.563 187.549 102.758C187.493 104.998 187.605 107.237 187.493 109.477C187.381 111.672 187.158 113.867 187.158 116.107C187.158 118.346 187.325 120.586 187.549 122.781C187.773 125.066 188.108 127.305 188.443 129.545C188.611 130.62 188.779 131.74 188.947 132.815C189.058 133.666 189.338 134.383 190.456 134.652C191.406 134.876 192.692 134.965 193.586 134.652C194.648 134.293 194.984 133.487 195.263 132.681C195.878 130.575 196.046 128.38 195.934 126.23C195.822 124.035 195.599 121.885 195.431 119.69C195.263 117.451 195.151 115.256 195.096 113.016C194.984 108.581 195.151 104.102 195.543 99.6672C195.934 95.1878 196.549 90.6635 197.443 86.2289C197.891 84.034 198.338 81.8838 198.953 79.6889C199.456 77.718 199.959 75.6126 200.909 73.7313C201.3 72.925 201.915 72.1635 202.698 71.5811C203.369 71.0884 202.363 70.3269 201.692 70.7748C200.127 71.9395 199.344 73.5521 198.841 75.1647C198.17 77.1804 197.611 79.241 197.108 81.3015C196.102 85.5122 195.319 89.8124 194.76 94.1127C193.642 102.668 193.419 111.314 194.033 119.914C194.369 124.035 195.151 128.38 193.866 132.457C193.754 132.905 193.586 133.442 193.027 133.621C192.524 133.801 191.909 133.711 191.406 133.666C190.903 133.621 190.512 133.577 190.4 133.129C190.288 132.591 190.232 132.054 190.12 131.516C189.785 129.321 189.45 127.126 189.17 124.976C188.611 120.676 188.388 116.375 188.723 112.075C188.891 109.925 189.002 107.82 188.947 105.714C188.947 103.564 188.947 101.459 189.282 99.3088C189.897 95.143 191.071 91.0219 192.245 86.9904C193.363 83.0933 194.648 79.1514 196.773 75.4782C197.276 74.5823 197.835 73.7313 198.394 72.8802C198.841 72.253 197.611 71.6707 197.164 72.2978Z" fill="#045C45"/>
<path d="M178.214 87.7074C180.059 87.8418 182.015 87.9761 183.748 88.5137C185.649 89.1408 186.99 90.395 187.885 91.7837C188.388 92.5004 188.332 93.1723 187.326 93.4858C186.431 93.7994 185.369 93.9338 184.363 94.0682C182.015 94.4713 179.611 94.7849 177.264 94.4265C176.369 94.2921 176.034 95.3672 176.872 95.5016C179.052 95.8152 181.232 95.6808 183.413 95.3224C184.475 95.1432 185.537 94.9641 186.655 94.7401C187.437 94.6057 188.22 94.3817 188.835 93.9786C190.4 92.8587 189.226 91.2461 188.276 90.1263C187.214 88.872 185.928 87.9313 184.139 87.349C182.239 86.7219 180.17 86.5875 178.158 86.4531C177.319 86.5427 177.319 87.6626 178.214 87.7074Z" fill="#045C45"/>
<path d="M175.251 100.518C180.394 100.922 185.649 99.3986 189.338 96.4869C190.009 95.9942 189.003 95.1879 188.332 95.6806C184.866 98.3683 180.003 99.7121 175.195 99.3538C174.357 99.3538 174.357 100.474 175.251 100.518Z" fill="#045C45"/>
<path d="M92.4632 31.1769C94.5315 24.1889 98.165 17.5146 103.14 11.5121C104.594 9.80995 106.103 8.15256 107.78 6.53996C108.339 6.00243 107.389 5.19613 106.774 5.73367C100.904 11.3778 96.3762 17.8281 93.3017 24.7713C92.4073 26.787 91.6806 28.8028 91.0657 30.8633C90.898 31.58 92.2396 31.8936 92.4632 31.1769Z" fill="#045C45"/>
<path d="M82.1218 25.8012C81.9541 22.0833 81.0597 18.3654 79.2709 14.9162C77.4262 11.2879 74.6871 8.19705 71.948 5.01665C71.4449 4.43432 70.2151 4.97186 70.7182 5.59898C73.4014 8.68979 76.1405 11.7358 77.9293 15.2298C79.6063 18.5893 80.5566 22.1729 80.7243 25.846C80.7802 26.5179 82.1777 26.5179 82.1218 25.8012Z" fill="#045C45"/>
<path d="M87.2088 35.1184C87.097 29.0264 88.215 22.9343 90.451 17.1111C90.7305 16.4391 89.3889 16.1256 89.1094 16.7975C86.8175 22.7104 85.6995 28.892 85.8113 35.1184C85.8113 35.8351 87.2088 35.8351 87.2088 35.1184Z" fill="#045C45"/>
<path d="M109.792 3.98638C110.575 3.85199 111.413 4.03117 112.028 4.43432C112.196 4.52391 112.363 4.65829 112.475 4.79268C112.531 4.83747 112.587 4.92706 112.643 4.97185C112.643 5.01665 112.643 5.01665 112.699 5.06145V5.10624C112.699 5.06144 112.699 5.15103 112.699 5.10624C112.643 5.10624 112.755 5.06144 112.699 5.10624C112.587 5.15103 112.531 5.10624 112.419 5.10624C112.14 5.10624 111.916 5.06144 111.693 5.01665C111.134 4.92706 110.575 4.74788 110.127 4.47912C109.96 4.38953 109.68 4.43433 109.568 4.6135C109.457 4.79268 109.513 4.97186 109.736 5.06145C110.295 5.37501 110.91 5.55418 111.525 5.68857C112.14 5.77815 113.09 5.95733 113.481 5.46459C113.873 5.01665 113.425 4.47912 113.034 4.12076C112.643 3.8072 112.14 3.53843 111.581 3.40405C110.966 3.22487 110.295 3.22487 109.624 3.31446C109.401 3.35926 109.289 3.53844 109.345 3.71762C109.345 3.94159 109.568 4.03117 109.792 3.98638Z" fill="#045C45"/>
<path d="M111.301 2.32933C110.91 1.88139 110.519 1.43345 109.96 1.07509C109.457 0.76153 108.674 0.627151 108.059 0.806329C106.829 1.16468 106.494 2.37413 107.165 3.22522C107.556 3.71796 108.171 4.03152 108.842 4.2107C109.065 4.25549 109.289 4.1659 109.345 3.98673C109.401 3.80755 109.289 3.62837 109.065 3.58358C108.674 3.49399 108.227 3.27002 107.947 3.00125C107.836 2.86687 107.724 2.73249 107.668 2.5981C107.612 2.50852 107.612 2.46372 107.612 2.41892C107.612 2.37413 107.612 2.32933 107.612 2.28454C107.612 2.23974 107.612 2.15016 107.612 2.19495C107.668 1.88139 107.836 1.65742 108.171 1.52303C108.562 1.38865 109.01 1.47824 109.401 1.65742C109.904 1.92619 110.183 2.32934 110.519 2.68769C110.631 2.82207 110.91 2.91166 111.078 2.82208C111.301 2.68769 111.413 2.46372 111.301 2.32933Z" fill="#045C45"/>
<path d="M106.214 2.37414C105.711 3.18044 105.544 4.03153 105.711 4.92742C105.767 5.28577 105.879 5.68892 106.159 6.00248C106.438 6.31604 106.829 6.49522 107.221 6.62961C108.115 6.94317 109.177 6.89837 110.183 6.94317C110.742 6.94317 111.357 7.03276 111.86 6.85358C112.308 6.6744 112.587 6.31605 112.419 5.95769C112.252 5.55454 111.469 5.73372 111.637 6.13687C111.693 6.36084 111.022 6.31604 110.91 6.31604C110.463 6.31604 109.96 6.31604 109.513 6.27125C108.842 6.27125 108.059 6.22645 107.444 6.00248C106.773 5.73371 106.55 5.19618 106.494 4.65865C106.438 4.03153 106.606 3.35961 106.941 2.77729C107.165 2.32934 106.438 2.01579 106.214 2.37414Z" fill="#045C45"/>
<path d="M112.643 3.22532C113.146 3.27011 113.593 3.58367 113.929 3.89723C114.32 4.21079 114.767 4.65874 114.935 5.06189C115.047 5.46504 114.599 5.68901 114.208 5.82339C113.537 6.00257 112.866 6.13695 112.196 6.31613C111.693 6.45051 111.916 7.07764 112.419 6.94325C113.202 6.76407 114.04 6.62969 114.767 6.36092C115.494 6.09216 115.941 5.59942 115.773 4.9723C115.606 4.38997 114.991 3.85244 114.488 3.40449C113.984 2.95655 113.37 2.64299 112.643 2.5534C112.419 2.50861 112.196 2.73258 112.196 2.91176C112.196 3.09094 112.419 3.22532 112.643 3.22532Z" fill="#045C45"/>
<path d="M113.761 6.53993C113.258 7.30144 112.363 7.79418 111.357 8.06294C110.854 8.19733 110.351 8.24212 109.792 8.33171C109.401 8.3765 108.842 8.46609 108.506 8.19733C108.115 7.88377 107.556 8.3765 107.891 8.69006C108.339 9.04842 108.898 9.09321 109.513 9.04842C110.183 9.00362 110.854 8.91403 111.469 8.77965C112.755 8.46609 113.873 7.88377 114.488 6.94309C114.711 6.49514 113.985 6.13678 113.761 6.53993Z" fill="#045C45"/>
<path d="M104.593 2.59829C103.419 3.40459 102.693 4.56924 102.581 5.82349C102.469 6.80896 102.805 8.19759 104.202 8.42156C104.705 8.51115 104.929 7.88402 104.426 7.79444C103.364 7.61526 103.308 6.36102 103.419 5.6891C103.587 4.70362 104.258 3.76294 105.152 3.09103C105.6 2.77747 104.985 2.32953 104.593 2.59829Z" fill="#045C45"/>
<path d="M108.115 0.358356C107.277 0.358356 106.438 0 105.6 0C104.761 0 104.034 0.403149 103.475 0.895887C102.916 1.43342 102.581 2.10533 102.301 2.77725C102.078 3.31478 101.966 3.9867 102.581 4.43464C102.972 4.70341 103.587 4.25547 103.196 3.94191C102.805 3.62835 103.028 3.09081 103.196 2.73245C103.475 2.19492 103.755 1.61259 104.258 1.16465C104.705 0.7615 105.264 0.53753 105.991 0.627118C106.718 0.716707 107.388 0.985475 108.171 0.985475C108.674 1.03027 108.674 0.358356 108.115 0.358356Z" fill="#045C45"/>
<path d="M109.233 6.89825C108.283 7.88372 106.662 8.37646 105.153 8.10769C104.65 8.0181 104.426 8.64523 104.929 8.73482C106.718 9.04838 108.674 8.51084 109.792 7.34619C109.904 7.21181 109.96 7.03263 109.792 6.85346C109.681 6.76387 109.345 6.76386 109.233 6.89825Z" fill="#045C45"/>
<path d="M84.2456 11.9152C84.8046 13.1246 85.4195 14.3341 86.0903 15.4987C86.7611 16.6186 87.6555 17.6937 87.8791 18.9031C87.9909 19.351 88.7735 19.1271 88.6617 18.7239C88.4381 17.5145 87.5996 16.4842 86.9288 15.3643C86.2021 14.1549 85.5313 12.9454 84.9723 11.6912C84.8605 11.3329 84.0779 11.512 84.2456 11.9152Z" fill="#045C45"/>
<path d="M94.9228 12.408C93.5812 12.4528 92.6868 13.4382 91.9601 14.2445C91.1775 15.1404 90.6185 16.0811 90.0036 17.0666C89.78 17.4697 90.5067 17.7833 90.7303 17.4249C91.2334 16.5738 91.7924 15.6779 92.4632 14.8716C92.7986 14.4685 93.134 14.1101 93.5253 13.7966C93.9166 13.483 94.3638 13.1695 94.8669 13.1247C95.4818 13.0799 95.4818 12.408 94.9228 12.408Z" fill="#045C45"/>
<path d="M94.0841 12.8562V12.8114C94.0841 12.7666 94.0841 12.9009 94.0841 12.8114C94.0841 12.7666 94.0841 12.7218 94.0841 12.677C94.0841 12.5874 94.0841 12.4978 94.0841 12.4082C94.0841 12.3634 94.0841 12.4978 94.0841 12.4082V12.3634V12.3186C94.0841 12.2738 94.14 12.229 94.0841 12.3186C94.0841 12.2738 94.14 12.229 94.14 12.229C94.0841 12.2738 94.0841 12.3186 94.14 12.229C94.0841 12.229 94.1959 12.1842 94.14 12.229C94.14 12.229 94.1959 12.229 94.1959 12.1842C94.14 12.1842 94.3077 12.1394 94.1959 12.1842C94.1959 12.1842 94.2518 12.1842 94.3077 12.1842C94.2518 12.1842 94.1959 12.1842 94.2518 12.1842H94.3077H94.3636C94.3077 12.1842 94.3077 12.1842 94.3077 12.1842C94.3636 12.1842 94.3636 12.1842 94.4195 12.1842C94.4754 12.1842 94.5313 12.229 94.5872 12.229C94.9226 12.3186 95.2021 12.4082 95.5375 12.3634C95.3698 12.2738 95.2021 12.229 95.0344 12.1394V12.1842C95.0344 12.0946 95.0344 12.229 95.0344 12.1842V12.229C95.0344 12.2738 95.0344 12.229 95.0344 12.1842V12.229L94.9785 12.2738C94.8667 12.4082 94.9226 12.6322 95.1462 12.7218C95.3698 12.8114 95.5934 12.7666 95.7052 12.5874C95.8729 12.3634 95.9288 12.0946 95.817 11.8707C95.7611 11.6915 95.5375 11.6019 95.3139 11.6467C95.258 11.6467 95.4257 11.6467 95.3139 11.6467C95.258 11.6467 95.258 11.6467 95.2021 11.6467C95.1462 11.6467 95.258 11.6467 95.258 11.6467C95.258 11.6467 95.258 11.6467 95.2021 11.6467C95.1462 11.6467 95.1462 11.6467 95.0903 11.6467C94.9785 11.6019 94.8667 11.6019 94.7549 11.5571C94.4754 11.4675 94.1959 11.4227 93.9164 11.4675C93.4133 11.6019 93.1897 12.0051 93.1338 12.4082C93.1338 12.5874 93.1338 12.8114 93.1897 12.9905C93.2456 13.1697 93.5251 13.2593 93.6928 13.2145C94.0282 13.2145 94.14 13.0353 94.0841 12.8562Z" fill="#045C45"/>
<path d="M95.3141 13.0799C95.4259 13.0351 95.5936 13.0799 95.7054 13.1247C95.7054 13.1247 95.7613 13.1247 95.7613 13.1695C95.7054 13.1695 95.7054 13.1695 95.7613 13.1695C95.7613 13.1695 95.8731 13.259 95.8172 13.2143C95.8172 13.2143 95.8731 13.3486 95.8731 13.259C95.8731 13.3038 95.929 13.3486 95.929 13.3934C95.929 13.3486 95.929 13.4382 95.929 13.483V13.5278C95.929 13.483 95.929 13.483 95.929 13.5278V13.5726C95.929 13.5278 95.929 13.5278 95.929 13.5726C95.929 13.5726 95.8172 13.6622 95.8731 13.6174C95.8172 13.6622 95.8172 13.6622 95.7613 13.707C95.7054 13.7518 95.7054 13.7518 95.7613 13.707C95.7613 13.707 95.7054 13.707 95.7054 13.7518C95.6495 13.7518 95.6495 13.7966 95.5936 13.7966C95.7054 13.7518 95.5377 13.7966 95.5377 13.7966C95.4818 13.7966 95.4818 13.7966 95.4259 13.8414C95.37 13.8414 95.37 13.8414 95.4259 13.8414H95.37C95.3141 13.8414 95.2582 13.8414 95.2023 13.8414C95.2023 13.8414 95.0346 13.8414 95.1464 13.8414C95.0346 13.8414 94.9787 13.7966 94.8669 13.7966C94.9787 13.8414 94.811 13.7518 94.811 13.7518C94.7551 13.707 94.6992 13.707 94.6433 13.6622C94.5315 13.5726 94.3079 13.4382 94.1961 13.3038C94.252 13.3486 94.1402 13.259 94.1402 13.2143C94.0843 13.1695 94.0843 13.1247 94.0284 13.0799C93.9725 12.9903 93.9166 12.9007 93.8607 12.8559C93.7489 12.6767 93.4694 12.6319 93.3017 12.7215C93.0781 12.8111 93.0222 13.0351 93.134 13.1695C93.5812 13.8414 94.3079 14.5133 95.37 14.4685C95.8172 14.4685 96.2644 14.3341 96.5439 14.0206C96.8793 13.6622 96.9352 13.1695 96.6557 12.8111C96.3762 12.408 95.7054 12.184 95.1464 12.3184C94.9228 12.3632 94.811 12.5423 94.8669 12.7215C94.811 13.0351 95.0905 13.1247 95.3141 13.0799Z" fill="#045C45"/>
<path d="M93.7488 13.2144C93.4693 13.08 93.4134 12.7664 93.1898 12.5872C92.8544 12.3185 92.3513 12.3185 91.9041 12.3633C91.1215 12.4081 90.2271 12.6768 90.2271 13.4383C90.2271 13.7967 90.5066 14.1103 90.7861 14.3342C91.0656 14.5582 91.5128 14.8718 91.96 14.9166C92.3513 14.9166 92.6867 14.7374 93.0221 14.7822C93.3575 14.827 93.6929 15.0957 93.637 15.3645C93.5811 15.6333 93.2457 15.8572 92.9662 15.8124C92.5749 15.7676 92.2954 15.3645 92.0718 15.1405C91.5128 14.5582 90.6184 14.0207 89.6681 14.0655C88.8296 14.1103 88.1029 14.7374 88.1588 15.4093C88.2147 16.2156 89.0532 16.6635 90.0035 16.6635C90.5066 16.6635 91.1215 16.5292 91.6246 16.6635C92.0159 16.7979 92.3513 17.1115 92.2954 17.4698C92.2395 17.8282 91.9041 18.097 91.4569 18.0074C90.8979 17.9626 90.5625 17.5594 90.283 17.2011C90.0035 16.8427 89.2768 17.1563 89.5563 17.5594C90.0035 18.1865 90.7861 18.7689 91.7923 18.6793C92.6308 18.5897 93.2457 17.9626 93.1339 17.2907C93.078 16.6187 92.3513 16.0812 91.5128 15.9468C91.0097 15.8572 90.5066 15.9468 90.0035 15.9916C89.5563 15.9916 89.1091 15.8572 88.9973 15.4541C88.9414 15.1405 89.2209 14.7822 89.6122 14.7374C90.0594 14.6926 90.6184 14.9613 90.9538 15.1853C91.5687 15.6333 91.96 16.4396 92.9103 16.4844C93.6929 16.4844 94.4196 15.9468 94.4755 15.2749C94.4755 14.603 93.7488 14.1103 92.9662 14.0207C92.7426 14.0207 92.519 14.0207 92.2954 14.1103C91.96 14.1998 91.8482 14.1103 91.5687 13.9311C91.2892 13.7519 90.7861 13.3488 91.2333 13.08C91.5128 12.9456 92.2395 12.856 92.519 12.9904C92.6867 13.08 92.7426 13.2592 92.8544 13.3488C92.9662 13.4831 93.1339 13.6175 93.3016 13.7071C93.7488 14.0207 94.196 13.4383 93.7488 13.2144Z" fill="#045C45"/>
<path d="M85.0287 11.5121C85.0287 11.5121 85.0287 11.4225 85.0287 11.4673C85.0287 11.3777 85.0287 11.5121 85.0287 11.4225C85.0846 11.3777 85.0846 11.3329 85.1405 11.2881C85.3082 11.1537 85.4759 10.9745 85.5318 10.7954C85.6995 10.3922 85.42 9.98906 84.9728 9.72029C84.5815 9.49632 83.9666 9.45153 83.5194 9.49632C83.2399 9.49632 82.9604 9.58591 82.7927 9.80988C82.625 9.98906 82.625 10.2578 82.6809 10.437C82.7368 10.7954 83.1281 11.1537 83.5194 11.2881C83.9666 11.4673 84.4697 11.5121 84.9728 11.6017C85.3082 11.6465 85.8113 11.736 85.979 12.0496C85.9231 12.0048 85.979 12.0944 85.979 12.0944C86.0349 12.184 85.979 12.0496 85.979 12.1392C85.979 12.184 85.979 12.184 85.979 12.2288C85.979 12.3184 85.979 12.184 85.979 12.2736C85.979 12.2736 85.9231 12.3632 85.979 12.3184C85.979 12.3632 85.9231 12.3632 85.9231 12.408C85.8672 12.4528 85.979 12.3632 85.9231 12.408L85.8672 12.4528C85.9231 12.4528 85.9231 12.4528 85.8113 12.4528C85.5877 12.4528 85.3641 12.3184 85.1964 12.2288L85.0287 12.0944C85.0846 12.0048 85.1405 11.9152 85.1405 11.8256C85.1405 11.4673 84.6374 11.2881 84.3579 11.5569C84.0784 11.7808 84.2461 12.184 84.6374 12.184C84.861 12.184 85.0846 12.0496 85.0846 11.8256C85.0846 11.6465 84.9169 11.4673 84.6374 11.4673C84.7492 11.5121 84.861 11.5121 84.9169 11.5569C84.9728 11.6465 84.9728 11.7808 85.0287 11.8704C84.9728 11.9152 84.861 12.0048 84.8051 12.0496C84.7492 12.0496 84.6374 12.0496 84.5815 12.0496C84.5256 12.0048 84.4697 12.0048 84.4138 11.96C84.3579 11.9152 84.3579 11.8704 84.302 11.8256V11.8704C84.302 11.8256 84.302 11.736 84.302 11.6912C84.302 11.7808 84.1902 11.8704 84.1902 12.0048C84.1902 12.0944 84.1902 12.184 84.2461 12.2288C84.3579 12.408 84.5256 12.5871 84.7492 12.6767C85.1405 12.9007 85.6436 13.1247 86.1467 12.9903C86.9852 12.7663 86.9852 11.8704 86.4821 11.3777C86.2026 11.1089 85.7554 10.9745 85.3641 10.9297C84.9169 10.8402 84.5256 10.8402 84.0784 10.7058C83.9107 10.661 83.7989 10.5714 83.6871 10.4818C83.6312 10.437 83.5753 10.3922 83.5753 10.3474C83.5194 10.3026 83.5194 10.2578 83.5194 10.213C83.5194 10.1682 83.5194 10.1234 83.5194 10.1234C83.5753 10.0786 83.5194 10.0786 83.6312 10.1234C83.8548 10.1234 84.0225 10.1234 84.2461 10.1234C84.4138 10.1682 84.5815 10.213 84.6933 10.3026C84.8051 10.3922 84.8051 10.4818 84.7492 10.5714C84.6933 10.7058 84.5256 10.7954 84.4138 10.9297C84.2461 11.0641 84.1902 11.2433 84.1902 11.4673C84.1902 11.6464 84.3579 11.8256 84.6374 11.8256C84.861 11.8704 85.0846 11.6912 85.0287 11.5121Z" fill="#045C45"/>
<path d="M84.5814 11.512C84.0224 11.4224 83.4075 11.288 82.9044 11.4672C82.3454 11.6464 81.9541 12.0048 81.9541 12.4975C81.9541 12.7215 82.01 12.9454 82.0659 13.1694C82.1218 13.3486 82.2336 13.5726 82.4013 13.7069C82.569 13.7965 82.7367 13.8413 82.9603 13.8413C83.128 13.8413 83.2957 13.7517 83.4075 13.7069C83.5752 13.6174 83.7988 13.5726 83.9665 13.4382C84.4137 13.1694 84.805 12.8111 84.805 12.3631C84.805 12.1839 84.5814 12.0048 84.3578 12.0048C84.1342 12.0048 83.9665 12.1391 83.9106 12.3631V12.4079V12.4975V12.5423C83.9106 12.5871 83.8547 12.5871 83.8547 12.6319C83.8547 12.6319 83.8547 12.6767 83.7988 12.6767C83.7988 12.6767 83.7429 12.7215 83.7429 12.7663C83.687 12.8111 83.6311 12.8559 83.5752 12.9006C83.5193 12.9454 83.6311 12.8559 83.5752 12.9006C83.5752 12.9006 83.5193 12.9006 83.5193 12.9454C83.4634 12.9454 83.4634 12.9902 83.4075 12.9902C83.3516 13.035 83.2398 13.0798 83.1839 13.0798C83.128 13.1246 83.0162 13.1246 82.9603 13.1694C82.9044 13.1694 82.9044 13.2142 82.8485 13.2142C82.7926 13.2142 82.9044 13.2142 82.8485 13.2142H82.7926C82.7926 13.2142 82.7926 13.2142 82.8485 13.2142C82.9044 13.2142 82.9044 13.2142 82.9603 13.2142C82.9603 13.259 83.0721 13.259 82.9603 13.2142L82.9044 13.1694V13.1246C82.9044 13.0798 82.8485 13.035 82.8485 12.9902C82.7926 12.9006 82.7926 12.8559 82.7926 12.7663C82.7926 12.7215 82.7926 12.6767 82.7367 12.6319C82.7367 12.5871 82.7367 12.5871 82.7367 12.5423C82.7367 12.4975 82.7367 12.4527 82.7367 12.4079C82.7367 12.4079 82.7367 12.3183 82.7367 12.3631C82.7367 12.4079 82.7367 12.3631 82.7367 12.3183C82.7367 12.2735 82.7367 12.2735 82.7926 12.2287L82.8485 12.1839C82.8485 12.1391 82.8485 12.1391 82.8485 12.1839L82.9044 12.1391L82.9603 12.0943C82.9044 12.1391 83.0162 12.0496 82.9603 12.0943C82.9603 12.0943 83.0162 12.0943 83.0162 12.0496C83.0721 12.0496 83.128 12.0048 83.128 12.0048C83.0162 12.0048 83.0721 12.0048 83.128 12.0048H83.1839C83.2398 12.0048 83.2957 12.0048 83.3516 11.96H83.4634C83.5193 11.96 83.5752 11.96 83.6311 11.96C83.687 11.96 83.687 11.96 83.7429 11.96C83.7429 11.96 83.8547 11.96 83.7988 11.96C83.8547 11.96 83.9106 11.96 83.9665 12.0048C84.0783 12.0048 84.246 12.0496 84.3578 12.0943C84.5814 12.1391 84.805 12.0496 84.8609 11.8704C84.9168 11.7808 84.805 11.5568 84.5814 11.512Z" fill="#045C45"/>
<path d="M84.5252 12.6768C83.6308 13.0799 82.7923 13.9758 83.4631 14.7821C83.7426 15.0956 84.2457 15.3196 84.7488 15.2748C85.3078 15.1852 85.6432 14.7821 85.9786 14.4237C86.314 14.0206 86.6494 13.6174 87.1525 13.3935C87.5997 13.2143 88.2705 13.2143 88.4382 13.6622C88.6059 14.1998 87.8233 14.1102 87.3761 14.1102C86.8171 14.1102 86.2022 14.155 85.6991 14.3341C84.6929 14.6477 83.9103 15.454 84.078 16.3499C84.1339 16.753 84.4134 17.1562 84.9165 17.2906C85.4755 17.4249 86.0345 17.1562 86.4258 16.8874C86.9848 16.5291 87.4879 16.1259 88.0469 15.8124C88.4941 15.5884 88.9972 15.4988 89.3326 15.9019C89.4444 16.0363 89.5562 16.2155 89.6121 16.3947C89.6121 16.4843 89.6121 16.5739 89.6121 16.6634C89.6121 16.7978 89.6121 16.7978 89.5003 16.7978C89.1649 16.8426 88.7736 16.8426 88.4382 16.8426C88.0469 16.8426 87.6556 16.8874 87.2643 16.8874C86.6494 16.9322 85.8668 16.8874 85.5314 17.425C85.2519 17.8281 85.2519 18.4104 85.4196 18.8136C85.5873 19.2615 86.0345 19.6199 86.6494 19.7095C87.3202 19.7991 87.9351 19.6199 88.55 19.3959C89.0531 19.2167 88.6059 18.6344 88.1028 18.8136C87.6556 18.948 87.0407 19.1719 86.5376 18.9928C86.1463 18.8136 86.0904 18.3656 86.1463 18.0073C86.2022 17.7385 86.314 17.6041 86.6494 17.6041C86.9848 17.5593 87.3761 17.5593 87.7115 17.5593C88.3823 17.5145 88.9972 17.5145 89.668 17.4697C90.7301 17.3354 90.5624 16.2155 90.1711 15.678C89.668 14.9613 88.6618 14.7821 87.7674 15.1404C87.2643 15.3644 86.8171 15.7228 86.3699 15.9915C86.1463 16.1707 85.3078 16.8874 84.9724 16.5291C84.7488 16.2155 84.8606 15.7676 85.1401 15.454C85.4755 15.0956 85.9786 14.8717 86.4817 14.7821C87.3761 14.6477 88.7736 15.0061 89.1649 14.1102C89.5003 13.3935 88.8854 12.6768 87.991 12.5424C86.7612 12.408 85.8668 13.2143 85.2519 13.9758C85.0842 14.155 84.9165 14.4685 84.6929 14.5581C84.4693 14.6477 84.1898 14.4685 84.1339 14.2893C83.9103 13.8414 84.5252 13.4383 84.9724 13.2591C85.4196 13.0351 84.9724 12.4528 84.5252 12.6768Z" fill="#045C45"/>
<path d="M89.2208 14.379C89.2767 10.4819 90.7301 6.71921 92.1835 3.04607C92.3512 2.64293 91.5127 2.46374 91.4009 2.86689C89.9475 6.62962 88.4382 10.3923 88.3823 14.379C88.3823 14.827 89.2208 14.827 89.2208 14.379Z" fill="#045C45"/>
<path d="M91.6247 3.35938C92.2396 3.40417 92.9663 3.40417 93.4135 3.00102C93.7489 2.68746 93.8048 2.19472 93.4694 1.88116C92.6309 1.11966 90.9539 2.10514 90.8421 2.91144C90.7862 3.26979 91.4011 3.31458 91.6247 3.09061C92.3514 2.28431 91.2334 1.56761 90.339 1.47802C89.8359 1.43322 89.1651 1.34363 88.7179 1.6124C88.3266 1.83637 88.2148 2.28432 88.4943 2.59788C88.662 2.73226 88.8297 2.82184 89.0533 2.73225C89.0533 2.73225 89.6123 3.35938 89.7241 3.44897C89.9477 3.62814 90.2831 3.71773 90.5626 3.76253C90.8421 3.80732 91.1216 3.80732 91.4011 3.85211C92.0719 3.89691 92.4073 4.07609 92.4073 4.61362C92.4073 4.65842 92.4073 5.06156 92.3514 5.10636C92.5191 5.06156 92.2396 4.83759 92.2955 4.88239C92.1278 4.65841 91.7924 4.43444 91.5129 4.25527C90.898 3.94171 90.1154 3.76253 89.4446 3.94171C88.2148 4.21047 87.6558 5.68868 89.1092 6.09183C89.9477 6.3158 90.9539 5.73348 91.7365 6.04704C92.0719 6.18143 92.2955 6.58458 92.4073 6.85334C92.5191 7.03252 92.6309 7.30128 92.6309 7.48046C92.575 8.10758 92.016 7.88361 91.7365 7.57005C91.4011 7.1221 91.1216 6.71896 90.5067 6.49499C89.9477 6.27101 89.221 6.27101 88.6061 6.49499C87.6558 6.85334 86.6496 8.28676 87.8235 8.91388C88.3825 9.22744 89.0533 9.04827 89.6123 8.86909C90.0595 8.73471 90.4508 8.60032 90.898 8.82429C91.457 9.13785 91.6247 9.72018 91.6247 10.2129C91.6247 10.3025 91.6806 10.7057 91.5129 10.7057C91.457 10.7057 91.1775 10.4817 91.1216 10.4369C90.8421 10.2577 90.5626 10.0337 90.2272 9.85456C89.6682 9.541 89.0533 9.31703 88.3266 9.40662C87.7117 9.49621 87.0968 9.76497 86.9291 10.2577C86.7614 10.7504 86.985 11.6015 87.4881 11.9599C88.103 12.363 88.8856 12.0943 89.5564 11.9599C89.8359 11.8703 90.1713 11.7807 90.4508 11.9151C90.6744 12.0495 90.8421 12.363 90.7303 12.587C90.5626 13.0798 89.7241 13.0798 89.2769 12.8558C88.8297 12.6318 88.3825 13.2141 88.8297 13.4381C90.0036 14.0204 91.7924 13.4381 91.5129 12.1839C91.4011 11.6911 90.9539 11.288 90.339 11.1984C89.8918 11.1088 89.4446 11.2432 88.9974 11.3776C88.8297 11.4224 88.5502 11.5567 88.3266 11.512C87.9353 11.512 87.7676 11.2432 87.6558 10.9744C87.3204 9.89936 88.7738 9.94415 89.5564 10.3921C90.1154 10.7057 90.7862 11.4672 91.5129 11.4224C92.2955 11.3776 92.3514 10.6609 92.3514 10.1681C92.3514 9.49621 92.1278 8.77949 91.457 8.33155C90.7862 7.88361 90.0595 7.9284 89.2769 8.15238C88.8856 8.28676 88.103 8.55553 88.0471 7.9732C87.9912 7.57005 88.4384 7.1221 88.8856 6.98772C89.3887 6.80854 89.9477 6.89814 90.339 7.1669C90.6744 7.39087 90.7862 7.70444 91.0098 7.9732C91.3452 8.37635 91.9601 8.64512 92.575 8.42115C93.9725 7.83882 93.134 5.86786 92.016 5.37513C91.6806 5.19595 91.2334 5.19595 90.8421 5.24074C90.3949 5.28554 89.7241 5.5543 89.2769 5.37513C88.8297 5.19595 88.8856 4.7928 89.2769 4.61362C89.5005 4.47924 89.8918 4.47924 90.1713 4.47924C90.7303 4.56883 91.1216 4.7928 91.5129 5.15115C91.9042 5.50951 92.7986 5.95745 93.0781 5.28554C93.3017 4.7928 93.3017 4.0313 92.9104 3.58335C92.3514 2.91144 91.3452 3.225 90.5626 3.00102C89.78 2.77705 89.6682 1.65719 88.6061 2.10514C88.7738 2.14993 88.9974 2.19473 89.1651 2.23952C88.9415 2.01555 90.2831 2.10514 90.2831 2.14993C90.6185 2.19473 91.1216 2.41869 90.7862 2.73225C91.0657 2.77705 91.2893 2.86664 91.5688 2.91144C91.6247 2.64267 92.3514 2.28431 92.575 2.4187C93.134 2.68746 91.7924 2.73225 91.5129 2.73225C91.0657 2.64267 91.0657 3.31459 91.6247 3.35938Z" fill="#045C45"/>
<path d="M70.9417 5.19609C71.7802 4.92732 72.5628 4.61377 73.2336 4.12103C73.569 3.89706 73.7926 3.62829 73.7367 3.31473C73.6808 3.00117 73.5131 2.7324 73.1777 2.55323C72.5069 2.15008 71.5566 2.41884 71.0535 2.91158C70.4945 3.44911 70.2709 4.25541 69.9914 4.92733C69.8796 5.19609 69.7678 5.68883 69.4324 5.82322C69.097 5.9576 68.6498 5.86801 68.3144 5.82322C68.4262 5.9128 68.538 6.04719 68.6498 6.13677C68.6498 5.73363 68.8175 4.88253 69.5442 5.06171C70.0473 5.1961 70.2709 4.52418 69.7678 4.43459C69.2088 4.3002 68.6498 4.47939 68.3144 4.83774C67.9231 5.1961 67.8672 5.68883 67.8672 6.13677C67.8672 6.27116 67.979 6.45033 68.2026 6.45033C68.8734 6.53992 69.6001 6.62951 70.1591 6.27116C70.4386 6.09198 70.5504 5.82321 70.7181 5.55445C70.8299 5.24089 70.9976 4.92733 71.1094 4.61377C71.333 4.12103 71.5007 3.40432 72.1156 3.09076C72.3392 3.00117 72.6746 2.91158 72.8982 3.04597C73.0659 3.13555 73.1218 3.31473 73.01 3.44911C72.7864 3.67308 72.3392 3.85226 72.0038 4.03144C71.6125 4.21062 71.2771 4.345 70.8299 4.47938C70.6063 4.52418 70.4945 4.70335 70.5504 4.88253C70.4945 5.1065 70.7181 5.24088 70.9417 5.19609Z" fill="#045C45"/>
<path d="M73.5687 3.98679C73.9041 3.8972 74.1836 3.8524 74.519 3.76282C74.6867 3.71802 74.8544 3.67323 75.0221 3.62843C75.078 3.62843 75.078 3.62844 75.1339 3.58364C75.1898 3.58364 75.1898 3.58364 75.1339 3.58364C75.078 3.58364 75.078 3.58364 75.0221 3.58364C75.0221 3.58364 75.0221 3.58364 75.0221 3.62843C75.078 3.71802 75.1339 3.80761 75.1898 3.8972C75.2457 3.98679 75.2457 4.07638 75.3016 4.16597C75.3575 4.34515 75.3575 4.52432 75.3575 4.74829C75.3575 4.92747 75.3016 5.10665 75.1898 5.28583C75.1339 5.42021 75.0221 5.64418 74.7985 5.64418C74.519 5.68897 74.2395 5.64418 74.0159 5.59939C73.7364 5.55459 73.4569 5.5098 73.1774 5.37542C72.9538 5.28583 72.7302 5.33062 72.6184 5.5098C72.5066 5.64418 72.5625 5.91295 72.7861 5.95774C73.3451 6.18172 73.96 6.2713 74.5749 6.31609C74.9103 6.31609 75.2457 6.2713 75.5252 6.09212C75.7488 5.95774 75.8606 5.73377 75.9724 5.55459C76.196 5.15144 76.2519 4.7035 76.196 4.30035C76.1401 4.07638 76.0842 3.85241 75.9724 3.67323C75.8606 3.44926 75.6929 3.18049 75.4693 3.04611C75.1339 2.91173 74.7426 3.04611 74.4072 3.1357C74.0718 3.22529 73.7364 3.31487 73.3451 3.40446C72.842 3.44925 73.0656 4.07638 73.5687 3.98679Z" fill="#045C45"/>
<path d="M72.2273 5.59969C72.2832 6.13722 72.3391 6.67475 72.395 7.21229C72.395 7.39146 72.395 7.61544 72.3391 7.79461C72.2832 7.97379 72.2273 8.10818 72.1155 8.19777C71.836 8.46653 71.277 8.46653 70.9416 8.19777C70.6062 7.929 70.3826 7.43626 70.6062 7.1227C70.718 6.89873 71.0534 6.80914 71.1652 6.58517C71.3329 6.3164 71.3329 5.95804 70.9975 5.77887C70.8298 5.68928 70.6062 5.64448 70.3826 5.77887C70.2149 5.91325 70.2149 6.13722 70.3826 6.27161C70.4385 6.3164 70.3826 6.2716 70.3826 6.22681C70.3826 6.2716 70.3826 6.27161 70.3826 6.27161C70.2708 6.3612 70.159 6.45078 70.0472 6.54037C69.7677 6.76434 69.6559 7.03311 69.6559 7.30188C69.6 7.88421 69.8795 8.46653 70.4944 8.82489C71.0534 9.18324 71.8919 9.22804 72.4509 8.86968C72.954 8.55612 73.1217 8.06338 73.1776 7.57064C73.1776 7.30188 73.1776 7.03311 73.1776 6.76434C73.1217 6.40599 73.1217 6.00284 73.0658 5.64448C73.0658 5.4653 72.8981 5.28613 72.6186 5.28613C72.395 5.28613 72.1714 5.42051 72.2273 5.59969Z" fill="#045C45"/>
<path d="M76.5316 12.184C74.0161 12.408 71.3329 12.6768 69.3764 14.1102C68.9851 14.379 69.5441 14.8717 69.9913 14.6029C71.7801 13.3487 74.2956 13.0799 76.5316 12.9007C77.0906 12.8111 77.0906 12.1392 76.5316 12.184Z" fill="#045C45"/>
<path d="M69.3764 14.6477C69.4323 14.3789 69.4882 14.0654 69.5441 13.7966C69.6 13.5278 69.7677 13.2143 69.6559 12.9903C69.5441 12.7663 69.2646 12.6768 69.041 12.632C68.7056 12.5424 68.3701 12.4528 68.0347 12.408C67.4757 12.3184 66.7491 12.1392 66.4137 12.632C66.1342 13.0351 66.1901 13.4831 66.4137 13.8862C66.9168 14.7821 68.2025 15.0061 69.3205 14.9165C69.9913 14.8717 70.6621 14.7373 71.3329 14.7373C71.5565 14.7373 71.9478 14.7373 72.1155 14.8717C72.2273 15.0061 72.1714 15.1852 72.1155 15.2748C71.836 15.6332 71.0534 15.5884 70.6062 15.454C70.0472 15.3196 69.6 14.9613 69.3764 14.5133C69.1528 14.1102 68.426 14.2446 68.5937 14.6925C68.7614 15.23 68.7614 15.7676 68.5937 16.3051C68.5378 16.3947 68.5379 16.5291 68.3702 16.5739C68.2584 16.6187 68.0907 16.6187 67.923 16.6634C67.6435 16.7082 67.3081 16.7082 67.0286 16.5739C66.8609 16.4843 66.6932 16.3051 66.6932 16.1707C66.6932 15.9915 66.8609 15.8572 67.0286 15.7676C67.5876 15.454 68.2583 15.2748 68.8732 15.0061C69.3763 14.8269 68.9292 14.2446 68.4261 14.4237C67.923 14.6029 67.4199 14.8269 66.9727 15.0061C66.6373 15.1404 66.3018 15.3196 66.0782 15.5436C65.5751 16.1259 65.9665 16.8874 66.6932 17.1562C67.0845 17.3354 67.5317 17.3354 67.9789 17.3354C68.4261 17.2906 68.9291 17.201 69.1527 16.8426C69.6558 16.1707 69.6 15.23 69.3764 14.5133C69.0969 14.5581 68.8173 14.6477 68.5937 14.6925C68.985 15.4988 69.8795 16.0811 70.9975 16.1707C72.0037 16.2603 73.2893 15.7676 73.0657 14.7821C72.7862 13.6622 70.8298 14.0206 69.8795 14.1102C68.9292 14.1998 67.364 14.2893 67.0845 13.3039C67.0845 13.2143 67.0286 13.1247 67.0845 13.0351C67.0845 12.9007 67.1404 12.9007 67.2522 12.8559C67.4199 12.8559 67.6435 12.9007 67.8112 12.9455C67.9789 12.9903 68.2025 13.0351 68.3702 13.0799C68.5379 13.1247 68.7056 13.1695 68.9292 13.2143C69.1528 13.2591 68.9292 13.1695 68.9292 13.1695L68.8732 13.4383C68.8173 13.7518 68.7615 14.0654 68.6497 14.3789C68.482 14.8717 69.3205 15.0509 69.3764 14.6477Z" fill="#045C45"/>
<path d="M77.6495 12.8557C78.3762 10.5712 80.0532 8.55544 82.2892 7.03243C82.6805 6.76367 82.1215 6.27093 81.6743 6.53969C79.3265 8.1075 77.5936 10.3024 76.811 12.6765C76.6992 13.0797 77.5377 13.2589 77.6495 12.8557Z" fill="#045C45"/>
<path d="M82.2333 6.45017C81.842 6.1814 81.4507 5.86784 81.2271 5.50949C81.1153 5.33031 81.0035 5.15113 80.8917 4.97195C80.8917 4.92716 80.8358 4.88237 80.8358 4.83757C80.7799 4.88237 80.724 4.88237 80.724 4.92716L81.1153 4.88236C81.3948 4.88236 81.6743 4.88237 81.9538 4.92716C82.1774 4.97196 82.2892 4.97196 82.2892 5.15113C82.3451 5.68867 82.401 6.1814 82.4569 6.71894C82.4569 6.89811 82.7364 7.12208 82.96 7.0325C83.4072 6.89811 83.9662 6.76373 84.3575 7.07729C84.4693 7.16688 84.5811 7.34606 84.637 7.48044C84.6929 7.57003 84.7488 7.65962 84.8047 7.74921C84.8047 7.794 84.8047 7.794 84.8606 7.8388C84.8606 7.97318 84.9165 7.97318 84.9724 7.8388C84.9724 7.8388 84.6929 7.88359 84.6929 7.92838C84.5811 7.92838 84.4693 7.92838 84.3016 7.92838C84.078 7.88359 83.8544 7.8388 83.6308 7.74921C83.1836 7.52524 82.7923 7.21167 82.4569 6.89811C82.2333 6.67414 81.7302 6.85332 81.7302 7.12208C81.7302 7.65962 81.7861 8.19715 81.7861 8.73468C81.7861 9.00345 81.842 9.27222 81.842 9.54098C81.842 9.72016 81.7861 9.80975 81.5625 9.76495C81.0594 9.72016 81.1153 9.04824 81.1712 8.77947C81.283 8.33153 81.5066 7.88359 81.8979 7.57003C82.2333 7.25647 81.6743 6.76373 81.283 7.07729C80.724 7.61482 80.3327 8.19715 80.2768 8.91386C80.2209 9.49618 80.4445 10.2129 81.2271 10.3921C82.0097 10.5713 82.6246 10.1233 82.6246 9.49619C82.6246 8.68989 82.5687 7.88359 82.5128 7.07729C82.2892 7.16688 82.0097 7.25647 81.7861 7.30126C82.3451 7.74921 82.9041 8.24194 83.6308 8.46591C84.1898 8.64509 85.3637 8.68988 85.6432 8.10756C85.755 7.83879 85.5873 7.52524 85.4196 7.30126C85.3078 7.0325 85.1401 6.80852 84.8606 6.58455C84.2457 6.13661 83.4072 6.13661 82.6805 6.40538C82.8482 6.49497 83.0159 6.62935 83.1836 6.71894C83.1277 6.31579 83.1277 5.95743 83.0718 5.55428C83.0718 5.24072 83.0718 4.88237 82.8482 4.6136C82.6805 4.38963 82.2892 4.30004 82.0097 4.25525C81.5625 4.21045 81.1712 4.16565 80.724 4.21045C78.7675 4.34483 80.8917 6.45017 81.5625 6.89811C82.0656 7.21167 82.6805 6.76373 82.2333 6.45017Z" fill="#045C45"/>
<path d="M77.2581 11.9601C76.8668 11.3778 76.5873 10.7058 76.4755 10.0787C76.4196 9.76516 76.4196 9.4516 76.5314 9.18283C76.5873 9.00365 76.6991 8.6005 76.9786 8.51091C77.0904 8.46612 77.0904 8.6453 77.0904 8.73489C77.1463 8.91406 77.1463 9.04844 77.2022 9.22762C77.2581 9.54118 77.314 9.89954 77.3699 10.2579C77.4258 10.9746 77.3699 11.6465 77.0904 12.3184C76.9227 12.7216 77.7053 12.9008 77.873 12.4976C78.1525 11.8257 78.2643 11.1538 78.2084 10.4371C78.2084 10.0787 78.1525 9.76516 78.0966 9.4068C78.0407 9.09324 77.9848 8.73489 77.9289 8.42133C77.8171 8.10777 77.5376 7.88379 77.0904 7.88379C76.6991 7.88379 76.3637 8.06297 76.1401 8.33173C75.6929 8.86927 75.637 9.58598 75.7488 10.1683C75.8606 10.9298 76.196 11.6465 76.6432 12.3184C76.8109 12.6768 77.5376 12.3184 77.2581 11.9601Z" fill="#045C45"/>
<path d="M76.5319 12.6316C76.4201 12.6764 76.3083 12.6764 76.1965 12.6316C76.0288 12.6316 75.8611 12.5868 75.6934 12.542C75.3021 12.4972 74.9108 12.542 74.5754 12.7659C74.2959 12.9451 74.0723 13.2139 73.8487 13.4827C73.6251 13.7066 73.4574 13.9754 73.3456 14.289C73.122 14.7817 73.1779 15.7224 74.0723 15.812C74.8549 15.9016 75.2462 15.0953 75.6375 14.6921C76.0847 14.1994 76.6437 13.7514 77.2586 13.3931C77.4263 13.3035 77.5381 13.0795 77.4263 12.9451C77.3145 12.8107 77.035 12.7212 76.8673 12.8107C76.3642 13.1243 75.8611 13.4379 75.4698 13.841C75.2462 14.0202 75.0785 14.2442 74.8549 14.4681C74.6872 14.6473 74.5754 14.8713 74.4077 15.0505C74.3518 15.0953 74.2959 15.1401 74.2959 15.1401C74.24 15.1401 74.24 15.1848 74.24 15.1848L74.1841 15.1401C74.0723 14.9609 74.0723 14.7817 74.1841 14.6025C74.3518 14.1546 74.7431 13.7514 75.1344 13.3931C75.358 13.2139 75.4698 13.2139 75.7493 13.2587C76.0847 13.3035 76.476 13.3931 76.8114 13.2587C77.035 13.2139 77.1468 13.0347 77.0909 12.8555C76.9791 12.6764 76.7555 12.542 76.5319 12.6316Z" fill="#045C45"/>
<path d="M79.8859 18.2758C79.6064 17.3351 79.8859 16.3049 80.6126 15.5434C80.8921 15.2298 81.3952 14.7819 81.9542 14.6923C82.1778 14.6475 82.2896 14.7819 82.2896 14.961C82.2337 15.2298 81.9542 15.409 81.7306 15.5434C81.0598 15.9913 80.2772 16.4392 79.4946 16.7976C79.0474 17.0216 79.4387 17.6039 79.9418 17.3799C80.7803 16.9768 81.6188 16.5288 82.4014 15.9913C82.7368 15.7673 83.0722 15.4538 83.1281 15.0954C83.184 14.7371 83.0722 14.3339 82.625 14.1547C81.8983 13.7964 81.0039 14.2891 80.4449 14.6923C79.8859 15.1402 79.4387 15.6777 79.2151 16.3049C78.9356 17.0216 78.8797 17.7383 79.1033 18.455C79.2151 18.8581 79.9977 18.679 79.8859 18.2758Z" fill="#045C45"/>
<path d="M80.5565 21.0534C80.2211 19.3512 77.9851 18.7241 76.1404 18.5897C74.2957 18.4553 72.2274 18.4105 70.8299 19.4856C70.4386 19.7992 71.0535 20.2471 71.4448 19.9783C72.6187 19.0825 74.3516 19.1273 75.8609 19.2616C77.4261 19.3512 79.4944 19.7544 79.8298 21.2326C79.8298 21.6357 80.6683 21.4566 80.5565 21.0534Z" fill="#045C45"/>
<path d="M70.3267 19.9778C70.4385 20.2914 70.6621 20.5154 70.9416 20.7393C71.1093 20.8737 71.3888 21.0529 71.4447 21.2769C71.5006 21.5009 71.1093 21.68 70.9416 21.4561C70.8298 21.3217 70.8857 21.0977 70.9416 20.9633C70.9975 20.7393 71.0534 20.5602 71.1093 20.3362C71.1652 19.9778 70.5503 19.933 70.3267 20.157C69.9913 20.5602 69.1528 20.8737 68.7615 20.3362C68.5938 20.157 68.6497 19.9778 68.9292 19.8435C69.2087 19.7091 69.3764 19.933 69.6 20.0226C69.9913 20.157 70.4385 20.0674 70.6062 19.7091C70.7739 19.3955 70.8857 19.0372 71.0534 18.7236C71.2211 18.4548 71.3888 18.0517 71.7242 17.8277C71.9478 17.6933 72.3391 17.7829 72.3391 18.0069C72.3391 18.1413 72.2273 18.2757 72.1155 18.3652C71.9478 18.5444 71.7242 18.6788 71.5565 18.858C71.1652 19.2163 70.7739 19.5299 70.4385 19.8883C70.6621 19.933 70.8857 19.9778 71.1652 20.0226C71.1652 20.0674 71.1093 20.1122 71.1093 20.157C71.6124 19.9778 71.1652 19.3955 70.6621 19.5747C70.3826 19.7091 70.2708 19.933 70.3267 20.2018C70.3826 20.4258 70.8298 20.5602 71.0534 20.3362C71.5006 19.933 71.9478 19.5299 72.395 19.1267C72.7863 18.7684 73.2335 18.41 73.1776 17.9173C73.1217 17.4694 72.7304 17.111 72.1714 17.0214C71.5565 16.9318 71.1093 17.2006 70.7739 17.6037C70.4385 18.0069 70.2149 18.4548 69.9913 18.9028C69.9354 18.9924 69.8795 19.1267 69.8236 19.2163C69.7677 19.3059 69.7118 19.3507 69.8795 19.3059C69.9913 19.2611 69.9913 19.2611 69.8795 19.2163C69.6559 19.1267 69.4882 18.9924 69.2087 18.9924C68.1466 18.9028 67.4758 19.8883 68.0348 20.5602C68.3702 20.9633 68.9292 21.1425 69.5441 21.0977C70.159 21.0529 70.718 20.7393 71.0534 20.2914C70.7739 20.2466 70.5503 20.157 70.2708 20.1122C70.2149 20.6498 69.8236 21.1873 70.3267 21.68C70.7739 22.0832 71.5565 22.0832 72.0037 21.68C72.395 21.3217 72.3391 20.8289 72.0037 20.4258C71.7242 20.1122 71.277 19.8882 71.1093 19.5299C70.9975 19.3955 70.159 19.5747 70.3267 19.9778Z" fill="#045C45"/>
<path d="M77.9292 19.2166C77.4261 19.0822 76.8112 19.127 76.3081 19.3062C76.0845 19.3957 75.8609 19.5301 75.6373 19.7093C75.4137 19.8885 75.1901 20.1572 75.246 20.3812C75.3019 20.5156 75.4137 20.65 75.5814 20.7396C75.6373 20.7844 75.7491 20.7844 75.805 20.7844C75.8609 20.7844 75.8609 20.7844 75.9168 20.7844H75.9727C75.9168 20.7844 75.9168 20.7844 75.9727 20.7844L76.0286 20.8292C76.0845 20.9188 76.1404 20.9635 76.1404 21.0083C76.2522 21.1875 76.364 21.3219 76.5876 21.4115C76.923 21.5459 77.2584 21.4563 77.5379 21.2771C78.2087 20.874 78.8236 20.5156 79.4944 20.1125C79.6621 20.0229 79.7739 19.8437 79.6621 19.6645C79.5503 19.5301 79.2708 19.4405 79.1031 19.5301C78.7118 19.7541 78.3205 19.9781 77.9292 20.202C77.7615 20.3364 77.5379 20.426 77.3702 20.5604C77.2584 20.65 77.0348 20.7396 76.9789 20.7844C76.9789 20.8292 77.0348 20.7844 76.9789 20.7844C76.923 20.7396 77.0348 20.874 76.9789 20.7844L76.923 20.7396C76.8671 20.65 76.8112 20.5604 76.7553 20.4708C76.6435 20.3812 76.5317 20.2468 76.4199 20.202C76.3081 20.1572 76.2522 20.1572 76.1404 20.1125C76.0845 20.1125 76.0286 20.1125 75.9727 20.1125C75.8609 20.1125 75.9727 20.1125 76.0286 20.1572C76.0845 20.202 76.0845 20.2468 76.1404 20.2916C76.0845 20.3812 76.1404 20.3364 76.1404 20.2916C76.1404 20.2468 76.1963 20.2468 76.1963 20.202C76.1963 20.202 76.3081 20.1125 76.364 20.0677C76.4758 19.9781 76.6435 19.9333 76.7553 19.8885C77.0907 19.7541 77.3702 19.7541 77.7056 19.8437C77.9292 19.8885 78.1528 19.7541 78.2087 19.6197C78.3205 19.4405 78.1528 19.3062 77.9292 19.2166Z" fill="#045C45"/>
<path d="M81.6745 24.0095C82.1217 23.5615 82.513 23.1136 83.072 22.8C83.5751 22.5313 84.19 22.3073 84.8049 22.3969C84.6931 22.3073 84.6372 22.2625 84.5254 22.1729C84.5813 22.3969 84.5254 22.5761 84.3577 22.7553C84.19 22.9792 83.9664 23.1136 83.6869 23.248C83.0161 23.5168 82.1776 23.5615 81.4509 23.6959C80.9478 23.7855 81.1714 24.4574 81.6745 24.3231C82.5689 24.1439 83.5192 24.0991 84.3018 23.6959C85.0285 23.3376 85.5875 22.6209 85.3639 21.949C85.308 21.8594 85.1962 21.725 85.0844 21.725C84.3018 21.6354 83.4633 21.8146 82.7925 22.1729C82.1217 22.5313 81.6186 23.024 81.1155 23.5168C80.9478 23.6511 80.9478 23.8751 81.1155 24.0095C81.2273 24.1439 81.5627 24.1439 81.6745 24.0095Z" fill="#045C45"/>
<path d="M100.066 13.2143C99.0594 12.2736 98.1091 11.2881 97.2147 10.2579C96.8234 9.80994 96.3203 9.3172 96.2085 8.73487C96.0967 8.06296 96.5998 7.7494 97.2706 7.48063C97.606 7.34625 97.9414 7.21186 98.3327 7.34625C98.6122 7.43583 98.8358 7.6598 99.0035 7.88378C99.3389 8.42131 99.283 9.04843 99.3389 9.63076C99.4507 10.9298 99.5625 12.2288 99.6184 13.5727C99.6743 14.0206 100.513 14.0206 100.457 13.5727C100.345 12.3184 100.289 11.0194 100.177 9.76515C100.121 8.77967 100.121 7.52542 98.9476 6.8983C98.3886 6.62954 97.8296 6.62954 97.2147 6.80871C96.6557 6.98789 96.0967 7.21186 95.7054 7.61501C94.8669 8.5557 95.6495 9.67555 96.3203 10.4819C97.2706 11.6017 98.3327 12.7216 99.4507 13.7518C99.7861 14.0206 100.401 13.5727 100.066 13.2143Z" fill="#045C45"/>
<path d="M99.171 17.3354C99.9536 16.977 100.345 16.3051 101.072 15.9468C101.91 15.5436 102.916 15.6332 103.867 15.678C104.314 15.678 104.761 15.7228 105.208 15.678C105.711 15.678 106.27 15.6332 106.773 15.7676C107.221 15.902 107.612 16.1259 107.891 16.3947C108.171 16.6187 108.73 17.0218 108.786 17.3802C108.786 17.2906 108.842 17.201 108.842 17.1114C108.674 17.3802 108.115 17.6042 107.78 17.7385C107.332 17.9177 106.829 17.9625 106.326 17.9177C105.432 17.7833 104.593 17.4698 103.699 17.2458C102.078 16.7531 100.289 16.0364 98.556 16.3947C98.0529 16.4843 98.2765 17.1562 98.7796 17.0218C99.7858 16.7979 100.736 17.0666 101.686 17.3354C102.581 17.6042 103.475 17.8729 104.37 18.0969C105.208 18.3209 106.047 18.6344 106.941 18.5896C107.724 18.5448 108.394 18.2313 109.009 17.8281C109.233 17.649 109.568 17.5146 109.568 17.2458C109.568 16.977 109.289 16.7083 109.065 16.4843C108.618 16.0364 108.115 15.5884 107.5 15.2749C106.829 14.9613 106.103 14.9165 105.32 14.9613C104.481 15.0061 103.699 14.9165 102.86 14.9165C102.078 14.9165 101.183 14.9613 100.513 15.3197C99.7858 15.678 99.3946 16.3499 98.6679 16.6635C98.2766 16.977 98.7238 17.5594 99.171 17.3354Z" fill="#045C45"/>
<path d="M95.4816 23.1136C95.4816 22.576 95.4816 22.0833 95.4816 21.5458C95.4816 21.053 95.5375 20.5603 95.4816 20.0676C95.4257 19.5748 94.9226 19.3509 94.4195 19.1717C93.9164 18.9925 93.4133 18.9029 92.9102 18.8581C91.904 18.8133 90.786 18.9925 90.0034 19.5748C89.6121 19.8884 89.4444 20.2915 89.6121 20.6947C89.7798 21.053 90.227 21.3666 90.6742 21.501C91.345 21.6802 92.0158 21.5458 92.6866 21.5906C93.0779 21.6354 93.581 21.725 93.6928 22.0833C93.8605 22.4865 94.6431 22.3073 94.4754 21.9041C94.1959 21.2322 93.3015 20.9635 92.5189 20.9187C92.0158 20.9187 91.4568 20.9634 90.9537 20.8739C90.6742 20.8291 90.227 20.6051 90.2829 20.2915C90.3388 20.0228 90.8419 19.8436 91.1214 19.754C91.5127 19.6196 91.904 19.53 92.3512 19.53C92.7984 19.53 93.1897 19.5748 93.581 19.6644C93.7487 19.7092 93.9723 19.754 94.14 19.8436C94.3077 19.9332 94.5313 19.978 94.5872 20.1572C94.6431 20.3811 94.5872 20.6051 94.5872 20.8291C94.5872 21.0978 94.5872 21.3218 94.5872 21.5906C94.5872 22.0833 94.5872 22.6208 94.5872 23.1136C94.6431 23.5615 95.4816 23.5615 95.4816 23.1136Z" fill="#045C45"/>
<path d="M102.413 12.0495C102.637 12.0943 102.86 12.0943 103.14 12.1391C103.196 12.1391 103.252 12.1391 103.308 12.1391C103.364 12.1391 103.42 12.1391 103.475 12.0943C103.587 12.0495 103.643 11.9599 103.643 11.9151C103.643 11.8255 103.643 11.7359 103.587 11.6463C103.531 11.5567 103.419 11.512 103.364 11.512C103.14 11.4672 102.916 11.4672 102.637 11.4224C102.581 11.4224 102.525 11.4224 102.469 11.4224C102.413 11.4224 102.357 11.4224 102.301 11.4672C102.19 11.5119 102.134 11.6015 102.134 11.6463C102.134 11.7359 102.134 11.8255 102.19 11.9151C102.246 11.9599 102.301 12.0495 102.413 12.0495Z" fill="#045C45"/>
<path d="M98.6121 14.603C98.6121 14.603 98.668 14.603 98.7239 14.603C98.6121 14.603 98.4444 14.603 98.3326 14.603C98.3885 14.603 98.3885 14.603 98.4444 14.603C98.3326 14.603 98.1649 14.5582 98.0531 14.5134C98.109 14.5134 98.109 14.5582 98.1649 14.5582C98.1649 14.5582 98.1649 14.5582 98.109 14.5582C98.0531 14.5134 97.9972 14.5134 97.9413 14.5134C97.8854 14.5134 97.8295 14.5134 97.7736 14.5134C97.6618 14.5134 97.55 14.603 97.55 14.6478C97.4941 14.7374 97.4941 14.827 97.4941 14.9166C97.55 15.0062 97.6059 15.0958 97.6618 15.0958C97.8295 15.1406 97.9972 15.1853 98.1649 15.2301C98.2767 15.2301 98.3885 15.2749 98.5003 15.2749C98.6121 15.2749 98.7239 15.2749 98.8357 15.2301C98.9475 15.2301 99.0593 15.1406 99.0593 15.0958C99.1152 15.0062 99.1152 14.9166 99.1152 14.827C99.0593 14.7374 99.0034 14.6478 98.9475 14.6478C98.8916 14.6478 98.8916 14.603 98.8357 14.603C98.7798 14.603 98.7239 14.603 98.6121 14.603Z" fill="#045C45"/>
<path d="M96.8236 17.9623C96.7118 17.9175 96.6 17.8279 96.4882 17.7831C96.4323 17.7383 96.3764 17.7383 96.3205 17.7383C96.2646 17.7383 96.2087 17.7383 96.1528 17.7383C96.0969 17.7383 96.041 17.7831 95.9851 17.7831C95.9292 17.8279 95.9292 17.8279 95.8733 17.8727C95.8733 17.9175 95.8174 17.9175 95.8174 17.9623C95.8174 18.007 95.8174 18.0966 95.8174 18.1414C95.8174 18.1862 95.8733 18.1862 95.8733 18.231C95.9292 18.2758 95.9851 18.3206 96.041 18.3654C96.1528 18.4102 96.2646 18.4998 96.3764 18.5446C96.4323 18.5894 96.4882 18.5894 96.5441 18.5894C96.6 18.5894 96.6559 18.5894 96.7118 18.5894C96.7677 18.5894 96.8236 18.5446 96.8795 18.5446C96.9354 18.4998 96.9354 18.4998 96.9913 18.455C96.9913 18.4102 97.0472 18.4102 97.0472 18.3654C97.0472 18.3206 97.0472 18.231 97.0472 18.1862C97.0472 18.1414 96.9913 18.1414 96.9913 18.0966C96.9354 18.0518 96.8795 18.007 96.8236 17.9623Z" fill="#045C45"/>
<path d="M102.973 9.58602C102.917 9.54123 102.805 9.45164 102.749 9.40685C102.693 9.36205 102.693 9.36205 102.637 9.31726C102.581 9.31726 102.525 9.27246 102.469 9.27246C102.414 9.27246 102.358 9.27246 102.302 9.31726C102.246 9.31726 102.19 9.36205 102.19 9.40685C102.19 9.45164 102.134 9.45164 102.134 9.49643C102.078 9.54123 102.078 9.58602 102.078 9.67561C102.078 9.7204 102.078 9.72041 102.078 9.7652C102.078 9.81 102.134 9.85478 102.19 9.89958C102.246 9.94437 102.358 10.034 102.414 10.0788C102.469 10.1236 102.469 10.1236 102.525 10.1683C102.581 10.1683 102.637 10.2131 102.693 10.2131C102.749 10.2131 102.805 10.2131 102.861 10.1683C102.917 10.1683 102.973 10.1236 102.973 10.0788C102.973 10.034 103.028 10.034 103.028 9.98917C103.084 9.94438 103.084 9.89958 103.084 9.80999C103.084 9.7652 103.084 9.7652 103.084 9.7204C103.028 9.67561 103.028 9.63081 102.973 9.58602Z" fill="#045C45"/>
<path d="M95.985 22.1285C96.0409 22.1285 96.0409 22.1285 96.0968 22.1285C96.0409 22.1285 95.985 22.1285 95.985 22.1285C96.0968 22.1285 96.2086 22.1285 96.3204 22.1285C96.2645 22.1285 96.2645 22.1285 96.2086 22.1285C96.3204 22.1285 96.4322 22.1732 96.544 22.218C96.4881 22.218 96.4881 22.1733 96.4322 22.1733C96.544 22.218 96.5999 22.2628 96.7117 22.3076C96.8235 22.3524 96.9353 22.3524 97.0471 22.3524C97.1589 22.3524 97.2707 22.2628 97.2707 22.218C97.3266 22.1285 97.3266 22.0389 97.3266 21.9493C97.2707 21.8597 97.2148 21.8149 97.1589 21.7701C96.7676 21.5461 96.2645 21.5013 95.7614 21.5461C95.6496 21.5461 95.5378 21.6357 95.5378 21.6805C95.4819 21.7701 95.4819 21.8597 95.4819 21.9493C95.5378 22.0389 95.5937 22.1285 95.6496 22.1285C95.7614 22.1285 95.8732 22.1285 95.985 22.1285Z" fill="#045C45"/>
<path d="M93.1339 27.8173C93.1339 27.8173 93.078 27.8173 93.0221 27.8173C93.2457 27.7725 93.4693 27.7725 93.6929 27.8173C93.637 27.8173 93.637 27.8173 93.5811 27.8173C93.7488 27.8173 93.9165 27.8621 94.0283 27.9069C94.2519 27.9517 94.4755 27.8621 94.5314 27.6829C94.5873 27.5037 94.4755 27.3246 94.2519 27.2798C94.0283 27.235 93.8047 27.1902 93.5252 27.1902C93.3016 27.1902 93.078 27.1902 92.7985 27.235C92.6867 27.235 92.5749 27.3246 92.5749 27.3694C92.519 27.4589 92.519 27.5485 92.519 27.6381C92.5749 27.7277 92.6308 27.8173 92.6867 27.8173C92.7426 27.8173 92.7426 27.8621 92.7985 27.8621C93.0221 27.8621 93.078 27.8621 93.1339 27.8173Z" fill="#045C45"/>
<path d="M93.9165 22.0835C93.9165 22.173 93.9165 22.2626 93.9165 22.3522C93.9165 22.3074 93.9165 22.3074 93.9165 22.2626C93.9165 22.397 93.8606 22.5314 93.8047 22.621C93.8047 22.5762 93.8606 22.5762 93.8606 22.5314C93.8047 22.621 93.7488 22.7554 93.637 22.845C93.5811 22.8898 93.5811 23.0241 93.5811 23.1137C93.5811 23.2033 93.6928 23.2929 93.7487 23.2929C93.8605 23.3377 93.9724 23.3377 94.0842 23.3377C94.196 23.2929 94.2518 23.2481 94.3077 23.2033C94.5872 22.8898 94.755 22.4866 94.6991 22.0835C94.6991 21.9043 94.5314 21.7251 94.2519 21.7251C94.1401 21.7699 93.9165 21.9043 93.9165 22.0835Z" fill="#045C45"/>
<path d="M79.7741 26.7423C82.2896 25.7568 85.0846 25.5328 87.8237 25.712C90.0597 25.8464 92.7988 26.2047 94.0286 27.9069C94.1404 27.7277 94.2522 27.5486 94.364 27.4142C91.9603 27.5486 89.5566 27.5933 87.1529 27.5486C85.979 27.5038 84.8051 27.459 83.6312 27.4142C83.0163 27.3694 82.4573 27.3246 81.8424 27.2798C81.5629 27.2798 79.83 27.235 79.9418 26.8766C79.83 26.9662 79.7741 27.011 79.6623 27.1006C79.83 27.0558 80.0536 27.011 80.2213 27.011C80.7244 26.9214 80.5008 26.2495 79.9977 26.3839C79.5505 26.4735 79.1033 26.5183 79.0474 26.9662C79.0474 27.3246 79.3828 27.6381 79.7741 27.7725C80.389 27.9517 81.1716 27.9517 81.7865 27.9965C82.625 28.0861 83.5194 28.1309 84.3579 28.1757C87.656 28.3548 91.01 28.3549 94.3081 28.1309C94.6435 28.1309 94.8112 27.8621 94.6435 27.6381C93.3578 25.8464 90.6187 25.3536 88.215 25.1297C85.1405 24.8609 82.066 25.1297 79.271 26.2047C78.8797 26.3391 79.271 26.9214 79.7741 26.7423Z" fill="#045C45"/>
<path d="M93.6929 27.5488C92.4631 29.6093 91.2892 31.7147 90.2271 33.8648C90.0035 34.268 90.842 34.4471 91.0097 34.044C92.0718 31.9834 93.1898 29.9229 94.4196 27.9072C94.6432 27.504 93.9165 27.1457 93.6929 27.5488Z" fill="#045C45"/>
<path d="M78.9913 26.9214C78.8795 29.5643 79.7739 32.1624 81.6186 34.4021C81.8981 34.7605 82.6248 34.4469 82.3453 34.0437C80.6124 31.9384 79.718 29.4299 79.8298 26.9214C79.8298 26.4735 78.9913 26.5183 78.9913 26.9214Z" fill="#045C45"/>
<path d="M90.2833 34.2227C90.3951 34.7154 90.8423 35.1186 91.2895 35.4769C91.5131 35.6561 91.7367 35.7905 91.9044 36.0145C91.9044 36.0592 91.9603 36.0592 91.9603 36.104C92.0162 36.1488 92.0162 36.1936 92.0721 36.2384C92.0721 36.2832 92.0721 36.2832 92.128 36.328C92.128 36.3728 92.1839 36.4624 92.1839 36.5072C92.2398 36.6864 92.5193 36.7759 92.687 36.7312C92.9106 36.6864 93.0224 36.5072 92.9665 36.328C92.8547 35.8353 92.4075 35.4321 91.9603 35.0738C91.7367 34.8946 91.5131 34.7602 91.3454 34.5362C91.3454 34.4914 91.2895 34.4914 91.2895 34.4467C91.2336 34.4019 91.2336 34.3571 91.1777 34.3123C91.1777 34.2675 91.1777 34.2675 91.1218 34.2227C91.1218 34.1779 91.0659 34.0883 91.0659 34.0435C91.01 33.8643 90.7305 33.7747 90.5628 33.8195C90.3392 33.8643 90.2274 34.0435 90.2833 34.2227Z" fill="#045C45"/>
<path d="M81.3948 33.999C80.2209 34.6261 79.2147 35.4324 78.488 36.3731C78.3762 36.5075 78.4321 36.7315 78.6557 36.821C78.8793 36.9106 79.1029 36.8658 79.2147 36.6867C79.8855 35.8356 80.7799 35.0741 81.842 34.5365C82.0097 34.4469 82.1215 34.223 82.0097 34.0886C81.842 33.9542 81.5625 33.9094 81.3948 33.999Z" fill="#045C45"/>
<path d="M78.2648 36.5969C79.5505 40.5835 81.2275 44.5255 82.9045 48.4226C83.0722 48.8257 83.9107 48.6465 83.6871 48.2434C82.0101 44.3463 80.3331 40.4044 79.0474 36.4177C78.9356 36.0145 78.153 36.1937 78.2648 36.5969Z" fill="#045C45"/>
<path d="M92.3512 36.4177C91.4568 40.494 90.0593 44.4807 88.2705 48.3778C88.1028 48.7809 88.8854 48.9601 89.0531 48.557C90.8419 44.6598 92.1835 40.6731 93.1338 36.5969C93.2456 36.1937 92.4071 36.0145 92.3512 36.4177Z" fill="#045C45"/>
<path d="M83.5195 48.9153C84.3021 49.3184 85.2524 49.5424 86.2027 49.5424C86.7058 49.5424 87.153 49.4976 87.6561 49.408C88.0474 49.3184 88.4946 49.1841 88.83 48.9153C89.1095 48.6465 89.1654 48.2434 88.8859 47.9298C88.6064 47.661 88.1592 47.6163 87.7679 47.5267C87.2089 47.4371 86.6499 47.3475 86.0909 47.2579C85.5878 47.1683 85.0288 47.0339 84.5257 47.0787C84.0226 47.1235 83.5195 47.3475 83.3518 47.7506C83.24 47.9746 83.2959 48.1986 83.5195 48.333C83.7431 48.4674 84.0226 48.4226 84.1903 48.1986C84.3021 48.0642 84.2462 47.885 84.1344 47.7954C83.799 47.4819 83.1841 47.9298 83.5195 48.2882C83.5195 48.1538 83.4636 48.0194 83.4636 47.885C83.5754 47.8402 83.6872 47.7954 83.799 47.7058C83.8549 47.7058 83.9108 47.7506 83.9667 47.7506C84.0226 47.7954 84.0226 47.8402 84.0785 47.885C84.0785 47.9746 84.0785 47.885 84.1344 47.8402C84.1903 47.7954 84.2462 47.7506 84.358 47.7058C84.5257 47.661 84.6934 47.6611 84.8611 47.6611C85.3083 47.7059 85.7555 47.7954 86.2586 47.8402C86.7617 47.9298 87.2089 47.9746 87.712 48.0642C87.8238 48.0642 88.271 48.109 88.3269 48.2434C88.3269 48.333 88.1033 48.4226 88.0474 48.4226C87.8797 48.4673 87.712 48.5121 87.5443 48.5569C87.153 48.6465 86.7617 48.6913 86.3704 48.6913C85.5878 48.6913 84.8052 48.5121 84.0785 48.1538C83.4636 48.109 83.0723 48.6913 83.5195 48.9153Z" fill="#045C45"/>
<path d="M85.5877 35.2531C86.1467 38.6574 86.7057 42.0618 86.2026 45.511C86.0908 46.2277 87.4883 46.2277 87.6001 45.511C88.1032 41.9722 87.5442 38.4783 86.9293 34.9843C86.8175 34.2228 85.4759 34.5364 85.5877 35.2531Z" fill="#045C45"/>
<path d="M81.0598 26.3391C82.066 27.3246 82.2896 28.6236 82.5132 29.8331C82.7927 31.2217 83.2958 32.5207 83.7989 33.8646C84.3579 35.298 84.5256 36.7314 84.6933 38.2096C84.861 39.8222 85.0846 41.4348 85.2523 43.0474C85.3641 43.7641 86.7616 43.7641 86.6498 43.0474C86.4262 41.39 86.2585 39.6878 86.0349 38.0304C85.8672 36.4626 85.6436 34.8948 85.0287 33.4166C84.7492 32.6999 84.4138 31.9832 84.1902 31.2217C83.9666 30.5498 83.8548 29.8331 83.743 29.1611C83.4635 27.8621 83.0722 26.6527 82.0101 25.6224C81.4511 24.9953 80.5008 25.7568 81.0598 26.3391Z" fill="#045C45"/>
<path d="M91.5129 30.4598C90.2272 30.6838 89.3328 31.4901 88.6061 32.386C87.6558 33.5954 86.8732 34.8497 86.0347 36.1039C84.3577 38.6572 82.7366 41.2553 81.1714 43.8534C80.7801 44.4805 81.954 45.0628 82.4012 44.4357C83.8546 42.0168 85.3639 39.5979 86.9291 37.2238C87.7117 36.0591 88.4943 34.8945 89.2769 33.7298C89.8918 32.8787 90.5626 31.7589 91.9042 31.5349C92.7986 31.4005 92.4073 30.3255 91.5129 30.4598Z" fill="#045C45"/>
</svg>
