<svg width="393" height="370" viewBox="0 0 393 370" fill="none" xmlns="http://www.w3.org/2000/svg">
<rect x="-3" y="104" width="393" height="266" fill="#EFC27F"/>
<ellipse cx="288.418" cy="115.809" rx="142.525" ry="67.5" transform="rotate(21.9108 288.418 115.809)" fill="#EFC27F"/>
<ellipse cx="288.418" cy="115.809" rx="142.525" ry="67.5" transform="rotate(21.9108 288.418 115.809)" fill="#FFF9F4"/>
<ellipse cx="288.418" cy="115.809" rx="142.525" ry="67.5" transform="rotate(21.9108 288.418 115.809)" fill="#FFF9F4"/>
<ellipse cx="288.418" cy="115.809" rx="142.525" ry="67.5" transform="rotate(21.9108 288.418 115.809)" fill="#FFF9F4"/>
<ellipse cx="288.418" cy="115.809" rx="142.525" ry="67.5" transform="rotate(21.9108 288.418 115.809)" fill="#FFF9F4"/>
<ellipse cx="81.5" cy="158.5" rx="107.5" ry="80.5" fill="#EFC27F"/>
<path d="M37.5947 237.961C41.7872 234.691 47.489 232.855 53.3026 232.81C54.197 232.81 54.197 231.69 53.3026 231.69C47.0977 231.735 41.0605 233.751 36.5885 237.2C35.9736 237.648 36.9239 238.454 37.5947 237.961Z" fill="#045C45"/>
<path d="M35.8615 238.902C40.7807 244.143 49.557 244.412 56.9917 245.084C57.8861 245.173 57.8861 244.054 56.9917 243.964C50.1719 243.337 41.5633 243.158 37.0354 238.32C36.5323 237.782 35.3584 238.32 35.8615 238.902Z" fill="#045C45"/>
<path d="M60.178 233.124C62.6935 232.362 65.3767 232.228 68.0599 232.318C70.5754 232.407 73.0909 232.721 75.5505 233.303C78.0101 233.841 80.3579 234.602 82.5939 235.588C83.7119 236.08 84.774 236.618 85.8361 237.155C86.3951 237.469 86.8982 237.738 87.4013 238.096C87.7926 238.365 88.5752 238.768 88.4634 239.261C88.6311 239.126 88.7988 238.992 88.9665 238.858C84.3268 240.291 79.6312 241.635 74.7679 242.531C72.3642 242.979 69.9605 243.292 67.5009 243.427C65.3767 243.561 62.973 243.337 61.0724 244.323C60.3457 244.726 61.0165 245.666 61.7991 245.308C63.4761 244.412 65.7121 244.681 67.6127 244.547C69.7369 244.412 71.8611 244.188 73.9853 243.83C78.3455 243.113 82.5939 241.993 86.7864 240.739C87.2895 240.605 87.7926 240.425 88.2398 240.291C88.6311 240.157 89.3019 240.067 89.6373 239.798C90.2522 239.306 89.6932 238.41 89.3019 238.007C88.687 237.424 87.7926 236.931 87.01 236.484C86.2274 236.036 85.3889 235.588 84.5504 235.185C81.1405 233.572 77.3952 232.407 73.5381 231.78C69.122 231.063 64.091 230.795 59.8426 232.094C59.0041 232.273 59.3395 233.348 60.178 233.124Z" fill="#045C45"/>
<path d="M56.7682 221.612C59.4514 229.092 62.0228 236.707 61.6874 244.546C61.6315 245.263 63.029 245.263 63.0849 244.546C63.4203 236.618 60.8489 228.868 58.1098 221.298C57.8862 220.626 56.4887 220.895 56.7682 221.612Z" fill="#045C45"/>
<path d="M50.3958 222.06C51.4579 225.822 52.5759 229.585 53.638 233.303C54.7001 236.931 56.2653 240.739 55.7063 244.502C55.5945 245.218 56.992 245.218 57.1038 244.502C57.6628 240.694 56.0976 236.887 55.0355 233.213C53.9175 229.406 52.7995 225.554 51.6815 221.746C51.5697 221.029 50.2281 221.343 50.3958 222.06Z" fill="#045C45"/>
<path d="M60.7927 245.532C61.0163 249.071 60.5691 252.565 60.066 256.059C59.5629 259.508 59.004 262.957 58.7245 266.406C58.1096 273.036 58.2773 279.665 57.327 286.295C56.8239 289.968 55.9294 293.641 54.3642 297.135C54.0847 297.807 55.4264 298.121 55.7059 297.449C58.445 291.222 59.1158 284.593 59.4512 278.053C59.6189 274.693 59.7307 271.334 60.0102 267.974C60.2897 264.435 60.7369 260.897 61.2959 257.403C61.9108 253.461 62.5257 249.519 62.2462 245.577C62.1344 244.815 60.7368 244.815 60.7927 245.532Z" fill="#045C45"/>
<path d="M55.0352 245.308C55.4265 248.802 55.4265 252.296 55.0352 255.79C54.8116 257.492 54.5321 259.239 54.4203 260.941C54.3085 262.688 54.3644 264.435 54.5321 266.227C54.8675 269.721 55.0911 273.17 54.6439 276.664C54.1967 280.113 53.3023 283.517 52.1843 286.877C51.5694 288.669 51.1222 290.461 51.1222 292.297C51.1222 294.044 51.4017 295.925 50.5073 297.628C50.1719 298.3 51.3458 298.837 51.7371 298.21C52.5756 296.732 52.5756 295.119 52.5756 293.507C52.5197 291.804 52.6315 290.237 53.1346 288.624C54.1408 285.22 55.2588 281.86 55.8178 278.411C56.3768 274.962 56.4886 271.513 56.1532 268.019C55.9855 266.182 55.7619 264.345 55.7619 262.509C55.7619 260.762 56.0414 259.06 56.265 257.357C56.824 253.371 56.9358 249.384 56.4327 245.397C56.3768 244.636 54.9793 244.591 55.0352 245.308Z" fill="#045C45"/>
<path d="M88.9668 240.828C90.4761 252.296 91.9854 263.763 93.4947 275.231C93.9419 278.501 94.3332 281.771 94.7804 285.041C94.8922 285.757 96.2897 285.757 96.1779 285.041C94.6686 273.528 93.1593 262.016 91.65 250.504C91.2028 247.279 90.8115 244.054 90.3643 240.828C90.2525 240.157 88.855 240.112 88.9668 240.828Z" fill="#045C45"/>
<path d="M84.3828 242.351C85.2772 248.623 87.625 254.67 88.4635 260.941C88.6871 262.554 88.743 264.166 88.743 265.779C88.6871 267.391 88.6312 268.959 88.743 270.572C89.0225 273.842 89.9728 277.067 90.7554 280.247C91.3144 282.532 91.9852 285.936 95.5628 286.205C96.4572 286.25 96.4572 285.13 95.5628 285.085C94.2771 284.996 93.4945 283.965 93.0473 283.114C92.4883 281.95 92.2647 280.74 91.9852 279.531C91.2585 276.485 90.3082 273.394 90.0846 270.258C89.861 267.212 90.2523 264.166 89.861 261.12C89.4697 258.164 88.743 255.207 88.0163 252.296C87.1219 248.981 86.2275 245.666 85.7803 242.307C85.6685 241.635 84.271 241.635 84.3828 242.351Z" fill="#045C45"/>
<path d="M62.9171 251.042C66.7183 250.594 70.5195 250.146 74.3207 249.698C77.7865 249.295 81.42 249.026 84.6622 247.861C85.5007 247.548 84.774 246.607 83.9355 246.876C80.7492 248.04 77.0598 248.22 73.6499 248.623C69.9605 249.071 66.2152 249.519 62.5258 249.922C61.6314 250.056 62.0227 251.131 62.9171 251.042Z" fill="#045C45"/>
<path d="M34.4639 245.039C39.998 248.936 47.0973 251.221 54.4761 251.4C55.3705 251.445 55.3705 250.325 54.4761 250.28C47.4886 250.101 40.6688 247.951 35.4701 244.233C34.7993 243.74 33.7931 244.546 34.4639 245.039Z" fill="#045C45"/>
<path d="M32.6754 218.521C33.6816 227.121 34.0729 235.767 33.7934 244.367C33.7375 246.517 33.6257 248.667 33.2344 250.773C32.8431 252.923 32.34 255.028 31.8369 257.134C30.8866 261.389 29.9363 265.644 28.986 269.9C28.427 272.319 27.9239 274.738 27.3649 277.157C27.0854 278.276 26.8618 279.396 26.5823 280.516C26.3587 281.502 26.0233 282.487 25.1289 283.204C24.514 283.741 25.5202 284.503 26.1351 284.01C27.7562 282.666 27.9239 280.74 28.3152 278.993C28.8183 276.798 29.3214 274.603 29.7686 272.408C30.7189 268.063 31.7251 263.763 32.6754 259.418C33.6257 255.163 34.7996 250.907 35.0232 246.562C35.2468 242.172 35.2468 237.782 35.0791 233.393C34.9114 228.42 34.5201 223.448 33.9611 218.476C34.017 217.804 32.6195 217.804 32.6754 218.521Z" fill="#045C45"/>
<path d="M27.197 208.89C28.0355 214.131 28.9299 219.327 29.7125 224.568C30.4951 229.719 30.8305 234.871 30.7746 240.022C30.7187 242.575 30.7187 245.173 30.3833 247.727C30.0479 250.28 29.1535 252.744 28.2591 255.207C27.3647 257.626 26.638 260.045 26.079 262.554C25.52 265.107 25.1287 267.66 24.6815 270.213C24.1784 273.036 23.6194 275.902 23.1722 278.724C22.8368 280.561 22.7809 282.846 25.0169 283.921C25.7995 284.279 26.4703 283.338 25.7436 282.935C23.7871 281.994 24.4579 279.486 24.6815 277.963C25.1287 275.499 25.5759 273.036 26.0231 270.572C26.9175 265.6 27.756 260.672 29.4889 255.879C30.3833 253.46 31.2218 251.086 31.669 248.578C32.0603 246.159 32.1721 243.74 32.1721 241.276C32.2839 236.17 32.0603 231.108 31.3895 226.001C30.6069 220.268 29.6007 214.534 28.7063 208.8C28.4827 208.218 27.0852 208.218 27.197 208.89Z" fill="#045C45"/>
<path d="M34.2963 218.566C40.2217 219.506 46.203 220.671 52.2402 221.074C54.8116 221.253 57.7743 221.433 60.2339 220.671C62.414 219.999 63.8674 218.521 64.3146 216.684C64.9295 214.221 63.8115 211.847 62.6376 209.562C62.3022 208.89 60.9606 209.204 61.296 209.876C62.2463 211.712 63.2525 213.683 63.0848 215.699C62.9171 217.491 61.7432 219.059 59.5631 219.641C57.2153 220.268 54.5321 220.089 52.1284 219.91C49.3334 219.73 46.5384 219.327 43.7993 218.879C40.7807 218.387 37.7621 217.939 34.6876 217.446C33.7932 217.356 33.4019 218.431 34.2963 218.566Z" fill="#045C45"/>
<path d="M29.0417 203.962C29.0976 205.396 30.1597 206.605 31.6131 207.412C33.346 208.352 35.4702 208.576 37.4826 208.845C42.2341 209.427 46.9297 210.054 51.6812 210.502C54.3644 210.771 57.0476 210.95 59.6749 210.726C60.5693 210.682 60.5693 209.562 59.6749 209.607C54.1408 210.01 48.4949 209.024 43.0167 208.352C40.3894 208.039 37.7062 207.86 35.1348 207.367C33.0106 206.964 30.4951 205.933 30.3833 203.918C30.3833 203.246 28.9858 203.246 29.0417 203.962Z" fill="#045C45"/>
<path d="M28.6506 207.053C29.0419 210.861 29.545 214.848 32.899 217.804C33.5139 218.342 34.4642 217.535 33.9052 216.998C30.8307 214.31 30.4394 210.503 30.0481 207.053C29.9922 206.337 28.5947 206.337 28.6506 207.053Z" fill="#045C45"/>
<path d="M151.463 242.889C157.221 245.173 163.09 247.503 169.519 248.264C172.873 248.667 176.338 248.488 179.692 249.115C182.879 249.698 185.953 250.325 189.307 250.369C192.885 250.414 196.462 249.877 199.816 248.846C200.655 248.578 200.264 247.503 199.425 247.771C196.518 248.667 193.444 249.16 190.313 249.25C187.071 249.339 183.997 248.802 180.866 248.175C179.245 247.861 177.624 247.637 175.947 247.547C174.326 247.458 172.761 247.458 171.14 247.323C168.009 247.055 164.991 246.383 162.028 245.487C158.674 244.457 155.432 243.202 152.19 241.948C151.351 241.635 150.68 242.575 151.463 242.889Z" fill="#045C45"/>
<path d="M151.91 238.186C155.041 239.35 158.171 240.56 161.301 241.724C162.699 242.262 164.096 242.8 165.606 243.158C167.171 243.561 168.792 243.74 170.469 243.785C172.146 243.875 173.879 243.919 175.556 244.054C177.177 244.188 178.798 244.457 180.363 244.726C181.984 244.994 183.661 245.353 185.283 245.666C186.848 245.98 188.469 246.204 190.09 246.114C193.388 245.935 196.518 244.278 199.872 244.681C200.767 244.77 201.158 243.695 200.264 243.606C197.301 243.247 194.618 244.278 191.823 244.77C188.581 245.353 185.45 244.502 182.32 243.919C179.134 243.337 175.891 242.889 172.649 242.755C170.972 242.71 169.295 242.665 167.674 242.396C166.109 242.128 164.6 241.635 163.146 241.097C159.624 239.798 156.159 238.454 152.693 237.155C151.798 236.931 151.072 237.872 151.91 238.186Z" fill="#045C45"/>
<path d="M150.512 238.454C150.345 239.619 150.457 240.784 150.848 241.903C150.96 242.172 151.351 242.396 151.686 242.307C152.078 242.217 152.245 241.903 152.189 241.635C151.854 240.604 151.798 239.574 151.91 238.454C151.966 238.141 151.575 237.872 151.239 237.917C150.848 237.872 150.568 238.141 150.512 238.454Z" fill="#045C45"/>
<path d="M197.748 222.552C193.556 231.869 193.164 241.903 192.717 251.713C192.494 256.82 192.717 261.882 193.556 266.988C194.338 271.96 195.456 276.933 196.351 281.905C197.413 287.504 198.195 293.193 197.916 298.882C197.86 299.599 199.257 299.599 199.313 298.882C199.761 288.803 196.966 278.904 195.233 268.959C194.394 263.942 193.835 258.925 194.003 253.908C194.171 248.981 194.394 244.009 194.953 239.126C195.568 233.616 196.742 228.107 199.09 222.911C199.369 222.149 198.028 221.88 197.748 222.552Z" fill="#045C45"/>
<path d="M192.046 221.791C191.934 227.256 189.586 232.452 188.468 237.782C187.35 243.247 187.294 248.802 187.518 254.312C187.909 265.241 188.189 276.306 191.152 287.056C191.543 288.579 191.934 290.013 191.934 291.58C191.934 293.103 191.934 294.582 192.493 296.06C192.94 297.225 193.443 298.703 194.45 299.643C195.4 300.495 196.965 300.763 198.139 300.047C198.866 299.599 197.86 298.792 197.133 299.24C196.63 299.554 195.959 299.285 195.568 298.972C195.065 298.568 194.785 297.986 194.561 297.449C194.002 296.239 193.499 295.03 193.388 293.731C193.276 292.432 193.443 291.088 193.22 289.789C193.052 288.534 192.661 287.37 192.325 286.16C190.984 280.964 190.257 275.723 189.81 270.438C189.363 265.241 189.139 260.045 188.971 254.804C188.804 249.474 188.748 244.143 189.754 238.858C190.816 233.169 193.443 227.614 193.555 221.836C193.499 221.074 192.102 221.074 192.046 221.791Z" fill="#045C45"/>
<path d="M200.99 209.159C197.972 208.711 194.953 208.621 191.935 208.935C190.593 209.069 189.084 209.159 187.966 209.831C187.015 210.368 186.289 211.264 185.842 212.115C184.891 213.907 184.668 216.192 185.506 218.028C186.456 220.089 189.251 220.671 191.599 221.343C194.841 222.239 198.195 223 201.549 223.583C202.444 223.717 202.779 222.642 201.941 222.508C199.369 222.06 196.798 221.522 194.227 220.85C192.941 220.537 191.711 220.178 190.481 219.82C189.475 219.506 188.413 219.238 187.63 218.655C186.065 217.491 186.233 215.027 186.736 213.504C187.015 212.698 187.519 211.847 188.245 211.219C189.084 210.458 190.258 210.324 191.487 210.189C194.506 209.831 197.636 209.876 200.655 210.324C201.494 210.368 201.829 209.293 200.99 209.159Z" fill="#045C45"/>
<path d="M157.5 246.069C156.661 251.355 155.599 256.596 155.04 261.882C154.481 267.123 155.096 272.364 154.313 277.56C153.866 280.516 153.084 283.383 152.022 286.25C152.245 286.115 152.469 285.981 152.692 285.847C151.183 285.892 150.289 284.772 149.953 283.697C149.618 282.398 149.786 280.964 149.841 279.665C149.897 276.798 150.065 273.976 150.289 271.109C150.736 265.465 151.351 259.821 152.133 254.177C152.581 250.952 153.028 247.772 153.475 244.546C153.587 243.83 152.189 243.83 152.077 244.546C150.4 256.551 148.723 268.556 148.444 280.651C148.388 282.129 148.276 283.741 149.115 285.085C149.786 286.16 151.127 286.967 152.692 286.922C153.028 286.922 153.251 286.743 153.363 286.519C155.264 281.502 156.214 276.261 156.214 270.975C156.214 268.332 156.102 265.689 156.326 263.046C156.55 260.404 156.997 257.761 157.388 255.163C157.891 252.117 158.394 249.071 158.841 246.025C159.009 245.353 157.612 245.353 157.5 246.069Z" fill="#045C45"/>
<path d="M174.382 249.564C173.767 253.102 173.152 256.596 172.928 260.18C172.705 263.719 173.04 267.257 173.431 270.796C173.599 272.05 173.711 273.708 175.388 274.29C176.841 274.783 178.295 274.156 178.406 272.902C178.462 272.14 178.406 271.334 178.406 270.527C178.406 269.587 178.406 268.601 178.462 267.661C178.518 265.914 178.63 264.122 178.742 262.375C179.077 258.343 179.692 254.267 180.531 250.28C180.698 249.564 179.357 249.295 179.189 249.967C177.847 256.328 177.121 262.733 177.009 269.184C177.009 269.9 177.009 270.662 177.009 271.379C177.009 271.826 177.344 273.215 176.562 273.305C174.885 273.529 174.885 271.11 174.829 270.348C174.493 267.123 174.214 263.943 174.382 260.717C174.549 257.089 175.164 253.461 175.835 249.877C175.835 249.161 174.493 248.847 174.382 249.564Z" fill="#045C45"/>
<path d="M152.86 236.797C153.475 235.05 155.991 234.333 157.891 233.796C160.351 233.079 162.867 232.541 165.438 232.183C170.525 231.466 175.835 231.466 180.922 232.183C183.829 232.586 186.624 233.213 189.363 234.064C190.202 234.333 190.593 233.258 189.754 232.989C179.413 229.809 167.618 229.719 157.221 232.81C154.929 233.482 152.301 234.423 151.575 236.483C151.295 237.2 152.637 237.469 152.86 236.797Z" fill="#045C45"/>
<path d="M195.4 235.229C197.133 235.632 198.866 236.036 200.543 236.528C200.879 236.618 201.326 236.439 201.382 236.125C201.493 235.812 201.27 235.543 200.879 235.453C199.202 235.005 197.469 234.557 195.736 234.154C195.4 234.065 194.953 234.244 194.897 234.557C194.841 234.826 195.065 235.14 195.4 235.229Z" fill="#045C45"/>
<path d="M65.0414 214.131C80.0785 216.908 95.451 217.939 110.824 218.252C126.476 218.521 142.183 218.252 157.835 217.535C166.668 217.132 175.5 216.55 184.332 215.699C185.226 215.609 185.226 214.489 184.332 214.579C168.68 216.057 152.86 216.774 137.097 217.043C121.724 217.311 106.352 217.356 91.0349 216.281C82.4263 215.654 73.8736 214.624 65.4327 213.056C64.5383 212.877 64.147 213.952 65.0414 214.131Z" fill="#045C45"/>
<path d="M41.1162 206.919C39.0479 206.516 38.6007 204.366 39.4392 203.022C40.6131 201.141 43.3522 200.2 45.5882 199.394C51.0664 197.423 56.8241 196.034 62.6936 195.049C74.6562 192.988 87.0101 192.361 99.2522 191.868C111.718 191.376 124.295 191.376 136.761 191.958C149.283 192.54 161.804 193.75 174.158 195.676C180.251 196.617 186.344 197.781 192.382 199.125C196.518 200.066 203.45 201.634 202.388 206.203C202.22 207.009 201.717 207.681 200.823 208.129C200.096 208.532 200.767 209.473 201.549 209.114C203.394 208.129 204.065 206.382 203.785 204.68C203.45 202.709 201.885 201.186 199.816 200.2C197.413 199.035 194.562 198.498 191.879 197.916C188.58 197.199 185.282 196.527 181.984 195.945C169.071 193.571 155.879 192.092 142.687 191.241C129.271 190.39 115.855 190.301 102.439 190.748C95.8423 190.972 89.2461 191.286 82.6499 191.779C76.2773 192.227 69.9047 192.854 63.6439 193.884C57.439 194.914 51.3459 196.303 45.5882 198.364C43.1286 199.215 40.5013 200.155 38.8802 201.947C37.5945 203.336 37.3709 205.307 38.5448 206.83C39.1038 207.502 39.8864 207.95 40.8367 208.173C41.6193 208.129 42.0106 207.054 41.1162 206.919Z" fill="#045C45"/>
<path d="M113.674 219.238C114.345 228.152 114.792 237.066 115.072 245.98C115.296 254.894 115.351 263.808 115.128 272.767C115.016 277.784 114.625 282.846 115.296 287.863C115.351 288.176 115.575 288.4 115.966 288.4C117.867 288.445 119.712 288.087 121.333 287.37C122.115 287.011 121.445 286.071 120.606 286.384C119.153 287.011 117.587 287.325 115.91 287.28C116.134 287.459 116.358 287.639 116.581 287.818C116.022 283.383 116.302 278.948 116.414 274.514C116.525 270.034 116.581 265.6 116.581 261.12C116.581 252.206 116.358 243.292 115.966 234.333C115.743 229.272 115.407 224.21 115.016 219.193C115.016 218.521 113.619 218.521 113.674 219.238Z" fill="#045C45"/>
<path d="M122.563 219.193C122.674 228.017 122.563 236.842 122.283 245.666C122.004 254.491 121.333 263.27 120.83 272.05C120.55 276.978 120.382 281.905 120.718 286.877C120.774 287.594 122.171 287.594 122.115 286.877C121.5 278.142 122.451 269.362 123.01 260.628C123.569 251.803 123.904 242.979 124.016 234.154C124.072 229.182 124.072 224.165 124.016 219.193C123.904 218.476 122.507 218.476 122.563 219.193Z" fill="#045C45"/>
<path d="M64.2588 214.803C64.4265 217.401 64.0352 220.044 63.8116 222.597C63.588 225.195 63.3644 227.838 63.1408 230.436C63.0849 231.153 64.4824 231.153 64.5383 230.436C64.7619 227.838 64.9855 225.195 65.2091 222.597C65.4327 219.999 65.824 217.401 65.6563 214.803C65.6004 214.086 64.2029 214.086 64.2588 214.803Z" fill="#045C45"/>
<path d="M65.265 251.713C65.1532 255.7 65.0414 259.642 64.9296 263.629C64.8737 265.6 64.8178 267.571 64.7619 269.542C64.7619 270.527 64.706 271.468 64.706 272.453C64.706 272.991 64.706 273.484 64.6501 274.021C64.6501 274.245 64.6501 274.424 64.6501 274.648C64.6501 274.783 64.6501 274.872 64.5942 275.007C64.4824 275.096 64.4824 275.141 64.6501 275.186C64.0911 274.603 62.9172 275.186 63.4203 275.768C63.9793 276.395 65.0973 276.395 65.6563 275.768C65.9917 275.41 66.0476 274.962 66.0476 274.559C66.1035 273.976 66.1035 273.349 66.1035 272.767C66.1594 270.482 66.2153 268.153 66.2712 265.868C66.383 261.21 66.4948 256.506 66.6625 251.848C66.6625 250.997 65.265 250.997 65.265 251.713Z" fill="#045C45"/>
<path d="M61.3521 250.37C61.0167 254.625 60.6255 258.925 60.7373 263.226C60.7932 265.331 60.905 267.436 61.2404 269.542C61.4081 270.572 61.5758 271.647 61.7994 272.677C62.023 273.528 62.1907 274.469 62.9733 275.096C63.6441 275.589 64.5943 274.782 63.9794 274.29C63.1968 273.707 63.141 272.543 62.9733 271.736C62.7497 270.706 62.5819 269.721 62.4701 268.69C62.1906 266.675 62.0789 264.614 62.0789 262.554C62.023 258.477 62.3584 254.401 62.6938 250.37C62.8056 249.653 61.408 249.653 61.3521 250.37Z" fill="#045C45"/>
<path d="M174.661 217.177C173.935 221.298 173.432 225.419 173.152 229.54C173.096 230.257 174.494 230.257 174.55 229.54C174.829 225.509 175.332 221.477 176.003 217.446C176.171 216.774 174.829 216.46 174.661 217.177Z" fill="#045C45"/>
<path d="M180.922 217.088C181.034 221.388 180.531 225.688 179.469 229.899C179.301 230.615 180.642 230.884 180.81 230.212C181.928 225.912 182.431 221.477 182.319 217.088C182.264 216.371 180.866 216.371 180.922 217.088Z" fill="#045C45"/>
<path d="M168.848 249.026C168.904 252.788 168.904 256.551 168.959 260.314C168.959 262.15 168.904 263.987 169.015 265.779C169.071 267.078 170.077 268.735 172.09 268.287C172.928 268.063 172.593 266.988 171.699 267.212C169.966 267.615 170.413 264.256 170.357 263.584C170.357 261.971 170.301 260.403 170.301 258.791C170.245 255.566 170.245 252.296 170.189 249.071C170.245 248.309 168.848 248.309 168.848 249.026Z" fill="#045C45"/>
<path d="M56.9357 204.276C56.3208 205.665 57.6624 207.009 59.2276 207.457C60.122 207.725 61.1841 207.77 62.1344 207.77C63.3642 207.815 64.594 207.815 65.8797 207.815C70.743 207.815 75.6063 207.591 80.4137 207.188C81.5317 207.098 82.6497 207.009 83.7118 206.785C84.5503 206.65 85.7801 206.426 86.4509 205.933C87.9043 204.769 84.718 203.559 83.7118 203.291C81.6435 202.753 79.3516 202.619 77.2274 202.44C74.8237 202.26 72.42 202.171 70.0163 202.126C67.5008 202.126 64.9853 202.126 62.5257 202.484C61.3518 202.619 60.2338 202.887 59.1717 203.246C58.3891 203.515 57.1034 204.007 57.5506 204.903C57.886 205.575 59.2276 205.262 58.8922 204.59C58.8363 204.455 61.0723 203.873 61.24 203.873C62.1344 203.694 63.0288 203.559 63.9232 203.47C65.712 203.335 67.5008 203.291 69.3455 203.291C73.2585 203.291 77.2274 203.47 81.0845 204.007C81.8671 204.097 82.7056 204.231 83.4323 204.41C83.7677 204.5 84.1031 204.59 84.3826 204.724C84.5503 204.769 85.3329 205.351 85.3329 205.351C85.3888 205.262 85.3888 205.217 85.4447 205.127C85.3329 205.172 85.277 205.217 85.1652 205.262C84.9416 205.351 84.7739 205.396 84.5503 205.441C84.159 205.53 83.7677 205.62 83.3205 205.71C82.3702 205.889 81.4758 205.978 80.5255 206.068C76.5566 206.381 72.6436 206.605 68.6747 206.65C66.4946 206.695 64.2586 206.695 62.0785 206.65C60.681 206.605 57.6065 206.247 58.3332 204.545C58.5568 203.918 57.2152 203.604 56.9357 204.276Z" fill="#045C45"/>
<path d="M58.4454 207.636C61.464 210.637 67.3335 210.279 71.6378 210.189C73.0912 210.145 74.5446 210.1 76.0539 210.01C77.3955 209.965 78.7371 209.921 80.0787 209.652C82.3147 209.204 84.2153 208.084 85.5569 206.606C86.06 206.023 84.8861 205.441 84.3271 206.023C83.0414 207.457 81.0849 208.398 78.9048 208.711C77.675 208.89 76.4452 208.89 75.1595 208.935C73.8738 208.98 72.5881 209.025 71.3024 209.069C67.4453 209.159 62.0789 209.562 59.3957 206.83C58.8926 206.292 57.9423 207.099 58.4454 207.636Z" fill="#045C45"/>
<path d="M73.1468 212.742C79.2399 211.399 85.4448 210.548 91.7056 210.144C92.6 210.1 92.6 208.98 91.7056 209.025C85.333 209.428 78.9604 210.324 72.7555 211.667C71.917 211.847 72.2524 212.922 73.1468 212.742Z" fill="#045C45"/>
<path d="M149.339 208.98C150.513 209.562 151.407 210.458 152.693 210.861C153.364 211.085 154.09 211.13 154.873 211.175C155.711 211.22 156.55 211.399 157.388 211.578C160.854 212.384 164.32 213.235 167.842 214.042C168.68 214.266 169.071 213.146 168.233 212.967C164.823 212.16 161.469 211.354 158.059 210.548C157.277 210.369 156.55 210.189 155.767 210.1C154.985 210.01 154.202 210.055 153.475 209.876C152.19 209.517 151.295 208.577 150.177 207.994C149.283 207.636 148.612 208.577 149.339 208.98Z" fill="#045C45"/>
<path d="M175.22 203.918C170.525 203.336 165.717 202.708 160.966 203.246C159.792 203.38 158.674 203.56 157.556 203.828C156.606 204.052 155.432 204.321 154.649 204.859C153.922 205.396 153.811 206.202 154.537 206.785C155.264 207.367 156.438 207.591 157.388 207.77C162.531 208.666 167.841 208.935 173.04 209.159C175.332 209.293 177.624 209.428 179.916 209.248C180.978 209.159 182.04 209.024 183.102 208.756C184.052 208.532 185.226 208.218 185.953 207.681C186.847 207.054 185.785 206.068 185.115 205.71C184.052 205.172 182.823 204.769 181.593 204.455C179.077 203.828 176.45 203.694 173.823 203.515C172.928 203.47 172.928 204.59 173.823 204.635C175.779 204.769 177.792 204.903 179.692 205.217C180.643 205.396 181.537 205.575 182.431 205.889C182.823 206.023 184.947 206.65 184.835 207.098C184.947 207.009 185.059 206.874 185.17 206.785C182.599 208.129 179.469 208.263 176.45 208.218C172.984 208.129 169.518 207.905 166.109 207.636C164.32 207.501 162.531 207.322 160.742 207.098C159.177 206.919 157.332 206.785 155.935 206.202C155.599 206.023 155.264 205.934 155.655 205.665C155.935 205.486 156.326 205.396 156.661 205.307C157.444 205.083 158.227 204.903 159.009 204.724C160.574 204.411 162.196 204.276 163.761 204.231C167.506 204.142 171.195 204.59 174.885 205.083C175.723 205.127 176.115 204.052 175.22 203.918Z" fill="#045C45"/>
<path d="M156.158 207.86C157.947 208.039 159.233 209.428 160.575 210.234C162.196 211.175 164.152 211.578 166.165 211.757C168.401 211.936 170.748 211.892 172.984 211.892C174.214 211.892 175.5 211.936 176.73 211.936C177.848 211.936 178.966 211.936 180.028 211.712C182.208 211.175 183.829 209.786 185.226 208.398C185.785 207.86 184.835 207.054 184.22 207.591C182.99 208.756 181.649 210.055 179.804 210.548C178.742 210.816 177.624 210.816 176.562 210.816C175.332 210.816 174.158 210.772 172.928 210.772C170.748 210.727 168.568 210.772 166.444 210.637C164.488 210.503 162.531 210.1 160.966 209.114C159.457 208.129 158.115 206.964 156.103 206.74C155.264 206.606 155.264 207.726 156.158 207.86Z" fill="#045C45"/>
<path d="M179.804 198.945C179.189 198.811 178.462 198.856 178.183 199.393C177.903 199.931 178.462 200.513 178.91 200.872C180.139 201.723 181.816 201.678 183.326 201.723C184.164 201.723 185.003 201.767 185.841 201.767C186.624 201.767 187.406 201.588 187.742 201.006C188.469 199.707 186.121 199.169 185.003 198.99C183.27 198.677 181.425 198.677 179.692 198.721C178.798 198.721 178.798 199.841 179.692 199.841C181.09 199.796 182.487 199.796 183.829 199.931C184.444 200.02 185.115 200.11 185.674 200.289C185.897 200.379 186.177 200.468 186.4 200.558C186.68 200.648 186.344 200.603 186.456 200.558C186.4 200.603 186.288 200.648 186.177 200.648C185.841 200.692 185.506 200.648 185.17 200.648C184.835 200.648 184.444 200.648 184.108 200.648C183.382 200.648 182.655 200.648 181.928 200.603C181.313 200.558 180.643 200.513 180.084 200.244C179.86 200.155 179.692 200.02 179.58 199.841C179.58 199.796 179.525 199.796 179.525 199.752C179.413 199.572 179.301 199.617 179.245 200.02C179.189 199.976 179.469 200.065 179.413 200.065C180.307 200.2 180.698 199.125 179.804 198.945Z" fill="#045C45"/>
<path d="M178.127 200.916C178.574 201.678 179.022 202.439 179.637 203.067C180.307 203.739 181.258 203.873 182.208 203.962C182.711 204.007 183.27 204.052 183.773 204.097C184.276 204.142 184.891 204.276 185.338 204.052C185.786 203.873 186.009 203.38 186.233 203.067C186.512 202.663 186.792 202.305 187.071 201.902C187.518 201.275 186.289 200.693 185.841 201.32C185.618 201.633 185.394 201.947 185.171 202.26C185.059 202.395 184.947 202.529 184.891 202.663C184.835 202.753 184.779 202.843 184.723 202.932C184.668 202.977 184.556 203.067 184.668 203.022C184.779 202.977 184.612 202.977 184.556 202.977C184.444 202.977 184.332 202.977 184.276 202.932C184.053 202.932 183.829 202.887 183.605 202.887C183.158 202.843 182.711 202.798 182.264 202.753C181.537 202.708 180.978 202.574 180.531 202.036C180.084 201.454 179.692 200.872 179.357 200.245C179.189 199.976 178.686 199.886 178.407 200.065C178.015 200.334 177.96 200.648 178.127 200.916Z" fill="#045C45"/>
<path d="M158.618 196.617C159.233 197.512 160.519 197.736 161.692 197.781C162.475 197.826 163.314 197.826 164.152 197.826C164.879 197.826 165.661 197.916 166.388 197.826C167.059 197.781 167.786 197.557 168.121 197.02C168.512 196.437 168.233 195.855 167.506 195.586C166.053 195.049 164.599 194.646 163.034 194.601C162.196 194.556 161.357 194.646 160.519 194.78C159.792 194.914 158.842 195.093 158.506 195.676C158.338 195.945 158.394 196.258 158.73 196.437C159.009 196.572 159.512 196.527 159.68 196.258C159.792 196.079 160.015 196.034 160.239 195.989C160.574 195.9 160.966 195.855 161.357 195.81C162.028 195.721 162.755 195.721 163.425 195.765C164.096 195.81 164.767 195.945 165.438 196.169C165.773 196.258 166.109 196.348 166.388 196.482C166.444 196.482 166.947 196.661 166.947 196.661C166.891 196.482 166.891 196.437 166.835 196.527L166.779 196.572C166.5 196.661 166.332 196.706 165.997 196.751C165.661 196.751 165.326 196.751 164.991 196.751C164.208 196.751 163.481 196.706 162.699 196.706C161.804 196.706 160.295 196.84 159.792 196.079C159.401 195.407 158.171 195.989 158.618 196.617Z" fill="#045C45"/>
<path d="M158.45 196.527C158.339 198.274 158.618 200.066 159.233 201.723C159.512 202.395 160.854 202.126 160.575 201.409C159.96 199.797 159.736 198.184 159.848 196.527C159.848 196.213 159.513 195.989 159.177 195.989C158.73 195.989 158.45 196.258 158.45 196.527Z" fill="#045C45"/>
<path d="M167.115 197.333C167.171 198.856 166.724 200.379 165.829 201.768C165.382 202.395 166.612 202.977 167.059 202.35C168.065 200.827 168.624 199.08 168.568 197.378C168.512 196.616 167.115 196.616 167.115 197.333Z" fill="#045C45"/>
<path d="M159.513 202.26C161.693 202.26 163.929 202.35 166.109 202.574C166.5 202.619 166.78 202.305 166.78 202.036C166.78 201.723 166.444 201.499 166.109 201.499C163.929 201.275 161.749 201.185 159.513 201.185C158.618 201.14 158.618 202.26 159.513 202.26Z" fill="#045C45"/>
<path d="M142.575 194.78C141.68 196.079 144.028 196.706 145.146 196.93C146.6 197.243 148.165 197.288 149.674 197.109C150.345 197.019 151.128 196.885 151.463 196.348C151.798 195.855 151.687 195.228 151.295 194.78C150.401 193.705 148.78 193.615 147.326 193.615C146.432 193.615 145.538 193.57 144.643 193.57C143.693 193.57 142.91 193.973 142.798 194.735C142.743 195.049 143.134 195.273 143.469 195.273C143.861 195.273 144.14 195.004 144.14 194.735C144.14 194.78 144.196 194.735 144.252 194.69C144.364 194.645 144.531 194.645 144.643 194.645C145.034 194.645 145.37 194.645 145.761 194.645C146.488 194.645 147.159 194.645 147.885 194.69C148.5 194.69 149.115 194.735 149.618 195.004C149.842 195.093 150.401 195.496 150.233 195.765C150.121 195.9 149.786 195.944 149.618 195.944C149.339 195.989 149.003 196.034 148.724 196.079C148.109 196.124 147.438 196.124 146.823 196.079C146.208 196.034 145.593 195.9 144.979 195.765C144.699 195.676 144.42 195.631 144.14 195.496C144.028 195.452 143.861 195.362 143.749 195.317C143.637 195.317 143.749 195.228 143.693 195.317C144.196 194.735 143.022 194.153 142.575 194.78Z" fill="#045C45"/>
<path d="M150.457 196.616C150.848 198.184 150.121 199.752 149.45 201.185C149.339 201.454 149.618 201.813 149.953 201.857C150.345 201.947 150.68 201.768 150.792 201.454C151.575 199.797 152.245 198.05 151.798 196.303C151.742 195.989 151.295 195.855 150.96 195.9C150.568 195.989 150.345 196.303 150.457 196.616Z" fill="#045C45"/>
<path d="M141.568 195.765C141.736 196.84 142.015 197.915 142.463 198.945C142.798 199.797 143.189 200.916 144.307 201.32C144.643 201.454 145.034 201.409 145.258 201.14C145.425 200.916 145.369 200.513 145.034 200.379C144.643 200.245 144.475 200.021 144.307 199.707C144.084 199.349 143.916 198.901 143.748 198.498C143.413 197.602 143.133 196.706 143.022 195.81C142.966 195.496 142.742 195.272 142.351 195.272C141.96 195.183 141.512 195.452 141.568 195.765Z" fill="#045C45"/>
<path d="M144.419 201.32C145.985 201.544 147.606 201.813 149.115 202.216C149.45 202.305 149.898 202.126 149.953 201.813C150.065 201.499 149.842 201.23 149.45 201.141C147.885 200.737 146.32 200.469 144.755 200.245C144.363 200.2 144.028 200.334 143.916 200.648C143.86 200.917 144.084 201.275 144.419 201.32Z" fill="#045C45"/>
<path d="M146.32 201.454C146.041 202.664 145.873 203.873 145.985 205.083C145.985 205.396 146.32 205.665 146.656 205.62C147.047 205.62 147.382 205.351 147.326 205.083C147.27 203.963 147.382 202.798 147.662 201.723C147.718 201.454 147.55 201.096 147.159 201.051C146.823 201.006 146.376 201.141 146.32 201.454Z" fill="#045C45"/>
<path d="M142.854 206.65C144.867 206.605 146.935 206.695 148.947 206.874C149.339 206.919 149.618 206.605 149.618 206.337C149.618 206.023 149.283 205.799 148.947 205.799C146.935 205.575 144.923 205.53 142.854 205.575C141.96 205.575 141.96 206.695 142.854 206.65Z" fill="#045C45"/>
<path d="M90.1965 198.542C91.9853 198.632 93.6623 199.125 95.3952 199.349C96.9045 199.528 98.861 199.618 100.259 198.946C100.873 198.632 101.265 198.05 100.873 197.467C100.538 196.975 99.8672 196.661 99.1964 196.482C98.3579 196.258 97.5194 196.213 96.6809 196.079C95.7865 195.944 94.8921 195.81 94.0536 195.72C93.1592 195.631 92.2648 195.631 91.4822 195.989C90.7555 196.348 90.2524 196.93 90.2524 197.602C90.2524 198.318 91.6499 198.318 91.6499 197.602C91.6499 197.019 92.4325 196.795 92.9915 196.751C93.7741 196.706 94.6126 196.885 95.3393 196.975C96.2337 197.109 97.1281 197.199 98.0225 197.333C98.3579 197.378 98.7492 197.423 99.0846 197.557C99.1964 197.602 99.3641 197.647 99.4759 197.736C99.5877 197.781 99.6995 197.96 99.6995 197.915C99.6995 197.871 99.4759 198.005 99.42 198.05C99.2523 198.095 99.1405 198.139 98.9728 198.184C98.5815 198.274 98.1902 198.318 97.7989 198.363C97.0163 198.408 96.2337 198.319 95.4511 198.229C93.7182 197.96 92.0971 197.557 90.3083 197.423C89.3021 197.378 89.3021 198.498 90.1965 198.542Z" fill="#045C45"/>
<path d="M89.9727 198.005C90.0286 200.738 91.8733 203.156 92.041 205.844C92.0969 206.561 93.4944 206.561 93.4385 205.844C93.2708 203.156 91.4261 200.738 91.3702 198.005C91.3702 197.288 89.9727 197.288 89.9727 198.005Z" fill="#045C45"/>
<path d="M99.7555 198.722C99.5319 201.365 99.0288 203.963 98.2462 206.516C98.0226 207.233 99.3642 207.502 99.5878 206.83C100.37 204.187 100.929 201.454 101.153 198.722C101.209 198.005 99.8114 198.005 99.7555 198.722Z" fill="#045C45"/>
<path d="M92.153 206.561C94.2213 207.232 96.5132 207.546 98.7492 207.501C99.6436 207.456 99.6436 206.337 98.7492 206.381C96.625 206.426 94.5008 206.157 92.5443 205.485C92.2089 205.351 91.7617 205.62 91.7058 205.889C91.594 206.202 91.8176 206.426 92.153 206.561Z" fill="#045C45"/>
<path d="M67.2213 199.976C68.6747 200.379 70.184 200.603 71.6933 200.603C72.4759 200.603 73.2585 200.558 73.9852 200.424C74.656 200.334 75.4945 200.245 76.0535 199.976C76.6684 199.662 76.5566 198.946 76.3889 198.498C76.1653 197.871 75.5504 197.647 74.7678 197.512C73.3144 197.244 71.7492 197.109 70.2399 197.199C68.8983 197.288 67.4449 197.647 66.7741 198.677C66.3269 199.304 67.5567 199.886 68.0039 199.259C68.6188 198.363 70.1281 198.319 71.1902 198.319C72.0846 198.319 72.9231 198.408 73.8175 198.498C74.0411 198.543 74.2647 198.543 74.4324 198.587C74.5442 198.632 74.7678 198.632 74.8796 198.677C74.9355 198.722 74.9914 198.856 74.9914 198.946C74.9914 198.991 74.9914 199.035 74.9914 199.125C74.9914 199.215 74.9355 199.349 75.0473 199.17C75.1032 199.125 75.215 199.035 75.2709 198.991C75.0473 199.125 74.656 199.17 74.3765 199.215C74.0411 199.304 73.7057 199.349 73.3144 199.394C72.6995 199.483 72.0287 199.528 71.4138 199.483C70.0722 199.483 68.7306 199.259 67.4449 198.901C66.7182 198.677 66.3269 199.752 67.2213 199.976Z" fill="#045C45"/>
<path d="M66.8861 198.946C66.7743 199.931 66.942 200.962 67.3892 201.902C67.501 202.171 67.8364 202.395 68.2277 202.306C68.5631 202.216 68.8426 201.902 68.7308 201.634C68.619 201.41 68.5072 201.186 68.4513 200.962C68.3954 200.827 68.3954 200.738 68.3395 200.603C68.3395 200.559 68.3395 200.514 68.2836 200.469C68.2836 200.424 68.2836 200.424 68.2836 200.379C68.2836 200.335 68.2836 200.335 68.2836 200.335C68.2836 200.379 68.2836 200.379 68.2836 200.29C68.2836 200.245 68.2836 200.2 68.2836 200.2C68.2836 200.155 68.2836 200.111 68.2836 200.066C68.2836 199.931 68.2836 199.842 68.2836 199.707C68.2836 199.483 68.2836 199.215 68.3395 198.991C68.3954 198.677 68.0041 198.408 67.6687 198.453C67.1656 198.408 66.942 198.632 66.8861 198.946Z" fill="#045C45"/>
<path d="M74.4885 200.289C74.4885 200.334 74.4885 200.334 74.4885 200.379C74.4885 200.244 74.4885 200.468 74.4885 200.379C74.4885 200.424 74.4885 200.468 74.4885 200.558C74.4885 200.648 74.4885 200.782 74.4885 200.872C74.4885 200.961 74.5444 200.737 74.4885 200.872C74.4885 200.916 74.4885 200.916 74.4885 200.961C74.4885 201.006 74.4326 201.051 74.4326 201.14C74.4326 201.185 74.3767 201.23 74.3767 201.32C74.3767 201.364 74.3767 201.364 74.3208 201.409C74.2649 201.499 74.3767 201.32 74.3208 201.409C74.2649 201.499 74.209 201.588 74.1531 201.723C74.0972 201.767 74.0972 201.812 74.0413 201.857C74.0413 201.857 73.9295 201.947 74.0413 201.902C74.0972 201.812 74.0413 201.902 73.9854 201.947C73.8736 202.036 73.8177 202.126 73.7059 202.171C73.65 202.171 73.65 202.215 73.5941 202.215C73.4823 202.26 73.5382 202.26 73.5941 202.215C73.5382 202.26 73.4823 202.305 73.4264 202.305C73.091 202.484 72.9792 202.798 73.2028 203.067C73.4264 203.335 73.8177 203.425 74.1531 203.246C75.4947 202.574 76.1655 201.275 75.8301 200.065C75.7742 199.797 75.327 199.573 74.9916 199.662C74.6003 199.707 74.4326 199.976 74.4885 200.289Z" fill="#045C45"/>
<path d="M121.333 196.975C123.289 197.423 125.358 197.647 127.37 197.602C128.376 197.602 129.438 197.512 130.445 197.378C131.283 197.288 132.233 197.199 132.904 196.706C133.519 196.213 133.687 195.452 133.128 194.914C132.625 194.377 131.674 194.197 130.948 194.018C128.991 193.57 126.979 193.436 124.966 193.615C123.066 193.794 120.606 194.332 120.55 196.213C120.55 196.93 121.948 196.93 121.948 196.213C121.948 194.735 125.022 194.69 126.308 194.645C127.314 194.645 128.32 194.69 129.327 194.825C130.109 194.959 131.171 195.049 131.842 195.452C132.681 195.944 130.836 196.213 130.5 196.258C129.55 196.392 128.544 196.482 127.594 196.482C125.581 196.527 123.625 196.303 121.724 195.9C120.83 195.72 120.438 196.796 121.333 196.975Z" fill="#045C45"/>
<path d="M120.55 196.213C120.438 199.304 121.221 202.35 122.004 205.351C122.171 206.068 123.513 205.754 123.345 205.038C122.619 202.126 121.836 199.214 121.948 196.213C121.948 195.496 120.55 195.496 120.55 196.213Z" fill="#045C45"/>
<path d="M131.898 196.392C132.457 199.483 131.618 202.664 129.606 205.306C129.159 205.934 130.333 206.471 130.836 205.889C133.016 202.932 133.854 199.483 133.239 196.079C133.128 195.407 131.786 195.72 131.898 196.392Z" fill="#045C45"/>
<path d="M122.227 206.158C123.513 206.068 124.854 206.158 126.084 206.382C127.314 206.606 128.6 207.143 129.885 206.829C130.724 206.606 130.389 205.53 129.494 205.754C128.935 205.889 128.376 205.754 127.817 205.62C127.202 205.486 126.643 205.306 126.028 205.217C124.743 204.993 123.457 204.948 122.171 204.993C121.78 204.993 121.5 205.217 121.5 205.53C121.556 205.889 121.892 206.202 122.227 206.158Z" fill="#045C45"/>
<path d="M93.2152 263.45C100.37 261.971 107.414 260.314 114.401 258.477C115.24 258.253 114.904 257.178 114.01 257.402C107.022 259.239 99.9232 260.896 92.8239 262.375C91.9854 262.554 92.3208 263.629 93.2152 263.45Z" fill="#045C45"/>
<path d="M123.233 256.059C129.55 253.505 136.202 251.445 143.022 249.877C143.86 249.698 143.525 248.578 142.631 248.802C135.699 250.415 128.935 252.52 122.507 255.118C121.724 255.432 122.451 256.372 123.233 256.059Z" fill="#045C45"/>
<path d="M122.954 260.762C124.295 259.866 125.916 259.329 127.481 258.881C129.27 258.388 131.115 257.94 132.96 257.447C136.649 256.462 140.338 255.432 144.196 254.984C145.09 254.894 144.699 253.774 143.804 253.909C139.779 254.401 135.922 255.521 132.009 256.507C128.599 257.403 124.686 258.075 121.891 259.956C121.277 260.404 122.283 261.21 122.954 260.762Z" fill="#045C45"/>
<path d="M144.196 255.118C145.202 255.028 146.264 254.983 147.214 255.342C148.22 255.745 149.171 256.238 150.121 256.73C150.904 257.089 151.574 256.148 150.848 255.745C149.842 255.252 148.835 254.67 147.717 254.311C146.599 253.908 145.425 253.908 144.196 253.998C143.804 254.043 143.525 254.222 143.525 254.535C143.525 254.849 143.86 255.163 144.196 255.118Z" fill="#045C45"/>
<path d="M156.55 258.881C160.63 259.552 164.599 260.628 168.401 262.016C169.183 262.33 169.91 261.344 169.127 261.031C165.214 259.552 161.189 258.477 156.941 257.761C156.047 257.671 155.655 258.746 156.55 258.881Z" fill="#045C45"/>
<path d="M157.612 254.043C159.568 253.998 161.189 255.208 162.866 255.835C164.823 256.552 166.835 256.999 168.903 257.403C169.798 257.582 170.133 256.507 169.295 256.328C167.171 255.924 164.99 255.476 163.034 254.67C161.301 253.953 159.68 252.923 157.668 252.968C156.717 252.923 156.661 254.043 157.612 254.043Z" fill="#045C45"/>
<path d="M123.345 244.77C125.693 245.084 127.873 245.756 130.109 246.428C132.345 247.1 134.581 247.727 136.817 248.309C141.401 249.474 145.985 250.504 150.68 251.355C151.575 251.534 151.91 250.414 151.072 250.28C146.376 249.429 141.736 248.399 137.208 247.234C134.972 246.652 132.736 246.024 130.5 245.353C128.264 244.681 126.084 244.009 123.736 243.695C122.842 243.561 122.451 244.636 123.345 244.77Z" fill="#045C45"/>
<path d="M122.451 248.623C125.972 249.384 129.382 250.37 132.68 251.579C133.463 251.893 134.19 250.907 133.407 250.594C129.997 249.295 126.475 248.264 122.842 247.503C121.948 247.368 121.556 248.443 122.451 248.623Z" fill="#045C45"/>
<path d="M93.3268 266.541C95.2274 267.257 97.128 268.019 98.9727 268.735C99.8112 269.049 100.65 269.407 101.488 269.81C102.271 270.214 103.053 270.662 103.892 271.02C105.569 271.647 107.469 271.916 109.202 272.453C110.991 272.991 112.724 273.708 114.401 274.514C115.184 274.872 115.854 273.932 115.128 273.528C113.507 272.722 111.83 272.05 110.041 271.513C108.252 270.93 106.351 270.662 104.619 270.034C103.78 269.721 103.053 269.318 102.271 268.915C101.432 268.467 100.538 268.108 99.6435 267.75C97.7429 267.033 95.8423 266.272 93.9976 265.555C93.215 265.286 92.4883 266.227 93.3268 266.541Z" fill="#045C45"/>
<path d="M93.8856 272.095C100.873 274.603 107.861 277.202 114.736 279.889C115.519 280.203 116.246 279.217 115.463 278.904C108.587 276.216 101.6 273.618 94.6123 271.109C93.7738 270.841 93.0471 271.826 93.8856 272.095Z" fill="#045C45"/>
<path d="M65.712 261.434C67.7244 261.747 69.5691 262.464 71.4697 263.136C73.3703 263.808 75.2709 264.48 77.1715 265.196C81.0286 266.63 84.8298 268.108 88.4633 269.81C89.2459 270.169 89.9726 269.183 89.19 268.825C85.4447 267.123 81.5876 265.6 77.6187 264.121C75.6622 263.405 73.7057 262.733 71.7492 262.016C69.9045 261.344 68.0039 260.627 66.0474 260.314C65.2089 260.224 64.8176 261.299 65.712 261.434Z" fill="#045C45"/>
<path d="M65.9356 256.283C73.7057 258.657 81.3081 261.389 88.6869 264.48C89.4695 264.794 90.1962 263.853 89.4136 263.495C81.923 260.359 74.2088 257.582 66.3269 255.208C65.4884 254.939 65.153 256.014 65.9356 256.283Z" fill="#045C45"/>
<path d="M65.6005 216.863C67.2216 216.953 68.8427 217.356 70.4079 217.715C71.9731 218.073 73.5383 218.431 75.1035 218.79C78.2339 219.506 81.4202 220.223 84.5506 220.985C90.8673 222.463 97.1281 223.941 103.445 225.464C106.966 226.315 110.544 227.166 114.066 228.017C114.904 228.241 115.296 227.121 114.457 226.942C101.768 223.896 89.0226 220.85 76.2774 217.939C74.4886 217.535 72.6998 217.132 70.911 216.729C69.1781 216.326 67.4452 215.923 65.6005 215.833C64.7061 215.699 64.7061 216.819 65.6005 216.863Z" fill="#045C45"/>
<path d="M95.1158 217.984C96.681 218.252 98.3021 218.476 99.7555 218.969C101.209 219.462 102.55 220.044 104.06 220.402C107.246 221.119 110.488 221.701 113.73 222.329C114.625 222.508 114.96 221.433 114.122 221.254C110.88 220.626 107.637 220.044 104.451 219.327C102.942 218.969 101.6 218.387 100.147 217.894C98.6375 217.401 97.0723 217.132 95.4512 216.864C94.6127 216.774 94.2214 217.849 95.1158 217.984Z" fill="#045C45"/>
<path d="M97.2397 267.526C103.501 265.286 110.041 263.495 116.693 262.195C117.587 262.016 117.196 260.941 116.302 261.12C109.482 262.464 102.886 264.301 96.513 266.585C95.6745 266.854 96.4012 267.84 97.2397 267.526Z" fill="#045C45"/>
<path d="M123.792 227.166C137.432 224.837 151.071 222.463 164.711 220.133C168.512 219.461 172.369 218.834 176.17 218.162C177.065 218.028 176.674 216.953 175.779 217.087C162.14 219.417 148.5 221.791 134.86 224.12C131.059 224.792 127.202 225.419 123.401 226.091C122.506 226.225 122.898 227.3 123.792 227.166Z" fill="#045C45"/>
<path d="M123.01 221.836C126.531 221.477 130.053 221.074 133.575 220.626C136.929 220.223 140.283 219.82 143.469 218.79C144.308 218.521 143.916 217.446 143.078 217.715C140.003 218.745 136.705 219.148 133.463 219.551C129.997 219.999 126.475 220.358 123.01 220.716C122.115 220.805 122.115 221.925 123.01 221.836Z" fill="#045C45"/>
<path d="M201.27 210.323C210.326 210.951 219.437 210.368 228.27 208.621C229.164 208.442 228.773 207.367 227.878 207.546C219.158 209.293 210.158 209.831 201.27 209.204C200.376 209.159 200.376 210.279 201.27 210.323Z" fill="#045C45"/>
<path d="M228.158 208.307C229.555 209.83 230.226 211.667 230.17 213.504C230.17 214.399 229.946 215.34 229.555 216.191C229.387 216.639 229.108 217.042 228.828 217.445C228.437 217.983 228.046 218.297 227.263 218.521C221.953 220.088 216.419 221.387 210.829 222.059C207.642 222.462 204.4 222.597 201.214 222.462C200.319 222.418 200.319 223.538 201.214 223.582C207.419 223.851 213.624 223 219.605 221.701C221.114 221.343 222.679 220.984 224.189 220.581C225.586 220.223 227.04 219.864 228.381 219.372C229.555 218.924 230.17 217.983 230.673 217.042C231.176 216.102 231.456 215.116 231.567 214.086C231.791 211.846 231.064 209.517 229.387 207.725C228.828 207.143 227.654 207.725 228.158 208.307Z" fill="#045C45"/>
<path d="M200.599 236.394C201.493 236.394 201.493 235.274 200.599 235.274C199.705 235.274 199.705 236.394 200.599 236.394Z" fill="#045C45"/>
<path d="M220.164 221.298C217.648 224.882 216.027 228.824 214.742 232.81C213.456 236.931 212.282 241.097 211.388 245.263C210.94 247.413 210.605 249.563 210.549 251.758C210.493 253.998 210.605 256.238 210.493 258.477C210.381 260.672 210.158 262.867 210.158 265.107C210.158 267.347 210.325 269.586 210.549 271.781C210.773 274.066 211.108 276.306 211.443 278.545C211.611 279.62 211.779 280.74 211.947 281.815C212.058 282.666 212.338 283.383 213.456 283.652C214.406 283.876 215.692 283.965 216.586 283.652C217.648 283.293 217.984 282.487 218.263 281.681C218.878 279.576 219.046 277.381 218.934 275.231C218.822 273.036 218.599 270.885 218.431 268.691C218.263 266.451 218.151 264.256 218.096 262.016C217.984 257.582 218.151 253.102 218.543 248.667C218.934 244.188 219.549 239.664 220.443 235.229C220.891 233.034 221.338 230.884 221.953 228.689C222.456 226.718 222.959 224.613 223.909 222.731C224.3 221.925 224.915 221.164 225.698 220.581C226.369 220.089 225.363 219.327 224.692 219.775C223.127 220.94 222.344 222.552 221.841 224.165C221.17 226.181 220.611 228.241 220.108 230.302C219.102 234.512 218.319 238.813 217.76 243.113C216.642 251.669 216.419 260.314 217.033 268.914C217.369 273.036 218.151 277.381 216.866 281.457C216.754 281.905 216.586 282.442 216.027 282.622C215.524 282.801 214.909 282.711 214.406 282.666C213.903 282.622 213.512 282.577 213.4 282.129C213.288 281.591 213.232 281.054 213.12 280.516C212.785 278.321 212.45 276.126 212.17 273.976C211.611 269.676 211.388 265.376 211.723 261.075C211.891 258.925 212.002 256.82 211.947 254.715C211.947 252.565 211.947 250.459 212.282 248.309C212.897 244.143 214.071 240.022 215.245 235.991C216.363 232.094 217.648 228.152 219.773 224.478C220.276 223.583 220.835 222.731 221.394 221.88C221.841 221.253 220.611 220.671 220.164 221.298Z" fill="#045C45"/>
<path d="M201.214 236.707C203.059 236.842 205.015 236.976 206.748 237.514C208.649 238.141 209.99 239.395 210.885 240.784C211.388 241.5 211.332 242.172 210.326 242.486C209.431 242.799 208.369 242.934 207.363 243.068C205.015 243.471 202.611 243.785 200.264 243.427C199.369 243.292 199.034 244.367 199.872 244.502C202.052 244.815 204.232 244.681 206.413 244.322C207.475 244.143 208.537 243.964 209.655 243.74C210.437 243.606 211.22 243.382 211.835 242.979C213.4 241.859 212.226 240.246 211.276 239.126C210.214 237.872 208.928 236.931 207.139 236.349C205.239 235.722 203.17 235.588 201.158 235.453C200.319 235.543 200.319 236.663 201.214 236.707Z" fill="#045C45"/>
<path d="M198.251 249.518C203.394 249.922 208.649 248.399 212.338 245.487C213.009 244.994 212.003 244.188 211.332 244.681C207.866 247.368 203.003 248.712 198.195 248.354C197.357 248.354 197.357 249.474 198.251 249.518Z" fill="#045C45"/>
<path d="M115.463 180.177C117.532 173.189 121.165 166.515 126.14 160.512C127.594 158.81 129.103 157.153 130.78 155.54C131.339 155.002 130.389 154.196 129.774 154.734C123.904 160.378 119.376 166.828 116.302 173.771C115.407 175.787 114.681 177.803 114.066 179.863C113.898 180.58 115.24 180.894 115.463 180.177Z" fill="#045C45"/>
<path d="M105.122 174.801C104.954 171.084 104.06 167.366 102.271 163.916C100.426 160.288 97.6871 157.197 94.948 154.017C94.4449 153.435 93.2151 153.972 93.7182 154.599C96.4014 157.69 99.1405 160.736 100.929 164.23C102.606 167.59 103.557 171.173 103.724 174.846C103.78 175.518 105.178 175.518 105.122 174.801Z" fill="#045C45"/>
<path d="M110.209 184.119C110.097 178.027 111.215 171.935 113.451 166.111C113.731 165.439 112.389 165.126 112.109 165.798C109.818 171.711 108.7 177.892 108.811 184.119C108.811 184.835 110.209 184.835 110.209 184.119Z" fill="#045C45"/>
<path d="M132.792 152.987C133.575 152.852 134.413 153.031 135.028 153.435C135.196 153.524 135.363 153.659 135.475 153.793C135.531 153.838 135.587 153.927 135.643 153.972C135.643 154.017 135.643 154.017 135.699 154.062V154.106C135.699 154.062 135.699 154.151 135.699 154.106C135.643 154.106 135.755 154.062 135.699 154.106C135.587 154.151 135.531 154.106 135.419 154.106C135.14 154.106 134.916 154.062 134.693 154.017C134.134 153.927 133.575 153.748 133.127 153.479C132.96 153.39 132.68 153.435 132.568 153.614C132.457 153.793 132.513 153.972 132.736 154.062C133.295 154.375 133.91 154.554 134.525 154.689C135.14 154.778 136.09 154.958 136.481 154.465C136.873 154.017 136.425 153.479 136.034 153.121C135.643 152.807 135.14 152.539 134.581 152.404C133.966 152.225 133.295 152.225 132.624 152.315C132.401 152.36 132.289 152.539 132.345 152.718C132.345 152.942 132.568 153.031 132.792 152.987Z" fill="#045C45"/>
<path d="M134.301 151.329C133.91 150.881 133.519 150.433 132.96 150.075C132.457 149.762 131.674 149.627 131.059 149.806C129.829 150.165 129.494 151.374 130.165 152.225C130.556 152.718 131.171 153.032 131.842 153.211C132.065 153.255 132.289 153.166 132.345 152.987C132.401 152.808 132.289 152.628 132.065 152.584C131.674 152.494 131.227 152.27 130.947 152.001C130.836 151.867 130.724 151.732 130.668 151.598C130.612 151.509 130.612 151.464 130.612 151.419C130.612 151.374 130.612 151.329 130.612 151.285C130.612 151.24 130.612 151.15 130.612 151.195C130.668 150.881 130.836 150.657 131.171 150.523C131.562 150.389 132.01 150.478 132.401 150.657C132.904 150.926 133.183 151.329 133.519 151.688C133.631 151.822 133.91 151.912 134.078 151.822C134.301 151.688 134.413 151.464 134.301 151.329Z" fill="#045C45"/>
<path d="M129.214 151.374C128.711 152.18 128.544 153.032 128.711 153.927C128.767 154.286 128.879 154.689 129.159 155.002C129.438 155.316 129.829 155.495 130.221 155.63C131.115 155.943 132.177 155.898 133.183 155.943C133.742 155.943 134.357 156.033 134.86 155.854C135.308 155.674 135.587 155.316 135.419 154.958C135.252 154.555 134.469 154.734 134.637 155.137C134.693 155.361 134.022 155.316 133.91 155.316C133.463 155.316 132.96 155.316 132.513 155.271C131.842 155.271 131.059 155.226 130.444 155.002C129.773 154.734 129.55 154.196 129.494 153.659C129.438 153.032 129.606 152.36 129.941 151.777C130.165 151.329 129.438 151.016 129.214 151.374Z" fill="#045C45"/>
<path d="M135.643 152.225C136.146 152.27 136.593 152.584 136.929 152.897C137.32 153.211 137.767 153.659 137.935 154.062C138.047 154.465 137.599 154.689 137.208 154.823C136.537 155.003 135.866 155.137 135.196 155.316C134.693 155.451 134.916 156.078 135.419 155.943C136.202 155.764 137.04 155.63 137.767 155.361C138.494 155.092 138.941 154.599 138.773 153.972C138.606 153.39 137.991 152.852 137.488 152.404C136.984 151.957 136.37 151.643 135.643 151.553C135.419 151.509 135.196 151.733 135.196 151.912C135.196 152.091 135.419 152.225 135.643 152.225Z" fill="#045C45"/>
<path d="M136.761 155.54C136.258 156.301 135.363 156.794 134.357 157.063C133.854 157.197 133.351 157.242 132.792 157.332C132.401 157.377 131.842 157.466 131.506 157.197C131.115 156.884 130.556 157.377 130.891 157.69C131.339 158.048 131.898 158.093 132.513 158.048C133.183 158.004 133.854 157.914 134.469 157.78C135.755 157.466 136.873 156.884 137.488 155.943C137.711 155.495 136.985 155.137 136.761 155.54Z" fill="#045C45"/>
<path d="M127.593 151.598C126.419 152.404 125.693 153.569 125.581 154.823C125.469 155.809 125.805 157.197 127.202 157.421C127.705 157.511 127.929 156.884 127.426 156.794C126.364 156.615 126.308 155.361 126.419 154.689C126.587 153.703 127.258 152.763 128.152 152.091C128.6 151.777 127.985 151.329 127.593 151.598Z" fill="#045C45"/>
<path d="M131.115 149.358C130.277 149.358 129.438 149 128.6 149C127.761 149 127.034 149.403 126.475 149.896C125.916 150.433 125.581 151.105 125.301 151.777C125.078 152.315 124.966 152.987 125.581 153.435C125.972 153.703 126.587 153.255 126.196 152.942C125.805 152.628 126.028 152.091 126.196 151.732C126.475 151.195 126.755 150.613 127.258 150.165C127.705 149.762 128.264 149.538 128.991 149.627C129.718 149.717 130.388 149.985 131.171 149.985C131.674 150.03 131.674 149.358 131.115 149.358Z" fill="#045C45"/>
<path d="M132.233 155.898C131.283 156.884 129.662 157.377 128.153 157.108C127.65 157.018 127.426 157.645 127.929 157.735C129.718 158.049 131.674 157.511 132.792 156.346C132.904 156.212 132.96 156.033 132.792 155.854C132.681 155.764 132.345 155.764 132.233 155.898Z" fill="#045C45"/>
<path d="M107.246 160.915C107.805 162.125 108.42 163.334 109.09 164.499C109.761 165.619 110.656 166.694 110.879 167.903C110.991 168.351 111.774 168.127 111.662 167.724C111.438 166.514 110.6 165.484 109.929 164.364C109.202 163.155 108.531 161.945 107.972 160.691C107.861 160.333 107.078 160.512 107.246 160.915Z" fill="#045C45"/>
<path d="M117.923 161.408C116.581 161.453 115.687 162.438 114.96 163.245C114.178 164.14 113.619 165.081 113.004 166.067C112.78 166.47 113.507 166.783 113.73 166.425C114.233 165.574 114.792 164.678 115.463 163.872C115.799 163.469 116.134 163.11 116.525 162.797C116.917 162.483 117.364 162.169 117.867 162.125C118.482 162.08 118.482 161.408 117.923 161.408Z" fill="#045C45"/>
<path d="M117.084 161.856V161.811C117.084 161.767 117.084 161.901 117.084 161.811C117.084 161.767 117.084 161.722 117.084 161.677C117.084 161.587 117.084 161.498 117.084 161.408C117.084 161.363 117.084 161.498 117.084 161.408V161.363V161.319C117.084 161.274 117.14 161.229 117.084 161.319C117.084 161.274 117.14 161.229 117.14 161.229C117.084 161.274 117.084 161.319 117.14 161.229C117.084 161.229 117.196 161.184 117.14 161.229C117.14 161.229 117.196 161.229 117.196 161.184C117.14 161.184 117.308 161.139 117.196 161.184C117.196 161.184 117.252 161.184 117.308 161.184C117.252 161.184 117.196 161.184 117.252 161.184H117.308H117.364C117.308 161.184 117.308 161.184 117.308 161.184C117.364 161.184 117.364 161.184 117.419 161.184C117.475 161.184 117.531 161.229 117.587 161.229C117.923 161.319 118.202 161.408 118.537 161.363C118.37 161.274 118.202 161.229 118.034 161.139V161.184C118.034 161.095 118.034 161.229 118.034 161.184V161.229C118.034 161.274 118.034 161.229 118.034 161.184V161.229L117.978 161.274C117.867 161.408 117.923 161.632 118.146 161.722C118.37 161.811 118.593 161.767 118.705 161.587C118.873 161.363 118.929 161.095 118.817 160.871C118.761 160.691 118.537 160.602 118.314 160.647C118.258 160.647 118.426 160.647 118.314 160.647C118.258 160.647 118.258 160.647 118.202 160.647C118.146 160.647 118.258 160.647 118.258 160.647C118.258 160.647 118.258 160.647 118.202 160.647C118.146 160.647 118.146 160.647 118.09 160.647C117.978 160.602 117.867 160.602 117.755 160.557C117.475 160.468 117.196 160.423 116.916 160.468C116.413 160.602 116.19 161.005 116.134 161.408C116.134 161.587 116.134 161.811 116.19 161.991C116.246 162.17 116.525 162.259 116.693 162.215C117.028 162.215 117.14 162.035 117.084 161.856Z" fill="#045C45"/>
<path d="M118.314 162.08C118.426 162.035 118.594 162.08 118.705 162.125C118.705 162.125 118.761 162.125 118.761 162.169C118.705 162.169 118.705 162.169 118.761 162.169C118.761 162.169 118.873 162.259 118.817 162.214C118.817 162.214 118.873 162.349 118.873 162.259C118.873 162.304 118.929 162.349 118.929 162.393C118.929 162.349 118.929 162.438 118.929 162.483V162.528C118.929 162.483 118.929 162.483 118.929 162.528V162.573C118.929 162.528 118.929 162.528 118.929 162.573C118.929 162.573 118.817 162.662 118.873 162.617C118.817 162.662 118.817 162.662 118.761 162.707C118.705 162.752 118.705 162.752 118.761 162.707C118.761 162.707 118.705 162.707 118.705 162.752C118.65 162.752 118.65 162.797 118.594 162.797C118.705 162.752 118.538 162.797 118.538 162.797C118.482 162.797 118.482 162.797 118.426 162.841C118.37 162.841 118.37 162.841 118.426 162.841H118.37C118.314 162.841 118.258 162.841 118.202 162.841C118.202 162.841 118.035 162.841 118.146 162.841C118.035 162.841 117.979 162.797 117.867 162.797C117.979 162.841 117.811 162.752 117.811 162.752C117.755 162.707 117.699 162.707 117.643 162.662C117.532 162.573 117.308 162.438 117.196 162.304C117.252 162.349 117.14 162.259 117.14 162.214C117.084 162.169 117.084 162.125 117.028 162.08C116.973 161.99 116.917 161.901 116.861 161.856C116.749 161.677 116.469 161.632 116.302 161.722C116.078 161.811 116.022 162.035 116.134 162.169C116.581 162.841 117.308 163.513 118.37 163.468C118.817 163.468 119.264 163.334 119.544 163.021C119.879 162.662 119.935 162.169 119.656 161.811C119.376 161.408 118.705 161.184 118.146 161.318C117.923 161.363 117.811 161.542 117.867 161.722C117.811 162.035 118.091 162.125 118.314 162.08Z" fill="#045C45"/>
<path d="M116.749 162.214C116.469 162.08 116.413 161.766 116.19 161.587C115.854 161.318 115.351 161.318 114.904 161.363C114.121 161.408 113.227 161.677 113.227 162.438C113.227 162.797 113.507 163.11 113.786 163.334C114.066 163.558 114.513 163.872 114.96 163.917C115.351 163.917 115.687 163.737 116.022 163.782C116.357 163.827 116.693 164.096 116.637 164.364C116.581 164.633 116.246 164.857 115.966 164.812C115.575 164.768 115.295 164.364 115.072 164.141C114.513 163.558 113.618 163.021 112.668 163.065C111.83 163.11 111.103 163.737 111.159 164.409C111.215 165.216 112.053 165.664 113.003 165.664C113.507 165.664 114.121 165.529 114.625 165.664C115.016 165.798 115.351 166.111 115.295 166.47C115.24 166.828 114.904 167.097 114.457 167.007C113.898 166.963 113.562 166.559 113.283 166.201C113.003 165.843 112.277 166.156 112.556 166.559C113.003 167.187 113.786 167.769 114.792 167.679C115.631 167.59 116.246 166.963 116.134 166.291C116.078 165.619 115.351 165.081 114.513 164.947C114.01 164.857 113.507 164.947 113.003 164.992C112.556 164.992 112.109 164.857 111.997 164.454C111.941 164.141 112.221 163.782 112.612 163.737C113.059 163.693 113.618 163.961 113.954 164.185C114.569 164.633 114.96 165.44 115.91 165.484C116.693 165.484 117.42 164.947 117.475 164.275C117.475 163.603 116.749 163.11 115.966 163.021C115.743 163.021 115.519 163.021 115.295 163.11C114.96 163.2 114.848 163.11 114.569 162.931C114.289 162.752 113.786 162.349 114.233 162.08C114.513 161.946 115.239 161.856 115.519 161.99C115.687 162.08 115.743 162.259 115.854 162.349C115.966 162.483 116.134 162.618 116.302 162.707C116.749 163.021 117.196 162.438 116.749 162.214Z" fill="#045C45"/>
<path d="M108.029 160.512C108.029 160.512 108.029 160.423 108.029 160.468C108.029 160.378 108.029 160.512 108.029 160.423C108.085 160.378 108.085 160.333 108.14 160.288C108.308 160.154 108.476 159.975 108.532 159.796C108.699 159.392 108.42 158.989 107.973 158.721C107.581 158.497 106.967 158.452 106.519 158.497C106.24 158.497 105.96 158.586 105.793 158.81C105.625 158.989 105.625 159.258 105.681 159.437C105.737 159.796 106.128 160.154 106.519 160.288C106.967 160.468 107.47 160.512 107.973 160.602C108.308 160.647 108.811 160.736 108.979 161.05C108.923 161.005 108.979 161.095 108.979 161.095C109.035 161.184 108.979 161.05 108.979 161.139C108.979 161.184 108.979 161.184 108.979 161.229C108.979 161.319 108.979 161.184 108.979 161.274C108.979 161.274 108.923 161.363 108.979 161.319C108.979 161.363 108.923 161.363 108.923 161.408C108.867 161.453 108.979 161.363 108.923 161.408L108.867 161.453C108.923 161.453 108.923 161.453 108.811 161.453C108.588 161.453 108.364 161.319 108.196 161.229L108.029 161.095C108.085 161.005 108.14 160.915 108.14 160.826C108.14 160.468 107.637 160.288 107.358 160.557C107.078 160.781 107.246 161.184 107.637 161.184C107.861 161.184 108.085 161.05 108.085 160.826C108.085 160.647 107.917 160.468 107.637 160.468C107.749 160.512 107.861 160.512 107.917 160.557C107.973 160.647 107.973 160.781 108.029 160.871C107.973 160.915 107.861 161.005 107.805 161.05C107.749 161.05 107.637 161.05 107.581 161.05C107.526 161.005 107.47 161.005 107.414 160.96C107.358 160.915 107.358 160.871 107.302 160.826V160.871C107.302 160.826 107.302 160.736 107.302 160.691C107.302 160.781 107.19 160.871 107.19 161.005C107.19 161.095 107.19 161.184 107.246 161.229C107.358 161.408 107.526 161.587 107.749 161.677C108.14 161.901 108.644 162.125 109.147 161.991C109.985 161.767 109.985 160.871 109.482 160.378C109.203 160.109 108.755 159.975 108.364 159.93C107.917 159.84 107.526 159.84 107.078 159.706C106.911 159.661 106.799 159.572 106.687 159.482C106.631 159.437 106.575 159.392 106.575 159.348C106.519 159.303 106.519 159.258 106.519 159.213C106.519 159.168 106.519 159.124 106.519 159.124C106.575 159.079 106.519 159.079 106.631 159.124C106.855 159.124 107.022 159.124 107.246 159.124C107.414 159.168 107.581 159.213 107.693 159.303C107.805 159.392 107.805 159.482 107.749 159.572C107.693 159.706 107.526 159.796 107.414 159.93C107.246 160.064 107.19 160.244 107.19 160.468C107.19 160.647 107.358 160.826 107.637 160.826C107.861 160.871 108.085 160.691 108.029 160.512Z" fill="#045C45"/>
<path d="M107.581 160.512C107.022 160.422 106.407 160.288 105.904 160.467C105.345 160.646 104.954 161.005 104.954 161.497C104.954 161.721 105.01 161.945 105.066 162.169C105.122 162.349 105.234 162.573 105.401 162.707C105.569 162.797 105.737 162.841 105.96 162.841C106.128 162.841 106.296 162.752 106.407 162.707C106.575 162.617 106.799 162.573 106.966 162.438C107.414 162.169 107.805 161.811 107.805 161.363C107.805 161.184 107.581 161.005 107.358 161.005C107.134 161.005 106.967 161.139 106.911 161.363V161.408V161.497V161.542C106.911 161.587 106.855 161.587 106.855 161.632C106.855 161.632 106.855 161.677 106.799 161.677C106.799 161.677 106.743 161.721 106.743 161.766C106.687 161.811 106.631 161.856 106.575 161.901C106.519 161.945 106.631 161.856 106.575 161.901C106.575 161.901 106.519 161.901 106.519 161.945C106.463 161.945 106.463 161.99 106.407 161.99C106.352 162.035 106.24 162.08 106.184 162.08C106.128 162.125 106.016 162.125 105.96 162.169C105.904 162.169 105.904 162.214 105.848 162.214C105.793 162.214 105.904 162.214 105.848 162.214H105.793C105.793 162.214 105.793 162.214 105.848 162.214C105.904 162.214 105.904 162.214 105.96 162.214C105.96 162.259 106.072 162.259 105.96 162.214L105.904 162.169V162.125C105.904 162.08 105.848 162.035 105.848 161.99C105.793 161.901 105.793 161.856 105.793 161.766C105.793 161.721 105.793 161.677 105.737 161.632C105.737 161.587 105.737 161.587 105.737 161.542C105.737 161.497 105.737 161.453 105.737 161.408C105.737 161.408 105.737 161.318 105.737 161.363C105.737 161.408 105.737 161.363 105.737 161.318C105.737 161.274 105.737 161.274 105.793 161.229L105.848 161.184C105.848 161.139 105.848 161.139 105.848 161.184L105.904 161.139L105.96 161.094C105.904 161.139 106.016 161.05 105.96 161.094C105.96 161.094 106.016 161.094 106.016 161.05C106.072 161.05 106.128 161.005 106.128 161.005C106.016 161.005 106.072 161.005 106.128 161.005H106.184C106.24 161.005 106.296 161.005 106.352 160.96H106.463C106.519 160.96 106.575 160.96 106.631 160.96C106.687 160.96 106.687 160.96 106.743 160.96C106.743 160.96 106.855 160.96 106.799 160.96C106.855 160.96 106.911 160.96 106.966 161.005C107.078 161.005 107.246 161.05 107.358 161.094C107.581 161.139 107.805 161.05 107.861 160.87C107.917 160.781 107.805 160.557 107.581 160.512Z" fill="#045C45"/>
<path d="M107.525 161.677C106.631 162.08 105.792 162.976 106.463 163.782C106.743 164.096 107.246 164.32 107.749 164.275C108.308 164.185 108.643 163.782 108.979 163.424C109.314 163.021 109.649 162.617 110.152 162.393C110.6 162.214 111.27 162.214 111.438 162.662C111.606 163.2 110.823 163.11 110.376 163.11C109.817 163.11 109.202 163.155 108.699 163.334C107.693 163.648 106.91 164.454 107.078 165.35C107.134 165.753 107.413 166.156 107.916 166.291C108.475 166.425 109.034 166.156 109.426 165.887C109.985 165.529 110.488 165.126 111.047 164.812C111.494 164.588 111.997 164.499 112.333 164.902C112.444 165.036 112.556 165.216 112.612 165.395C112.612 165.484 112.612 165.574 112.612 165.663C112.612 165.798 112.612 165.798 112.5 165.798C112.165 165.843 111.774 165.843 111.438 165.843C111.047 165.843 110.656 165.887 110.264 165.887C109.649 165.932 108.867 165.887 108.531 166.425C108.252 166.828 108.252 167.41 108.42 167.814C108.587 168.262 109.034 168.62 109.649 168.709C110.32 168.799 110.935 168.62 111.55 168.396C112.053 168.217 111.606 167.634 111.103 167.814C110.656 167.948 110.041 168.172 109.538 167.993C109.146 167.814 109.09 167.366 109.146 167.007C109.202 166.739 109.314 166.604 109.649 166.604C109.985 166.559 110.376 166.559 110.711 166.559C111.382 166.515 111.997 166.515 112.668 166.47C113.73 166.335 113.562 165.216 113.171 164.678C112.668 163.961 111.662 163.782 110.767 164.14C110.264 164.364 109.817 164.723 109.37 164.992C109.146 165.171 108.308 165.887 107.972 165.529C107.749 165.216 107.861 164.768 108.14 164.454C108.475 164.096 108.979 163.872 109.482 163.782C110.376 163.648 111.774 164.006 112.165 163.11C112.5 162.393 111.885 161.677 110.991 161.542C109.761 161.408 108.867 162.214 108.252 162.976C108.084 163.155 107.916 163.469 107.693 163.558C107.469 163.648 107.19 163.469 107.134 163.289C106.91 162.841 107.525 162.438 107.972 162.259C108.42 162.035 107.972 161.453 107.525 161.677Z" fill="#045C45"/>
<path d="M112.221 163.379C112.277 159.482 113.73 155.719 115.184 152.046C115.351 151.643 114.513 151.464 114.401 151.867C112.948 155.63 111.438 159.392 111.382 163.379C111.382 163.827 112.221 163.827 112.221 163.379Z" fill="#045C45"/>
<path d="M114.625 152.359C115.24 152.404 115.966 152.404 116.413 152.001C116.749 151.687 116.805 151.195 116.469 150.881C115.631 150.12 113.954 151.105 113.842 151.911C113.786 152.27 114.401 152.315 114.625 152.091C115.351 151.284 114.233 150.568 113.339 150.478C112.836 150.433 112.165 150.344 111.718 150.612C111.327 150.836 111.215 151.284 111.494 151.598C111.662 151.732 111.83 151.822 112.053 151.732C112.053 151.732 112.612 152.359 112.724 152.449C112.948 152.628 113.283 152.718 113.563 152.763C113.842 152.807 114.122 152.807 114.401 152.852C115.072 152.897 115.407 153.076 115.407 153.614C115.407 153.658 115.407 154.062 115.351 154.106C115.519 154.062 115.24 153.838 115.295 153.882C115.128 153.658 114.792 153.434 114.513 153.255C113.898 152.942 113.115 152.763 112.445 152.942C111.215 153.21 110.656 154.689 112.109 155.092C112.948 155.316 113.954 154.733 114.736 155.047C115.072 155.181 115.295 155.585 115.407 155.853C115.519 156.033 115.631 156.301 115.631 156.48C115.575 157.108 115.016 156.884 114.736 156.57C114.401 156.122 114.122 155.719 113.507 155.495C112.948 155.271 112.221 155.271 111.606 155.495C110.656 155.853 109.65 157.287 110.823 157.914C111.382 158.227 112.053 158.048 112.612 157.869C113.059 157.735 113.451 157.6 113.898 157.824C114.457 158.138 114.625 158.72 114.625 159.213C114.625 159.303 114.681 159.706 114.513 159.706C114.457 159.706 114.177 159.482 114.122 159.437C113.842 159.258 113.563 159.034 113.227 158.855C112.668 158.541 112.053 158.317 111.327 158.407C110.712 158.496 110.097 158.765 109.929 159.258C109.761 159.75 109.985 160.602 110.488 160.96C111.103 161.363 111.886 161.094 112.556 160.96C112.836 160.87 113.171 160.781 113.451 160.915C113.674 161.049 113.842 161.363 113.73 161.587C113.563 162.08 112.724 162.08 112.277 161.856C111.83 161.632 111.382 162.214 111.83 162.438C113.004 163.02 114.792 162.438 114.513 161.184C114.401 160.691 113.954 160.288 113.339 160.198C112.892 160.109 112.445 160.243 111.997 160.378C111.83 160.422 111.55 160.557 111.327 160.512C110.935 160.512 110.768 160.243 110.656 159.974C110.32 158.899 111.774 158.944 112.556 159.392C113.115 159.706 113.786 160.467 114.513 160.422C115.295 160.378 115.351 159.661 115.351 159.168C115.351 158.496 115.128 157.779 114.457 157.332C113.786 156.884 113.059 156.928 112.277 157.152C111.886 157.287 111.103 157.556 111.047 156.973C110.991 156.57 111.438 156.122 111.886 155.988C112.389 155.809 112.948 155.898 113.339 156.167C113.674 156.391 113.786 156.704 114.01 156.973C114.345 157.376 114.96 157.645 115.575 157.421C116.972 156.839 116.134 154.868 115.016 154.375C114.681 154.196 114.233 154.196 113.842 154.241C113.395 154.286 112.724 154.554 112.277 154.375C111.83 154.196 111.886 153.793 112.277 153.614C112.5 153.479 112.892 153.479 113.171 153.479C113.73 153.569 114.122 153.793 114.513 154.151C114.904 154.51 115.799 154.957 116.078 154.286C116.302 153.793 116.302 153.031 115.91 152.583C115.351 151.911 114.345 152.225 113.563 152.001C112.78 151.777 112.668 150.657 111.606 151.105C111.774 151.15 111.997 151.195 112.165 151.24C111.941 151.016 113.283 151.105 113.283 151.15C113.618 151.195 114.122 151.419 113.786 151.732C114.066 151.777 114.289 151.867 114.569 151.911C114.625 151.643 115.351 151.284 115.575 151.419C116.134 151.687 114.792 151.732 114.513 151.732C114.066 151.643 114.066 152.315 114.625 152.359Z" fill="#045C45"/>
<path d="M93.9417 154.196C94.7802 153.927 95.5628 153.614 96.2336 153.121C96.569 152.897 96.7926 152.628 96.7367 152.315C96.6808 152.001 96.5131 151.732 96.1777 151.553C95.5069 151.15 94.5566 151.419 94.0535 151.912C93.4945 152.449 93.2709 153.255 92.9914 153.927C92.8796 154.196 92.7678 154.689 92.4324 154.823C92.097 154.958 91.6498 154.868 91.3144 154.823C91.4262 154.913 91.538 155.047 91.6498 155.137C91.6498 154.734 91.8175 153.883 92.5442 154.062C93.0473 154.196 93.2709 153.524 92.7678 153.435C92.2088 153.3 91.6498 153.479 91.3144 153.838C90.9231 154.196 90.8672 154.689 90.8672 155.137C90.8672 155.271 90.979 155.45 91.2026 155.45C91.8734 155.54 92.6001 155.63 93.1591 155.271C93.4386 155.092 93.5504 154.823 93.7181 154.554C93.8299 154.241 93.9976 153.927 94.1094 153.614C94.333 153.121 94.5007 152.404 95.1156 152.091C95.3392 152.001 95.6746 151.912 95.8982 152.046C96.0659 152.136 96.1218 152.315 96.01 152.449C95.7864 152.673 95.3392 152.852 95.0038 153.031C94.6125 153.211 94.2771 153.345 93.8299 153.479C93.6063 153.524 93.4945 153.703 93.5504 153.883C93.4945 154.107 93.7181 154.241 93.9417 154.196Z" fill="#045C45"/>
<path d="M96.5687 152.987C96.9041 152.897 97.1836 152.852 97.519 152.763C97.6867 152.718 97.8544 152.673 98.0221 152.628C98.078 152.628 98.078 152.628 98.1339 152.584C98.1898 152.584 98.1898 152.584 98.1339 152.584C98.078 152.584 98.078 152.584 98.0221 152.584C98.0221 152.584 98.0221 152.584 98.0221 152.628C98.078 152.718 98.1339 152.808 98.1898 152.897C98.2457 152.987 98.2457 153.076 98.3016 153.166C98.3575 153.345 98.3575 153.524 98.3575 153.748C98.3575 153.927 98.3016 154.107 98.1898 154.286C98.1339 154.42 98.0221 154.644 97.7985 154.644C97.519 154.689 97.2395 154.644 97.0159 154.599C96.7364 154.555 96.4569 154.51 96.1774 154.375C95.9538 154.286 95.7302 154.331 95.6184 154.51C95.5066 154.644 95.5625 154.913 95.7861 154.958C96.3451 155.182 96.96 155.271 97.5749 155.316C97.9103 155.316 98.2457 155.271 98.5252 155.092C98.7488 154.958 98.8606 154.734 98.9724 154.555C99.196 154.151 99.2519 153.703 99.196 153.3C99.1401 153.076 99.0842 152.852 98.9724 152.673C98.8606 152.449 98.6929 152.18 98.4693 152.046C98.1339 151.912 97.7426 152.046 97.4072 152.136C97.0718 152.225 96.7364 152.315 96.3451 152.404C95.842 152.449 96.0656 153.076 96.5687 152.987Z" fill="#045C45"/>
<path d="M95.2273 154.599C95.2832 155.137 95.3391 155.675 95.395 156.212C95.395 156.391 95.395 156.615 95.3391 156.794C95.2832 156.974 95.2273 157.108 95.1155 157.198C94.836 157.466 94.277 157.466 93.9416 157.198C93.6062 156.929 93.3826 156.436 93.6062 156.122C93.718 155.898 94.0534 155.809 94.1652 155.585C94.3329 155.316 94.3329 154.958 93.9975 154.779C93.8298 154.689 93.6062 154.644 93.3826 154.779C93.2149 154.913 93.2149 155.137 93.3826 155.271C93.4385 155.316 93.3826 155.271 93.3826 155.227C93.3826 155.271 93.3826 155.271 93.3826 155.271C93.2708 155.361 93.159 155.451 93.0472 155.54C92.7677 155.764 92.6559 156.033 92.6559 156.302C92.6 156.884 92.8795 157.466 93.4944 157.825C94.0534 158.183 94.8919 158.228 95.4509 157.869C95.954 157.556 96.1217 157.063 96.1776 156.57C96.1776 156.302 96.1776 156.033 96.1776 155.764C96.1217 155.406 96.1217 155.003 96.0658 154.644C96.0658 154.465 95.8981 154.286 95.6186 154.286C95.395 154.286 95.1714 154.42 95.2273 154.599Z" fill="#045C45"/>
<path d="M99.5316 161.184C97.0161 161.408 94.3329 161.677 92.3764 163.11C91.9851 163.379 92.544 163.872 92.9912 163.603C94.78 162.349 97.2956 162.08 99.5316 161.901C100.091 161.811 100.091 161.139 99.5316 161.184Z" fill="#045C45"/>
<path d="M92.3764 163.648C92.4323 163.379 92.4882 163.065 92.5441 162.797C92.6 162.528 92.7677 162.214 92.6559 161.99C92.5441 161.766 92.2646 161.677 92.041 161.632C91.7056 161.542 91.3701 161.453 91.0347 161.408C90.4757 161.318 89.7491 161.139 89.4137 161.632C89.1342 162.035 89.1901 162.483 89.4137 162.886C89.9168 163.782 91.2025 164.006 92.3205 163.916C92.9913 163.872 93.6621 163.737 94.3329 163.737C94.5565 163.737 94.9478 163.737 95.1155 163.872C95.2273 164.006 95.1714 164.185 95.1155 164.275C94.836 164.633 94.0534 164.588 93.6062 164.454C93.0472 164.32 92.6 163.961 92.3764 163.513C92.1528 163.11 91.426 163.245 91.5937 163.693C91.7614 164.23 91.7614 164.768 91.5937 165.305C91.5378 165.395 91.5379 165.529 91.3702 165.574C91.2584 165.619 91.0907 165.619 90.923 165.663C90.6435 165.708 90.3081 165.708 90.0286 165.574C89.8609 165.484 89.6932 165.305 89.6932 165.171C89.6932 164.992 89.8609 164.857 90.0286 164.768C90.5876 164.454 91.2583 164.275 91.8732 164.006C92.3763 163.827 91.9292 163.245 91.4261 163.424C90.923 163.603 90.4199 163.827 89.9727 164.006C89.6373 164.14 89.3018 164.32 89.0782 164.544C88.5751 165.126 88.9665 165.887 89.6932 166.156C90.0845 166.335 90.5317 166.335 90.9789 166.335C91.4261 166.291 91.9291 166.201 92.1527 165.843C92.6558 165.171 92.6 164.23 92.3764 163.513C92.0969 163.558 91.8173 163.648 91.5937 163.693C91.985 164.499 92.8795 165.081 93.9975 165.171C95.0037 165.26 96.2893 164.768 96.0657 163.782C95.7862 162.662 93.8298 163.021 92.8795 163.11C91.9292 163.2 90.364 163.289 90.0845 162.304C90.0845 162.214 90.0286 162.125 90.0845 162.035C90.0845 161.901 90.1404 161.901 90.2522 161.856C90.4199 161.856 90.6435 161.901 90.8112 161.946C90.9789 161.99 91.2025 162.035 91.3702 162.08C91.5379 162.125 91.7056 162.169 91.9292 162.214C92.1528 162.259 91.9292 162.169 91.9292 162.169L91.8732 162.438C91.8173 162.752 91.7615 163.065 91.6497 163.379C91.482 163.872 92.3205 164.051 92.3764 163.648Z" fill="#045C45"/>
<path d="M100.65 161.856C101.376 159.571 103.053 157.556 105.289 156.033C105.681 155.764 105.122 155.271 104.674 155.54C102.327 157.108 100.594 159.303 99.811 161.677C99.6992 162.08 100.538 162.259 100.65 161.856Z" fill="#045C45"/>
<path d="M105.233 155.45C104.842 155.181 104.451 154.868 104.227 154.509C104.115 154.33 104.004 154.151 103.892 153.972C103.892 153.927 103.836 153.882 103.836 153.838C103.78 153.882 103.724 153.882 103.724 153.927L104.115 153.882C104.395 153.882 104.674 153.882 104.954 153.927C105.177 153.972 105.289 153.972 105.289 154.151C105.345 154.689 105.401 155.181 105.457 155.719C105.457 155.898 105.736 156.122 105.96 156.032C106.407 155.898 106.966 155.764 107.358 156.077C107.469 156.167 107.581 156.346 107.637 156.48C107.693 156.57 107.749 156.66 107.805 156.749C107.805 156.794 107.805 156.794 107.861 156.839C107.861 156.973 107.917 156.973 107.972 156.839C107.972 156.839 107.693 156.884 107.693 156.928C107.581 156.928 107.469 156.928 107.302 156.928C107.078 156.884 106.854 156.839 106.631 156.749C106.184 156.525 105.792 156.212 105.457 155.898C105.233 155.674 104.73 155.853 104.73 156.122C104.73 156.66 104.786 157.197 104.786 157.735C104.786 158.003 104.842 158.272 104.842 158.541C104.842 158.72 104.786 158.81 104.563 158.765C104.059 158.72 104.115 158.048 104.171 157.779C104.283 157.332 104.507 156.884 104.898 156.57C105.233 156.256 104.674 155.764 104.283 156.077C103.724 156.615 103.333 157.197 103.277 157.914C103.221 158.496 103.445 159.213 104.227 159.392C105.01 159.571 105.625 159.123 105.625 158.496C105.625 157.69 105.569 156.884 105.513 156.077C105.289 156.167 105.01 156.256 104.786 156.301C105.345 156.749 105.904 157.242 106.631 157.466C107.19 157.645 108.364 157.69 108.643 157.108C108.755 156.839 108.587 156.525 108.42 156.301C108.308 156.032 108.14 155.809 107.861 155.585C107.246 155.137 106.407 155.137 105.681 155.405C105.848 155.495 106.016 155.629 106.184 155.719C106.128 155.316 106.128 154.957 106.072 154.554C106.072 154.241 106.072 153.882 105.848 153.614C105.681 153.39 105.289 153.3 105.01 153.255C104.563 153.21 104.171 153.166 103.724 153.21C101.768 153.345 103.892 155.45 104.563 155.898C105.066 156.212 105.681 155.764 105.233 155.45Z" fill="#045C45"/>
<path d="M100.258 160.96C99.8668 160.378 99.5873 159.706 99.4755 159.079C99.4196 158.765 99.4196 158.452 99.5314 158.183C99.5873 158.004 99.6991 157.601 99.9786 157.511C100.09 157.466 100.09 157.646 100.09 157.735C100.146 157.914 100.146 158.049 100.202 158.228C100.258 158.541 100.314 158.9 100.37 159.258C100.426 159.975 100.37 160.647 100.09 161.319C99.9227 161.722 100.705 161.901 100.873 161.498C101.152 160.826 101.264 160.154 101.208 159.437C101.208 159.079 101.152 158.765 101.097 158.407C101.041 158.093 100.985 157.735 100.929 157.422C100.817 157.108 100.538 156.884 100.09 156.884C99.6991 156.884 99.3637 157.063 99.1401 157.332C98.6929 157.87 98.637 158.586 98.7488 159.169C98.8606 159.93 99.196 160.647 99.6432 161.319C99.8109 161.677 100.538 161.319 100.258 160.96Z" fill="#045C45"/>
<path d="M99.5319 161.632C99.4201 161.677 99.3083 161.677 99.1965 161.632C99.0288 161.632 98.8611 161.587 98.6934 161.542C98.3021 161.497 97.9108 161.542 97.5754 161.766C97.2959 161.945 97.0723 162.214 96.8487 162.483C96.6251 162.707 96.4574 162.976 96.3456 163.289C96.122 163.782 96.1779 164.723 97.0723 164.812C97.8549 164.902 98.2462 164.096 98.6375 163.692C99.0847 163.2 99.6437 162.752 100.259 162.393C100.426 162.304 100.538 162.08 100.426 161.945C100.315 161.811 100.035 161.721 99.8673 161.811C99.3642 162.125 98.8611 162.438 98.4698 162.841C98.2462 163.02 98.0785 163.244 97.8549 163.468C97.6872 163.648 97.5754 163.872 97.4077 164.051C97.3518 164.095 97.2959 164.14 97.2959 164.14C97.24 164.14 97.24 164.185 97.24 164.185L97.1841 164.14C97.0723 163.961 97.0723 163.782 97.1841 163.603C97.3518 163.155 97.7431 162.752 98.1344 162.393C98.358 162.214 98.4698 162.214 98.7493 162.259C99.0847 162.304 99.476 162.393 99.8114 162.259C100.035 162.214 100.147 162.035 100.091 161.856C99.9791 161.677 99.7555 161.542 99.5319 161.632Z" fill="#045C45"/>
<path d="M102.886 167.276C102.606 166.335 102.886 165.305 103.613 164.544C103.892 164.23 104.395 163.782 104.954 163.693C105.178 163.648 105.29 163.782 105.29 163.961C105.234 164.23 104.954 164.409 104.731 164.544C104.06 164.992 103.277 165.439 102.495 165.798C102.047 166.022 102.439 166.604 102.942 166.38C103.78 165.977 104.619 165.529 105.401 164.992C105.737 164.768 106.072 164.454 106.128 164.096C106.184 163.737 106.072 163.334 105.625 163.155C104.898 162.797 104.004 163.289 103.445 163.693C102.886 164.14 102.439 164.678 102.215 165.305C101.936 166.022 101.88 166.739 102.103 167.455C102.215 167.858 102.998 167.679 102.886 167.276Z" fill="#045C45"/>
<path d="M103.557 170.053C103.221 168.351 100.985 167.724 99.1404 167.59C97.2957 167.455 95.2274 167.411 93.8299 168.486C93.4386 168.799 94.0535 169.247 94.4448 168.978C95.6187 168.082 97.3516 168.127 98.8609 168.262C100.426 168.351 102.494 168.754 102.83 170.233C102.83 170.636 103.668 170.457 103.557 170.053Z" fill="#045C45"/>
<path d="M93.3267 168.978C93.4385 169.292 93.6621 169.516 93.9416 169.74C94.1093 169.874 94.3888 170.053 94.4447 170.277C94.5006 170.501 94.1093 170.68 93.9416 170.456C93.8298 170.322 93.8857 170.098 93.9416 169.964C93.9975 169.74 94.0534 169.56 94.1093 169.336C94.1652 168.978 93.5503 168.933 93.3267 169.157C92.9913 169.56 92.1528 169.874 91.7615 169.336C91.5938 169.157 91.6497 168.978 91.9292 168.844C92.2087 168.709 92.3764 168.933 92.6 169.023C92.9913 169.157 93.4385 169.068 93.6062 168.709C93.7739 168.396 93.8857 168.037 94.0534 167.724C94.2211 167.455 94.3888 167.052 94.7242 166.828C94.9478 166.694 95.3391 166.783 95.3391 167.007C95.3391 167.142 95.2273 167.276 95.1155 167.365C94.9478 167.545 94.7242 167.679 94.5565 167.858C94.1652 168.217 93.7739 168.53 93.4385 168.888C93.6621 168.933 93.8857 168.978 94.1652 169.023C94.1652 169.068 94.1093 169.112 94.1093 169.157C94.6124 168.978 94.1652 168.396 93.6621 168.575C93.3826 168.709 93.2708 168.933 93.3267 169.202C93.3826 169.426 93.8298 169.56 94.0534 169.336C94.5006 168.933 94.9478 168.53 95.395 168.127C95.7863 167.769 96.2335 167.41 96.1776 166.918C96.1217 166.47 95.7304 166.111 95.1714 166.022C94.5565 165.932 94.1093 166.201 93.7739 166.604C93.4385 167.007 93.2149 167.455 92.9913 167.903C92.9354 167.993 92.8795 168.127 92.8236 168.217C92.7677 168.306 92.7118 168.351 92.8795 168.306C92.9913 168.261 92.9913 168.261 92.8795 168.217C92.6559 168.127 92.4882 167.993 92.2087 167.993C91.1466 167.903 90.4758 168.888 91.0348 169.56C91.3702 169.964 91.9292 170.143 92.5441 170.098C93.159 170.053 93.718 169.74 94.0534 169.292C93.7739 169.247 93.5503 169.157 93.2708 169.112C93.2149 169.65 92.8236 170.188 93.3267 170.68C93.7739 171.083 94.5565 171.083 95.0037 170.68C95.395 170.322 95.3391 169.829 95.0037 169.426C94.7242 169.112 94.277 168.888 94.1093 168.53C93.9975 168.396 93.159 168.575 93.3267 168.978Z" fill="#045C45"/>
<path d="M100.929 168.216C100.426 168.082 99.8112 168.127 99.3081 168.306C99.0845 168.395 98.8609 168.53 98.6373 168.709C98.4137 168.888 98.1901 169.157 98.246 169.381C98.3019 169.515 98.4137 169.65 98.5814 169.739C98.6373 169.784 98.7491 169.784 98.805 169.784C98.8609 169.784 98.8609 169.784 98.9168 169.784H98.9727C98.9168 169.784 98.9168 169.784 98.9727 169.784L99.0286 169.829C99.0845 169.919 99.1404 169.963 99.1404 170.008C99.2522 170.187 99.364 170.322 99.5876 170.411C99.923 170.546 100.258 170.456 100.538 170.277C101.209 169.874 101.824 169.515 102.494 169.112C102.662 169.023 102.774 168.843 102.662 168.664C102.55 168.53 102.271 168.44 102.103 168.53C101.712 168.754 101.32 168.978 100.929 169.202C100.761 169.336 100.538 169.426 100.37 169.56C100.258 169.65 100.035 169.739 99.9789 169.784C99.9789 169.829 100.035 169.784 99.9789 169.784C99.923 169.739 100.035 169.874 99.9789 169.784L99.923 169.739C99.8671 169.65 99.8112 169.56 99.7553 169.471C99.6435 169.381 99.5317 169.247 99.4199 169.202C99.3081 169.157 99.2522 169.157 99.1404 169.112C99.0845 169.112 99.0286 169.112 98.9727 169.112C98.8609 169.112 98.9727 169.112 99.0286 169.157C99.0845 169.202 99.0845 169.247 99.1404 169.291C99.0845 169.381 99.1404 169.336 99.1404 169.291C99.1404 169.247 99.1963 169.247 99.1963 169.202C99.1963 169.202 99.3081 169.112 99.364 169.067C99.4758 168.978 99.6435 168.933 99.7553 168.888C100.091 168.754 100.37 168.754 100.706 168.843C100.929 168.888 101.153 168.754 101.209 168.619C101.32 168.44 101.153 168.306 100.929 168.216Z" fill="#045C45"/>
<path d="M104.675 173.01C105.122 172.562 105.513 172.114 106.072 171.8C106.575 171.532 107.19 171.308 107.805 171.397C107.693 171.308 107.637 171.263 107.525 171.173C107.581 171.397 107.525 171.576 107.358 171.755C107.19 171.979 106.966 172.114 106.687 172.248C106.016 172.517 105.178 172.562 104.451 172.696C103.948 172.786 104.171 173.458 104.675 173.323C105.569 173.144 106.519 173.099 107.302 172.696C108.029 172.338 108.588 171.621 108.364 170.949C108.308 170.86 108.196 170.725 108.084 170.725C107.302 170.636 106.463 170.815 105.793 171.173C105.122 171.532 104.619 172.024 104.116 172.517C103.948 172.651 103.948 172.875 104.116 173.01C104.227 173.144 104.563 173.144 104.675 173.01Z" fill="#045C45"/>
<path d="M123.066 162.214C122.059 161.274 121.109 160.288 120.215 159.258C119.823 158.81 119.32 158.317 119.208 157.735C119.097 157.063 119.6 156.749 120.271 156.481C120.606 156.346 120.941 156.212 121.333 156.346C121.612 156.436 121.836 156.66 122.003 156.884C122.339 157.421 122.283 158.048 122.339 158.631C122.451 159.93 122.562 161.229 122.618 162.573C122.674 163.021 123.513 163.021 123.457 162.573C123.345 161.318 123.289 160.019 123.177 158.765C123.121 157.78 123.121 156.525 121.948 155.898C121.389 155.63 120.83 155.63 120.215 155.809C119.656 155.988 119.097 156.212 118.705 156.615C117.867 157.556 118.649 158.676 119.32 159.482C120.271 160.602 121.333 161.722 122.451 162.752C122.786 163.021 123.401 162.573 123.066 162.214Z" fill="#045C45"/>
<path d="M122.171 166.335C122.954 165.977 123.345 165.305 124.072 164.947C124.91 164.544 125.916 164.633 126.867 164.678C127.314 164.678 127.761 164.723 128.208 164.678C128.711 164.678 129.27 164.633 129.773 164.768C130.221 164.902 130.612 165.126 130.891 165.395C131.171 165.619 131.73 166.022 131.786 166.38C131.786 166.291 131.842 166.201 131.842 166.111C131.674 166.38 131.115 166.604 130.78 166.739C130.332 166.918 129.829 166.963 129.326 166.918C128.432 166.783 127.593 166.47 126.699 166.246C125.078 165.753 123.289 165.036 121.556 165.395C121.053 165.484 121.277 166.156 121.78 166.022C122.786 165.798 123.736 166.067 124.686 166.335C125.581 166.604 126.475 166.873 127.37 167.097C128.208 167.321 129.047 167.634 129.941 167.59C130.724 167.545 131.394 167.231 132.009 166.828C132.233 166.649 132.568 166.515 132.568 166.246C132.568 165.977 132.289 165.708 132.065 165.484C131.618 165.036 131.115 164.588 130.5 164.275C129.829 163.961 129.103 163.916 128.32 163.961C127.481 164.006 126.699 163.917 125.86 163.917C125.078 163.917 124.183 163.961 123.513 164.32C122.786 164.678 122.395 165.35 121.668 165.663C121.277 165.977 121.724 166.559 122.171 166.335Z" fill="#045C45"/>
<path d="M118.482 172.114C118.482 171.576 118.482 171.083 118.482 170.546C118.482 170.053 118.538 169.56 118.482 169.068C118.426 168.575 117.923 168.351 117.42 168.172C116.916 167.993 116.413 167.903 115.91 167.858C114.904 167.813 113.786 167.992 113.003 168.575C112.612 168.888 112.444 169.292 112.612 169.695C112.78 170.053 113.227 170.367 113.674 170.501C114.345 170.68 115.016 170.546 115.687 170.591C116.078 170.635 116.581 170.725 116.693 171.083C116.861 171.486 117.643 171.307 117.475 170.904C117.196 170.232 116.302 169.963 115.519 169.919C115.016 169.919 114.457 169.963 113.954 169.874C113.674 169.829 113.227 169.605 113.283 169.292C113.339 169.023 113.842 168.844 114.121 168.754C114.513 168.62 114.904 168.53 115.351 168.53C115.798 168.53 116.19 168.575 116.581 168.664C116.749 168.709 116.972 168.754 117.14 168.844C117.308 168.933 117.531 168.978 117.587 169.157C117.643 169.381 117.587 169.605 117.587 169.829C117.587 170.098 117.587 170.322 117.587 170.591C117.587 171.083 117.587 171.621 117.587 172.114C117.643 172.562 118.482 172.562 118.482 172.114Z" fill="#045C45"/>
<path d="M125.413 161.049C125.637 161.094 125.86 161.094 126.14 161.139C126.196 161.139 126.252 161.139 126.308 161.139C126.364 161.139 126.42 161.139 126.475 161.094C126.587 161.049 126.643 160.96 126.643 160.915C126.643 160.826 126.643 160.736 126.587 160.646C126.531 160.557 126.419 160.512 126.364 160.512C126.14 160.467 125.916 160.467 125.637 160.422C125.581 160.422 125.525 160.422 125.469 160.422C125.413 160.422 125.357 160.422 125.301 160.467C125.19 160.512 125.134 160.602 125.134 160.646C125.134 160.736 125.134 160.826 125.19 160.915C125.246 160.96 125.301 161.049 125.413 161.049Z" fill="#045C45"/>
<path d="M121.612 163.603C121.612 163.603 121.668 163.603 121.724 163.603C121.612 163.603 121.444 163.603 121.333 163.603C121.389 163.603 121.389 163.603 121.444 163.603C121.333 163.603 121.165 163.558 121.053 163.513C121.109 163.513 121.109 163.558 121.165 163.558C121.165 163.558 121.165 163.558 121.109 163.558C121.053 163.513 120.997 163.513 120.941 163.513C120.885 163.513 120.83 163.513 120.774 163.513C120.662 163.513 120.55 163.603 120.55 163.648C120.494 163.737 120.494 163.827 120.494 163.917C120.55 164.006 120.606 164.096 120.662 164.096C120.83 164.141 120.997 164.185 121.165 164.23C121.277 164.23 121.389 164.275 121.5 164.275C121.612 164.275 121.724 164.275 121.836 164.23C121.948 164.23 122.059 164.141 122.059 164.096C122.115 164.006 122.115 163.917 122.115 163.827C122.059 163.737 122.003 163.648 121.948 163.648C121.892 163.648 121.892 163.603 121.836 163.603C121.78 163.603 121.724 163.603 121.612 163.603Z" fill="#045C45"/>
<path d="M119.824 166.962C119.712 166.918 119.6 166.828 119.488 166.783C119.432 166.739 119.376 166.739 119.32 166.739C119.265 166.739 119.209 166.739 119.153 166.739C119.097 166.739 119.041 166.783 118.985 166.783C118.929 166.828 118.929 166.828 118.873 166.873C118.873 166.918 118.817 166.918 118.817 166.962C118.817 167.007 118.817 167.097 118.817 167.142C118.817 167.186 118.873 167.186 118.873 167.231C118.929 167.276 118.985 167.321 119.041 167.366C119.153 167.41 119.265 167.5 119.376 167.545C119.432 167.59 119.488 167.59 119.544 167.59C119.6 167.59 119.656 167.59 119.712 167.59C119.768 167.59 119.824 167.545 119.879 167.545C119.935 167.5 119.935 167.5 119.991 167.455C119.991 167.41 120.047 167.41 120.047 167.366C120.047 167.321 120.047 167.231 120.047 167.186C120.047 167.142 119.991 167.142 119.991 167.097C119.935 167.052 119.879 167.007 119.824 166.962Z" fill="#045C45"/>
<path d="M125.973 158.586C125.917 158.541 125.805 158.452 125.749 158.407C125.693 158.362 125.693 158.362 125.637 158.317C125.581 158.317 125.525 158.272 125.469 158.272C125.414 158.272 125.358 158.272 125.302 158.317C125.246 158.317 125.19 158.362 125.19 158.407C125.19 158.452 125.134 158.452 125.134 158.496C125.078 158.541 125.078 158.586 125.078 158.676C125.078 158.72 125.078 158.72 125.078 158.765C125.078 158.81 125.134 158.855 125.19 158.9C125.246 158.944 125.358 159.034 125.414 159.079C125.469 159.124 125.469 159.124 125.525 159.168C125.581 159.168 125.637 159.213 125.693 159.213C125.749 159.213 125.805 159.213 125.861 159.168C125.917 159.168 125.973 159.124 125.973 159.079C125.973 159.034 126.028 159.034 126.028 158.989C126.084 158.944 126.084 158.9 126.084 158.81C126.084 158.765 126.084 158.765 126.084 158.72C126.028 158.676 126.028 158.631 125.973 158.586Z" fill="#045C45"/>
<path d="M118.985 171.128C119.041 171.128 119.041 171.128 119.097 171.128C119.041 171.128 118.985 171.128 118.985 171.128C119.097 171.128 119.209 171.128 119.32 171.128C119.265 171.128 119.265 171.128 119.209 171.128C119.32 171.128 119.432 171.173 119.544 171.218C119.488 171.218 119.488 171.173 119.432 171.173C119.544 171.218 119.6 171.263 119.712 171.308C119.824 171.352 119.935 171.352 120.047 171.352C120.159 171.352 120.271 171.263 120.271 171.218C120.327 171.128 120.327 171.039 120.327 170.949C120.271 170.86 120.215 170.815 120.159 170.77C119.768 170.546 119.265 170.501 118.761 170.546C118.65 170.546 118.538 170.636 118.538 170.681C118.482 170.77 118.482 170.86 118.482 170.949C118.538 171.039 118.594 171.128 118.65 171.128C118.761 171.128 118.873 171.128 118.985 171.128Z" fill="#045C45"/>
<path d="M116.134 176.817C116.134 176.817 116.078 176.817 116.022 176.817C116.246 176.773 116.469 176.773 116.693 176.817C116.637 176.817 116.637 176.817 116.581 176.817C116.749 176.817 116.917 176.862 117.028 176.907C117.252 176.952 117.476 176.862 117.531 176.683C117.587 176.504 117.476 176.325 117.252 176.28C117.028 176.235 116.805 176.19 116.525 176.19C116.302 176.19 116.078 176.19 115.799 176.235C115.687 176.235 115.575 176.325 115.575 176.369C115.519 176.459 115.519 176.549 115.519 176.638C115.575 176.728 115.631 176.817 115.687 176.817C115.743 176.817 115.743 176.862 115.799 176.862C116.022 176.862 116.078 176.862 116.134 176.817Z" fill="#045C45"/>
<path d="M116.916 171.084C116.916 171.173 116.916 171.263 116.916 171.352C116.916 171.308 116.916 171.308 116.916 171.263C116.916 171.397 116.861 171.532 116.805 171.621C116.805 171.576 116.861 171.576 116.861 171.532C116.805 171.621 116.749 171.756 116.637 171.845C116.581 171.89 116.581 172.024 116.581 172.114C116.581 172.204 116.693 172.293 116.749 172.293C116.861 172.338 116.972 172.338 117.084 172.338C117.196 172.293 117.252 172.248 117.308 172.204C117.587 171.89 117.755 171.487 117.699 171.084C117.699 170.905 117.531 170.725 117.252 170.725C117.14 170.77 116.916 170.905 116.916 171.084Z" fill="#045C45"/>
<path d="M102.774 175.742C105.29 174.757 108.085 174.533 110.824 174.712C113.06 174.846 115.799 175.205 117.029 176.907C117.14 176.728 117.252 176.549 117.364 176.414C114.96 176.549 112.557 176.593 110.153 176.549C108.979 176.504 107.805 176.459 106.631 176.414C106.016 176.369 105.457 176.325 104.842 176.28C104.563 176.28 102.83 176.235 102.942 175.877C102.83 175.966 102.774 176.011 102.662 176.101C102.83 176.056 103.054 176.011 103.221 176.011C103.724 175.921 103.501 175.25 102.998 175.384C102.55 175.473 102.103 175.518 102.047 175.966C102.047 176.325 102.383 176.638 102.774 176.773C103.389 176.952 104.172 176.952 104.786 176.996C105.625 177.086 106.519 177.131 107.358 177.176C110.656 177.355 114.01 177.355 117.308 177.131C117.643 177.131 117.811 176.862 117.643 176.638C116.358 174.846 113.619 174.354 111.215 174.13C108.14 173.861 105.066 174.13 102.271 175.205C101.88 175.339 102.271 175.921 102.774 175.742Z" fill="#045C45"/>
<path d="M116.693 176.549C115.463 178.609 114.289 180.714 113.227 182.865C113.003 183.268 113.842 183.447 114.01 183.044C115.072 180.983 116.19 178.923 117.42 176.907C117.643 176.504 116.917 176.145 116.693 176.549Z" fill="#045C45"/>
<path d="M101.991 175.921C101.879 178.564 102.774 181.162 104.619 183.402C104.898 183.76 105.625 183.447 105.345 183.044C103.612 180.938 102.718 178.43 102.83 175.921C102.83 175.473 101.991 175.518 101.991 175.921Z" fill="#045C45"/>
<path d="M113.283 183.223C113.395 183.715 113.842 184.119 114.289 184.477C114.513 184.656 114.737 184.79 114.904 185.014C114.904 185.059 114.96 185.059 114.96 185.104C115.016 185.149 115.016 185.194 115.072 185.238C115.072 185.283 115.072 185.283 115.128 185.328C115.128 185.373 115.184 185.462 115.184 185.507C115.24 185.686 115.519 185.776 115.687 185.731C115.911 185.686 116.022 185.507 115.966 185.328C115.855 184.835 115.407 184.432 114.96 184.074C114.737 183.895 114.513 183.76 114.345 183.536C114.345 183.491 114.289 183.491 114.289 183.447C114.234 183.402 114.234 183.357 114.178 183.312C114.178 183.267 114.178 183.267 114.122 183.223C114.122 183.178 114.066 183.088 114.066 183.043C114.01 182.864 113.73 182.775 113.563 182.82C113.339 182.864 113.227 183.044 113.283 183.223Z" fill="#045C45"/>
<path d="M104.395 182.999C103.221 183.626 102.215 184.432 101.488 185.373C101.376 185.507 101.432 185.731 101.656 185.821C101.879 185.911 102.103 185.866 102.215 185.687C102.886 184.836 103.78 184.074 104.842 183.537C105.01 183.447 105.122 183.223 105.01 183.089C104.842 182.954 104.563 182.909 104.395 182.999Z" fill="#045C45"/>
<path d="M101.265 185.597C102.551 189.584 104.227 193.526 105.904 197.423C106.072 197.826 106.911 197.647 106.687 197.244C105.01 193.347 103.333 189.405 102.047 185.418C101.936 185.015 101.153 185.194 101.265 185.597Z" fill="#045C45"/>
<path d="M115.351 185.418C114.457 189.494 113.059 193.481 111.27 197.378C111.103 197.781 111.885 197.96 112.053 197.557C113.842 193.66 115.183 189.673 116.134 185.597C116.246 185.194 115.407 185.015 115.351 185.418Z" fill="#045C45"/>
<path d="M106.519 197.915C107.302 198.318 108.252 198.542 109.202 198.542C109.705 198.542 110.153 198.498 110.656 198.408C111.047 198.318 111.494 198.184 111.83 197.915C112.109 197.647 112.165 197.243 111.885 196.93C111.606 196.661 111.159 196.616 110.767 196.527C110.208 196.437 109.649 196.347 109.09 196.258C108.587 196.168 108.028 196.034 107.525 196.079C107.022 196.124 106.519 196.347 106.351 196.751C106.24 196.975 106.295 197.199 106.519 197.333C106.743 197.467 107.022 197.423 107.19 197.199C107.302 197.064 107.246 196.885 107.134 196.795C106.799 196.482 106.184 196.93 106.519 197.288C106.519 197.154 106.463 197.019 106.463 196.885C106.575 196.84 106.687 196.795 106.799 196.706C106.854 196.706 106.91 196.751 106.966 196.751C107.022 196.795 107.022 196.84 107.078 196.885C107.078 196.975 107.078 196.885 107.134 196.84C107.19 196.795 107.246 196.751 107.358 196.706C107.525 196.661 107.693 196.661 107.861 196.661C108.308 196.706 108.755 196.795 109.258 196.84C109.761 196.93 110.208 196.975 110.712 197.064C110.823 197.064 111.271 197.109 111.326 197.243C111.326 197.333 111.103 197.423 111.047 197.423C110.879 197.467 110.712 197.512 110.544 197.557C110.153 197.647 109.761 197.691 109.37 197.691C108.587 197.691 107.805 197.512 107.078 197.154C106.463 197.109 106.072 197.691 106.519 197.915Z" fill="#045C45"/>
<path d="M108.588 184.253C109.147 187.657 109.706 191.062 109.203 194.511C109.091 195.228 110.488 195.228 110.6 194.511C111.103 190.972 110.544 187.478 109.929 183.984C109.817 183.223 108.476 183.536 108.588 184.253Z" fill="#045C45"/>
<path d="M104.06 175.339C105.066 176.325 105.29 177.624 105.513 178.833C105.793 180.222 106.296 181.521 106.799 182.865C107.358 184.298 107.526 185.732 107.693 187.21C107.861 188.822 108.085 190.435 108.252 192.048C108.364 192.764 109.762 192.764 109.65 192.048C109.426 190.39 109.258 188.688 109.035 187.031C108.867 185.463 108.644 183.895 108.029 182.417C107.749 181.7 107.414 180.983 107.19 180.222C106.967 179.55 106.855 178.833 106.743 178.161C106.463 176.862 106.072 175.653 105.01 174.623C104.451 173.996 103.501 174.757 104.06 175.339Z" fill="#045C45"/>
<path d="M114.513 179.46C113.227 179.684 112.333 180.49 111.606 181.386C110.656 182.595 109.873 183.85 109.035 185.104C107.358 187.657 105.737 190.255 104.171 192.853C103.78 193.48 104.954 194.063 105.401 193.436C106.855 191.017 108.364 188.598 109.929 186.224C110.712 185.059 111.494 183.894 112.277 182.73C112.892 181.879 113.563 180.759 114.904 180.535C115.799 180.401 115.407 179.325 114.513 179.46Z" fill="#045C45"/>
</svg>
