<svg width="621" height="527" viewBox="0 0 621 527" fill="none" xmlns="http://www.w3.org/2000/svg">
<path d="M43.3951 309.122C55.861 297.76 72.8147 291.378 90.1008 291.222C92.7602 291.222 92.7602 287.331 90.1008 287.331C71.6512 287.487 53.7003 294.491 40.4033 306.476C38.575 308.033 41.4006 310.834 43.3951 309.122Z" fill="#045C45"/>
<path d="M38.2423 312.391C52.869 330.603 78.9643 331.536 101.071 333.871C103.73 334.183 103.73 330.291 101.071 329.98C80.7927 327.801 55.196 327.178 41.7328 310.368C40.2369 308.5 36.7464 310.368 38.2423 312.391Z" fill="#045C45"/>
<path d="M110.545 292.312C118.025 289.666 126.003 289.199 133.981 289.51C141.46 289.822 148.94 290.911 156.253 292.935C163.567 294.803 170.548 297.449 177.196 300.873C180.52 302.585 183.678 304.453 186.836 306.321C188.499 307.41 189.994 308.344 191.49 309.589C192.654 310.523 194.981 311.924 194.648 313.636C195.147 313.169 195.646 312.702 196.144 312.236C182.349 317.216 168.387 321.886 153.926 324.999C146.779 326.555 139.632 327.645 132.319 328.112C126.003 328.579 118.856 327.801 113.204 331.225C111.044 332.626 113.038 335.894 115.365 334.649C120.351 331.536 127 332.47 132.651 332.003C138.967 331.536 145.283 330.758 151.599 329.513C164.564 327.022 177.196 323.131 189.662 318.773C191.158 318.306 192.654 317.683 193.984 317.216C195.147 316.749 197.142 316.438 198.139 315.504C199.967 313.792 198.305 310.679 197.142 309.278C195.313 307.255 192.654 305.543 190.327 303.986C188 302.43 185.507 300.873 183.014 299.472C172.875 293.869 161.738 289.822 150.27 287.643C137.139 285.152 122.18 284.218 109.548 288.732C107.054 289.355 108.052 293.09 110.545 292.312Z" fill="#045C45"/>
<path d="M100.406 252.31C108.384 278.304 116.03 304.764 115.032 332.003C114.866 334.493 119.022 334.493 119.188 332.003C120.185 304.453 112.539 277.525 104.395 251.22C103.73 248.886 99.5747 249.819 100.406 252.31Z" fill="#045C45"/>
<path d="M81.4581 253.866C84.6161 266.941 87.9404 280.016 91.0984 292.935C94.2564 305.543 98.9104 318.773 97.2483 331.848C96.9159 334.338 101.071 334.338 101.404 331.848C103.066 318.617 98.4117 305.387 95.2537 292.624C91.9295 279.393 88.6052 266.007 85.281 252.777C84.9485 250.287 80.9595 251.376 81.4581 253.866Z" fill="#045C45"/>
<path d="M112.373 335.428C113.038 347.724 111.708 359.865 110.212 372.006C108.716 383.991 107.054 395.976 106.223 407.961C104.395 430.998 104.894 454.034 102.068 477.07C100.572 489.834 97.9127 502.597 93.2587 514.738C92.4277 517.072 96.4168 518.162 97.2478 515.827C105.392 494.192 107.387 471.155 108.384 448.43C108.883 436.757 109.215 425.083 110.046 413.409C110.877 401.113 112.207 388.816 113.869 376.675C115.697 362.978 117.526 349.281 116.695 335.584C116.362 332.937 112.207 332.937 112.373 335.428Z" fill="#045C45"/>
<path d="M95.2535 334.649C96.4169 346.79 96.4169 358.931 95.2535 371.072C94.5886 376.987 93.7576 383.057 93.4251 388.972C93.0927 395.042 93.2589 401.112 93.7576 407.338C94.7548 419.479 95.4197 431.464 94.09 443.605C92.7603 455.59 90.1009 467.42 86.7766 479.094C84.9483 485.32 83.6186 491.546 83.6186 497.927C83.6186 503.998 84.4497 510.535 81.7903 516.45C80.793 518.784 84.2835 520.652 85.4469 518.473C87.9401 513.337 87.9401 507.733 87.9401 502.13C87.7739 496.215 88.1063 490.767 89.6022 485.164C92.5941 473.334 95.9183 461.661 97.5804 449.676C99.2426 437.69 99.575 425.705 98.5777 413.564C98.0791 407.183 97.4142 400.801 97.4142 394.419C97.4142 388.349 98.2453 382.434 98.9101 376.52C100.572 362.667 100.905 348.814 99.4088 334.961C99.2426 332.315 95.0872 332.159 95.2535 334.649Z" fill="#045C45"/>
<path d="M196.144 319.084C200.632 358.931 205.119 398.778 209.607 438.624C210.937 449.987 212.1 461.349 213.43 472.712C213.762 475.202 217.918 475.202 217.585 472.712C213.098 432.709 208.61 392.707 204.122 352.705C202.792 341.498 201.629 330.291 200.299 319.084C199.967 316.75 195.811 316.594 196.144 319.084Z" fill="#045C45"/>
<path d="M182.515 324.376C185.174 346.167 192.155 367.18 194.649 388.971C195.313 394.575 195.48 400.178 195.48 405.781C195.313 411.385 195.147 416.833 195.48 422.436C196.311 433.799 199.136 445.005 201.463 456.057C203.125 463.995 205.12 475.824 215.757 476.758C218.417 476.914 218.417 473.023 215.757 472.867C211.935 472.556 209.608 468.976 208.278 466.018C206.616 461.971 205.951 457.769 205.12 453.566C202.959 442.982 200.134 432.242 199.469 421.346C198.804 410.762 199.967 400.178 198.804 389.594C197.64 379.321 195.48 369.048 193.319 358.93C190.659 347.412 188 335.894 186.67 324.22C186.338 321.886 182.183 321.886 182.515 324.376Z" fill="#045C45"/>
<path d="M118.689 354.572C129.992 353.016 141.294 351.459 152.597 349.903C162.902 348.502 173.706 347.568 183.346 343.521C185.839 342.432 183.678 339.163 181.185 340.097C171.711 344.144 160.741 344.766 150.602 346.167C139.632 347.724 128.496 349.28 117.526 350.681C114.867 351.148 116.03 354.884 118.689 354.572Z" fill="#045C45"/>
<path d="M34.0875 333.715C50.5425 347.257 71.6514 355.195 93.5914 355.817C96.2508 355.973 96.2508 352.082 93.5914 351.926C72.8149 351.303 52.537 343.832 37.0793 330.913C35.0847 329.201 32.0929 332.003 34.0875 333.715Z" fill="#045C45"/>
<path d="M28.768 241.57C31.7598 271.455 32.9233 301.495 32.0922 331.38C31.926 338.852 31.5936 346.323 30.4301 353.638C29.2666 361.11 27.7707 368.425 26.2748 375.741C23.4492 390.528 20.6236 405.315 17.798 420.101C16.1359 428.507 14.6399 436.912 12.9778 445.317C12.1467 449.208 11.4819 453.099 10.6508 456.991C9.986 460.415 8.98872 463.839 6.32932 466.33C4.50098 468.197 7.49281 470.844 9.32115 469.131C14.1413 464.462 14.64 457.769 15.8034 451.699C17.2994 444.072 18.7952 436.445 20.1249 428.818C22.9506 413.72 25.9424 398.777 28.768 383.679C31.5936 368.892 35.0841 354.105 35.7489 339.007C36.4138 323.754 36.4138 308.5 35.9151 293.246C35.4165 275.969 34.253 258.691 32.5909 241.414C32.7571 239.079 28.6018 239.079 28.768 241.57Z" fill="#045C45"/>
<path d="M12.4794 208.105C14.9725 226.316 17.6319 244.372 19.9589 262.583C22.2859 280.483 23.2832 298.383 23.1169 316.282C22.9507 325.155 22.9507 334.182 21.9535 343.054C20.9562 351.926 18.2968 360.487 15.6374 369.048C12.978 377.453 10.8172 385.858 9.15512 394.575C7.493 403.447 6.32951 412.319 4.99981 421.191C3.5039 430.997 1.84176 440.959 0.512058 450.765C-0.485216 457.146 -0.651423 465.085 5.99707 468.82C8.32404 470.065 10.3186 466.797 8.15784 465.396C2.3404 462.127 4.33496 453.411 4.99981 448.119C6.32951 439.558 7.6592 430.997 8.9889 422.436C11.6483 405.159 14.1415 388.037 19.2941 371.383C21.9535 362.978 24.4467 354.728 25.7764 346.012C26.9398 337.607 27.2723 329.201 27.2723 320.641C27.6047 302.896 26.9398 285.308 24.9453 267.564C22.6183 247.64 19.6265 227.717 16.9671 207.794C16.3022 205.77 12.1469 205.77 12.4794 208.105Z" fill="#045C45"/>
<path d="M33.5884 241.726C51.2069 244.995 68.9916 249.041 86.9426 250.442C94.5883 251.065 103.398 251.687 110.711 249.041C117.193 246.707 121.515 241.57 122.844 235.188C124.673 226.628 121.349 218.378 117.858 210.44C116.861 208.105 112.872 209.195 113.869 211.53C116.695 217.911 119.686 224.76 119.188 231.764C118.689 237.99 115.199 243.438 108.716 245.461C101.735 247.641 93.7573 247.018 86.6101 246.395C78.2995 245.773 69.9889 244.372 61.8445 242.815C52.869 241.103 43.8936 239.547 34.7519 237.835C32.0925 237.523 30.929 241.259 33.5884 241.726Z" fill="#045C45"/>
<path d="M17.9643 190.983C18.1305 195.964 21.2886 200.167 25.6101 202.969C30.7627 206.237 37.0788 207.015 43.0624 207.949C57.1904 209.973 71.1523 212.152 85.2803 213.708C93.2585 214.642 101.237 215.265 109.049 214.487C111.708 214.331 111.708 210.44 109.049 210.595C92.5937 211.996 75.8062 208.572 59.5174 206.237C51.7054 205.148 43.7273 204.525 36.0815 202.813C29.7654 201.412 22.2859 197.832 21.9534 190.828C21.9534 188.493 17.7981 188.493 17.9643 190.983Z" fill="#045C45"/>
<path d="M16.8008 201.724C17.9642 214.954 19.4602 228.807 29.4329 239.08C31.2612 240.948 34.0868 238.146 32.4247 236.278C23.283 226.939 22.1195 213.709 20.9561 201.724C20.7898 199.233 16.6345 199.233 16.8008 201.724Z" fill="#045C45"/>
<path d="M381.97 326.244C399.089 334.182 416.542 342.276 435.656 344.922C445.629 346.323 455.934 345.7 465.907 347.879C475.381 349.903 484.523 352.082 494.495 352.238C505.133 352.393 515.771 350.525 525.743 346.945C528.236 346.012 527.073 342.276 524.58 343.21C515.937 346.323 506.795 348.035 497.487 348.346C487.847 348.658 478.705 346.79 469.397 344.611C464.577 343.521 459.757 342.743 454.771 342.432C449.95 342.12 445.297 342.12 440.476 341.653C431.168 340.719 422.193 338.385 413.384 335.272C403.411 331.692 393.771 327.333 384.13 322.975C381.637 321.886 379.643 325.154 381.97 326.244Z" fill="#045C45"/>
<path d="M383.299 309.901C392.607 313.948 401.915 318.151 411.223 322.198C415.378 324.065 419.534 325.933 424.021 327.178C428.675 328.579 433.496 329.202 438.482 329.357C443.468 329.669 448.621 329.824 453.607 330.291C458.427 330.758 463.248 331.692 467.902 332.626C472.722 333.56 477.708 334.805 482.528 335.895C487.182 336.984 492.002 337.763 496.822 337.451C506.629 336.829 515.937 331.07 525.91 332.47C528.569 332.782 529.733 329.046 527.073 328.735C518.264 327.49 510.286 331.07 501.975 332.782C492.335 334.805 483.027 331.848 473.719 329.824C464.245 327.801 454.605 326.244 444.964 325.778C439.978 325.622 434.991 325.466 430.171 324.532C425.517 323.598 421.03 321.886 416.708 320.018C406.237 315.505 395.932 310.835 385.626 306.321C382.967 305.543 380.806 308.812 383.299 309.901Z" fill="#045C45"/>
<path d="M379.144 310.835C378.645 314.881 378.978 318.928 380.141 322.82C380.473 323.754 381.637 324.532 382.634 324.221C383.798 323.909 384.296 322.82 384.13 321.886C383.133 318.306 382.967 314.726 383.299 310.835C383.465 309.745 382.302 308.811 381.305 308.967C380.141 308.811 379.31 309.745 379.144 310.835Z" fill="#045C45"/>
<path d="M519.594 255.579C507.128 287.954 505.964 322.82 504.635 356.907C503.97 374.652 504.635 392.24 507.128 409.984C509.455 427.262 512.779 444.539 515.438 461.816C518.596 481.272 520.923 501.04 520.092 520.808C519.926 523.298 524.081 523.298 524.248 520.808C525.577 485.786 517.267 451.388 512.114 416.833C509.621 399.4 507.959 381.967 508.457 364.534C508.956 347.413 509.621 330.136 511.283 313.17C513.111 294.025 516.602 274.879 523.583 256.824C524.414 254.178 520.425 253.244 519.594 255.579Z" fill="#045C45"/>
<path d="M502.64 252.933C502.307 271.922 495.326 289.978 492.002 308.5C488.678 327.49 488.511 346.79 489.176 365.935C490.34 403.914 491.171 442.36 499.98 479.716C501.144 485.008 502.307 489.989 502.307 495.437C502.307 500.729 502.307 505.865 503.969 511.002C505.299 515.049 506.795 520.185 509.787 523.454C512.612 526.411 517.266 527.345 520.757 524.855C522.917 523.298 519.926 520.497 517.765 522.053C516.269 523.143 514.274 522.209 513.111 521.119C511.615 519.718 510.784 517.695 510.119 515.827C508.457 511.625 506.961 507.422 506.629 502.908C506.296 498.394 506.795 493.725 506.13 489.211C505.631 484.853 504.468 480.806 503.471 476.603C499.481 458.548 497.321 440.336 495.991 421.97C494.661 403.914 493.996 385.859 493.498 367.647C492.999 349.125 492.833 330.603 495.825 312.236C498.983 292.468 506.795 273.167 507.127 253.088C506.961 250.442 502.806 250.442 502.64 252.933Z" fill="#045C45"/>
<path d="M529.234 209.039C520.258 207.483 511.283 207.171 502.307 208.261C498.318 208.728 493.831 209.039 490.506 211.374C487.681 213.242 485.52 216.355 484.19 219.312C481.365 225.538 480.7 233.476 483.193 239.858C486.019 247.018 494.329 249.041 501.31 251.376C510.951 254.489 520.923 257.135 530.896 259.159C533.555 259.626 534.553 255.89 532.06 255.423C524.414 253.866 516.768 251.999 509.122 249.664C505.299 248.574 501.643 247.329 497.986 246.084C494.994 244.994 491.836 244.06 489.509 242.037C484.855 237.99 485.354 229.429 486.85 224.137C487.681 221.335 489.177 218.378 491.338 216.199C493.831 213.553 497.321 213.086 500.978 212.619C509.953 211.374 519.261 211.529 528.237 213.086C530.73 213.242 531.727 209.506 529.234 209.039Z" fill="#045C45"/>
<path d="M399.92 337.295C397.427 355.662 394.269 373.873 392.607 392.24C390.945 410.451 392.773 428.662 390.446 446.718C389.117 456.991 386.79 466.952 383.632 476.914C384.296 476.447 384.961 475.98 385.626 475.513C381.138 475.669 378.479 471.778 377.482 468.042C376.485 463.528 376.983 458.547 377.149 454.033C377.316 444.072 377.814 434.266 378.479 424.304C379.809 404.692 381.637 385.08 383.964 365.468C385.294 354.261 386.623 343.21 387.953 332.003C388.286 329.513 384.13 329.513 383.798 332.003C378.811 373.717 373.825 415.432 372.994 457.458C372.828 462.594 372.495 468.198 374.989 472.867C376.983 476.603 380.972 479.404 385.626 479.249C386.623 479.249 387.288 478.626 387.621 477.848C393.272 460.415 396.098 442.204 396.098 423.837C396.098 414.654 395.765 405.47 396.43 396.287C397.095 387.103 398.425 377.92 399.588 368.892C401.084 358.308 402.58 347.724 403.91 337.14C404.408 334.805 400.253 334.805 399.92 337.295Z" fill="#045C45"/>
<path d="M450.117 349.437C448.289 361.733 446.46 373.874 445.795 386.326C445.131 398.622 446.128 410.919 447.291 423.215C447.79 427.573 448.122 433.332 453.109 435.356C457.43 437.068 461.752 434.889 462.084 430.531C462.25 427.885 462.084 425.083 462.084 422.281C462.084 419.013 462.084 415.588 462.25 412.32C462.417 406.249 462.749 400.023 463.082 393.953C464.079 379.944 465.907 365.78 468.4 351.927C468.899 349.437 464.91 348.503 464.411 350.837C460.422 372.94 458.261 395.198 457.929 417.612C457.929 420.102 457.929 422.748 457.929 425.239C457.929 426.795 458.926 431.62 456.599 431.932C451.613 432.71 451.613 424.305 451.447 421.659C450.449 410.452 449.618 399.401 450.117 388.194C450.616 375.586 452.444 362.978 454.438 350.526C454.438 348.036 450.449 346.946 450.117 349.437Z" fill="#045C45"/>
<path d="M386.125 305.075C387.953 299.005 395.433 296.515 401.084 294.647C408.397 292.156 415.877 290.289 423.522 289.043C438.648 286.553 454.438 286.553 469.563 289.043C478.206 290.444 486.517 292.623 494.661 295.581C497.155 296.515 498.318 292.779 495.825 291.845C465.076 280.794 430.005 280.483 399.089 291.223C392.275 293.557 384.463 296.826 382.302 303.986C381.471 306.476 385.46 307.41 386.125 305.075Z" fill="#045C45"/>
<path d="M512.612 299.628C517.765 301.029 522.917 302.43 527.904 304.142C528.901 304.453 530.231 303.831 530.397 302.741C530.729 301.652 530.064 300.718 528.901 300.407C523.915 298.85 518.762 297.293 513.609 295.893C512.612 295.581 511.282 296.204 511.116 297.293C510.95 298.227 511.615 299.317 512.612 299.628Z" fill="#045C45"/>
<path d="M125.005 226.317C169.717 235.967 215.425 239.547 261.133 240.636C307.673 241.57 354.378 240.636 400.918 238.146C427.179 236.745 453.441 234.722 479.703 231.764C482.362 231.453 482.362 227.562 479.703 227.873C433.163 233.01 386.125 235.5 339.253 236.434C293.545 237.368 247.836 237.523 202.294 233.788C176.697 231.609 151.267 228.029 126.169 222.581C123.509 221.958 122.346 225.694 125.005 226.317Z" fill="#045C45"/>
<path d="M53.8663 201.257C47.7164 199.856 46.3867 192.385 48.8799 187.715C52.3704 181.178 60.5148 177.909 67.1633 175.107C83.4521 168.259 100.572 163.434 118.024 160.009C153.594 152.849 190.327 150.67 226.727 148.958C263.792 147.246 301.19 147.246 338.256 149.269C375.487 151.293 412.719 155.495 449.452 162.188C467.569 165.457 485.686 169.504 503.637 174.174C515.937 177.442 536.547 182.89 533.389 198.766C532.89 201.568 531.394 203.903 528.735 205.459C526.574 206.86 528.569 210.129 530.896 208.884C536.381 205.459 538.375 199.389 537.544 193.474C536.547 186.626 531.893 181.333 525.743 177.909C518.596 173.862 510.119 171.994 502.141 169.971C492.334 167.481 482.528 165.146 472.721 163.122C434.326 154.873 395.1 149.736 355.874 146.779C315.983 143.822 276.092 143.51 236.201 145.067C216.588 145.845 196.975 146.935 177.362 148.647C158.414 150.203 139.466 152.382 120.85 155.962C102.4 159.542 84.2831 164.368 67.1633 171.527C59.8499 174.485 52.0379 177.754 47.2178 183.98C43.3949 188.805 42.73 195.653 46.2205 200.945C47.8826 203.28 50.2096 204.837 53.0352 205.615C55.3622 205.459 56.5257 201.724 53.8663 201.257Z" fill="#045C45"/>
<path d="M269.61 244.061C271.605 275.035 272.935 306.01 273.766 336.984C274.43 367.959 274.597 398.933 273.932 430.063C273.599 447.496 272.436 465.085 274.431 482.518C274.597 483.607 275.262 484.385 276.425 484.385C282.076 484.541 287.561 483.296 292.381 480.806C294.708 479.56 292.714 476.292 290.221 477.381C285.899 479.56 281.245 480.65 276.259 480.494C276.924 481.117 277.589 481.739 278.253 482.362C276.591 466.953 277.422 451.543 277.755 436.134C278.087 420.569 278.253 405.159 278.253 389.594C278.253 358.62 277.589 327.645 276.425 296.515C275.76 278.926 274.763 261.338 273.599 243.905C273.599 241.57 269.444 241.57 269.61 244.061Z" fill="#045C45"/>
<path d="M296.038 243.904C296.37 274.568 296.038 305.231 295.207 335.894C294.376 366.557 292.381 397.065 290.885 427.572C290.054 444.694 289.556 461.816 290.553 479.093C290.719 481.583 294.874 481.583 294.708 479.093C292.88 448.741 295.705 418.233 297.368 387.881C299.03 357.218 300.027 326.555 300.359 295.892C300.526 278.615 300.526 261.182 300.359 243.904C300.027 241.414 295.872 241.414 296.038 243.904Z" fill="#045C45"/>
<path d="M122.678 228.651C123.177 237.679 122.013 246.862 121.349 255.734C120.684 264.762 120.019 273.945 119.354 282.973C119.188 285.464 123.343 285.464 123.509 282.973C124.174 273.945 124.839 264.762 125.504 255.734C126.169 246.707 127.332 237.679 126.834 228.651C126.667 226.161 122.512 226.161 122.678 228.651Z" fill="#045C45"/>
<path d="M125.67 356.907C125.338 370.76 125.006 384.458 124.673 398.311C124.507 405.159 124.341 412.008 124.174 418.856C124.174 422.281 124.008 425.549 124.008 428.974C124.008 430.842 124.008 432.554 123.842 434.422C123.842 435.2 123.842 435.822 123.842 436.601C123.842 437.068 123.842 437.379 123.676 437.846C123.343 438.157 123.343 438.313 123.842 438.468C122.18 436.445 118.689 438.468 120.185 440.492C121.847 442.671 125.172 442.671 126.834 440.492C127.831 439.247 127.997 437.69 127.997 436.289C128.164 434.266 128.164 432.087 128.164 430.063C128.33 422.125 128.496 414.031 128.662 406.093C128.995 389.905 129.327 373.562 129.826 357.374C129.826 354.417 125.67 354.417 125.67 356.907Z" fill="#045C45"/>
<path d="M114.036 352.237C113.038 367.024 111.875 381.967 112.207 396.909C112.374 404.225 112.706 411.54 113.703 418.856C114.202 422.436 114.701 426.172 115.365 429.752C116.03 432.709 116.529 435.978 118.856 438.157C120.85 439.869 123.676 437.067 121.848 435.355C119.521 433.332 119.354 429.285 118.856 426.483C118.191 422.903 117.692 419.479 117.36 415.899C116.529 408.894 116.196 401.734 116.196 394.574C116.03 380.41 117.027 366.246 118.025 352.237C118.357 349.747 114.202 349.747 114.036 352.237Z" fill="#045C45"/>
<path d="M450.948 236.9C448.787 251.22 447.291 265.54 446.46 279.86C446.294 282.35 450.449 282.35 450.615 279.86C451.446 265.851 452.942 251.842 454.937 237.834C455.435 235.499 451.446 234.41 450.948 236.9Z" fill="#045C45"/>
<path d="M469.564 236.589C469.896 251.532 468.4 266.474 465.242 281.106C464.744 283.596 468.733 284.53 469.231 282.195C472.556 267.253 474.052 251.843 473.719 236.589C473.553 234.099 469.398 234.099 469.564 236.589Z" fill="#045C45"/>
<path d="M433.662 347.568C433.828 360.643 433.828 373.717 433.994 386.792C433.994 393.174 433.828 399.555 434.16 405.781C434.326 410.295 437.318 416.054 443.302 414.498C445.795 413.72 444.798 409.984 442.138 410.762C436.986 412.163 438.316 400.489 438.149 398.155C438.149 392.551 437.983 387.103 437.983 381.5C437.817 370.293 437.817 358.931 437.651 347.724C437.817 345.078 433.662 345.078 433.662 347.568Z" fill="#045C45"/>
<path d="M100.905 192.073C99.0762 196.898 103.065 201.567 107.719 203.124C110.379 204.058 113.537 204.214 116.362 204.214C120.019 204.369 123.676 204.369 127.499 204.369C141.959 204.369 156.419 203.591 170.714 202.19C174.038 201.879 177.362 201.567 180.52 200.789C183.013 200.322 186.67 199.544 188.665 197.832C192.986 193.785 183.512 189.582 180.52 188.648C174.37 186.781 167.556 186.314 161.24 185.691C154.093 185.069 146.945 184.757 139.798 184.602C132.319 184.602 124.839 184.602 117.526 185.847C114.035 186.314 110.711 187.248 107.553 188.493C105.226 189.427 101.403 191.139 102.733 194.252C103.73 196.587 107.719 195.497 106.722 193.162C106.556 192.695 113.204 190.672 113.703 190.672C116.362 190.049 119.022 189.582 121.681 189.271C127 188.804 132.319 188.648 137.804 188.648C149.439 188.648 161.24 189.271 172.708 191.139C175.035 191.45 177.528 191.917 179.689 192.54C180.687 192.851 181.684 193.162 182.515 193.629C183.013 193.785 185.34 195.808 185.34 195.808C185.507 195.497 185.507 195.341 185.673 195.03C185.34 195.186 185.174 195.341 184.842 195.497C184.177 195.808 183.678 195.964 183.013 196.12C181.85 196.431 180.686 196.742 179.357 197.054C176.531 197.676 173.872 197.988 171.046 198.299C159.245 199.388 147.61 200.167 135.809 200.322C129.327 200.478 122.678 200.478 116.196 200.322C112.041 200.167 102.899 198.921 105.06 193.007C105.725 190.828 101.736 189.738 100.905 192.073Z" fill="#045C45"/>
<path d="M105.392 203.747C114.368 214.176 131.82 212.931 144.619 212.619C148.94 212.464 153.262 212.308 157.749 211.997C161.738 211.841 165.728 211.685 169.717 210.752C176.365 209.195 182.016 205.304 186.005 200.167C187.501 198.144 184.011 196.12 182.349 198.144C178.526 203.125 172.708 206.393 166.226 207.483C162.569 208.105 158.913 208.105 155.09 208.261C151.267 208.417 147.444 208.572 143.621 208.728C132.153 209.039 116.196 210.44 108.218 200.946C106.722 199.078 103.897 201.879 105.392 203.747Z" fill="#045C45"/>
<path d="M149.106 221.491C167.223 216.821 185.672 213.864 204.288 212.463C206.948 212.308 206.948 208.416 204.288 208.572C185.34 209.973 166.392 213.086 147.942 217.755C145.449 218.378 146.446 222.114 149.106 221.491Z" fill="#045C45"/>
<path d="M375.653 208.417C379.144 210.44 381.803 213.553 385.626 214.954C387.621 215.732 389.781 215.888 392.108 216.044C394.602 216.199 397.095 216.822 399.588 217.444C409.893 220.246 420.198 223.203 430.67 226.005C433.163 226.783 434.326 222.892 431.833 222.27C421.694 219.468 411.721 216.666 401.583 213.864C399.256 213.242 397.095 212.619 394.768 212.308C392.441 211.997 390.114 212.152 387.953 211.53C384.13 210.284 381.471 207.016 378.147 204.992C375.487 203.747 373.493 207.016 375.653 208.417Z" fill="#045C45"/>
<path d="M452.61 190.828C438.648 188.804 424.354 186.625 410.226 188.493C406.735 188.96 403.411 189.582 400.087 190.516C397.261 191.295 393.771 192.228 391.444 194.096C389.283 195.964 388.951 198.766 391.111 200.789C393.272 202.813 396.763 203.591 399.588 204.214C414.88 207.327 430.67 208.261 446.128 209.039C452.942 209.506 459.757 209.973 466.572 209.35C469.73 209.039 472.888 208.572 476.046 207.638C478.871 206.86 482.362 205.77 484.523 203.902C487.182 201.723 484.024 198.299 482.03 197.054C478.871 195.186 475.215 193.785 471.558 192.695C464.079 190.516 456.267 190.049 448.455 189.427C445.795 189.271 445.795 193.162 448.455 193.318C454.272 193.785 460.256 194.252 465.907 195.341C468.733 195.964 471.392 196.587 474.051 197.676C475.215 198.143 481.531 200.322 481.198 201.879C481.531 201.568 481.863 201.101 482.196 200.789C474.55 205.459 465.242 205.926 456.267 205.77C445.961 205.459 435.656 204.681 425.517 203.747C420.199 203.28 414.88 202.657 409.561 201.879C404.907 201.256 399.422 200.789 395.267 198.766C394.269 198.143 393.272 197.832 394.436 196.898C395.267 196.275 396.43 195.964 397.427 195.653C399.754 194.875 402.081 194.252 404.408 193.629C409.062 192.54 413.882 192.073 418.536 191.917C429.673 191.606 440.643 193.162 451.613 194.875C454.106 195.03 455.269 191.295 452.61 190.828Z" fill="#045C45"/>
<path d="M395.931 204.526C401.25 205.148 405.073 209.974 409.062 212.775C413.882 216.044 419.7 217.445 425.683 218.067C432.332 218.69 439.313 218.534 445.961 218.534C449.618 218.534 453.441 218.69 457.097 218.69C460.422 218.69 463.746 218.69 466.904 217.912C473.386 216.044 478.206 211.219 482.362 206.394C484.024 204.526 481.198 201.724 479.37 203.592C475.713 207.639 471.724 212.153 466.239 213.865C463.081 214.799 459.757 214.799 456.599 214.799C452.942 214.799 449.452 214.643 445.795 214.643C439.313 214.487 432.831 214.643 426.514 214.176C420.697 213.709 414.88 212.308 410.226 208.884C405.738 205.46 401.749 201.413 395.765 200.635C393.272 200.168 393.272 204.059 395.931 204.526Z" fill="#045C45"/>
<path d="M466.239 173.55C464.411 173.083 462.25 173.239 461.419 175.107C460.588 176.974 462.25 178.998 463.58 180.243C467.236 183.201 472.223 183.045 476.71 183.201C479.204 183.201 481.697 183.356 484.19 183.356C486.517 183.356 488.844 182.734 489.841 180.71C492.002 176.196 485.021 174.328 481.697 173.706C476.544 172.616 471.059 172.616 465.907 172.772C463.247 172.772 463.247 176.663 465.907 176.663C470.062 176.508 474.217 176.508 478.206 176.975C480.035 177.286 482.029 177.597 483.691 178.22C484.356 178.531 485.187 178.842 485.852 179.154C486.683 179.465 485.686 179.309 486.018 179.154C485.852 179.309 485.52 179.465 485.187 179.465C484.19 179.621 483.193 179.465 482.195 179.465C481.198 179.465 480.035 179.465 479.037 179.465C476.877 179.465 474.716 179.465 472.555 179.309C470.727 179.154 468.732 178.998 467.07 178.064C466.405 177.753 465.907 177.286 465.574 176.663C465.574 176.508 465.408 176.508 465.408 176.352C465.076 175.729 464.743 175.885 464.577 177.286C464.411 177.13 465.242 177.441 465.076 177.441C467.735 177.908 468.898 174.173 466.239 173.55Z" fill="#045C45"/>
<path d="M461.252 180.399C462.582 183.045 463.912 185.691 465.74 187.87C467.735 190.205 470.56 190.672 473.386 190.983C474.882 191.139 476.544 191.295 478.04 191.45C479.536 191.606 481.364 192.073 482.694 191.295C484.023 190.672 484.688 188.96 485.353 187.87C486.184 186.469 487.015 185.224 487.846 183.823C489.176 181.644 485.519 179.621 484.19 181.8C483.525 182.889 482.86 183.979 482.195 185.069C481.863 185.535 481.53 186.002 481.364 186.469C481.198 186.781 481.032 187.092 480.865 187.403C480.699 187.559 480.367 187.87 480.699 187.715C481.032 187.559 480.533 187.559 480.367 187.559C480.034 187.559 479.702 187.559 479.536 187.403C478.871 187.403 478.206 187.248 477.541 187.248C476.211 187.092 474.882 186.936 473.552 186.781C471.391 186.625 469.729 186.158 468.399 184.29C467.07 182.267 465.906 180.243 464.909 178.064C464.41 177.13 462.914 176.819 462.083 177.442C460.92 178.375 460.754 179.465 461.252 180.399Z" fill="#045C45"/>
<path d="M403.245 165.457C405.073 168.57 408.896 169.348 412.387 169.504C414.714 169.659 417.207 169.659 419.7 169.659C421.861 169.659 424.188 169.971 426.348 169.659C428.343 169.504 430.504 168.726 431.501 166.858C432.664 164.834 431.833 162.811 429.673 161.877C425.351 160.009 421.03 158.608 416.376 158.453C413.882 158.297 411.389 158.608 408.896 159.075C406.735 159.542 403.91 160.165 402.912 162.188C402.414 163.122 402.58 164.212 403.577 164.834C404.408 165.301 405.904 165.146 406.403 164.212C406.735 163.589 407.4 163.433 408.065 163.278C409.062 162.966 410.226 162.811 411.389 162.655C413.384 162.344 415.545 162.344 417.539 162.5C419.534 162.655 421.528 163.122 423.523 163.9C424.52 164.212 425.517 164.523 426.348 164.99C426.515 164.99 428.01 165.613 428.01 165.613C427.844 164.99 427.844 164.834 427.678 165.146L427.512 165.301C426.681 165.613 426.182 165.768 425.185 165.924C424.188 165.924 423.19 165.924 422.193 165.924C419.866 165.924 417.705 165.768 415.378 165.768C412.719 165.768 408.231 166.235 406.735 163.589C405.572 161.254 401.915 163.278 403.245 165.457Z" fill="#045C45"/>
<path d="M402.747 165.146C402.414 171.216 403.245 177.442 405.073 183.201C405.905 185.536 409.894 184.602 409.063 182.112C407.234 176.508 406.569 170.905 406.902 165.146C406.902 164.056 405.905 163.278 404.907 163.278C403.578 163.278 402.747 164.212 402.747 165.146Z" fill="#045C45"/>
<path d="M428.509 167.947C428.675 173.239 427.346 178.531 424.686 183.356C423.357 185.535 427.013 187.559 428.343 185.38C431.335 180.088 432.997 174.017 432.831 168.103C432.665 165.457 428.509 165.457 428.509 167.947Z" fill="#045C45"/>
<path d="M405.904 185.068C412.386 185.068 419.035 185.38 425.517 186.158C426.681 186.314 427.512 185.224 427.512 184.29C427.512 183.201 426.515 182.422 425.517 182.422C419.035 181.644 412.553 181.333 405.904 181.333C403.245 181.177 403.245 185.068 405.904 185.068Z" fill="#045C45"/>
<path d="M355.542 159.075C352.883 163.589 359.864 165.768 363.188 166.546C367.509 167.635 372.163 167.791 376.651 167.169C378.646 166.857 380.972 166.39 381.97 164.522C382.967 162.81 382.635 160.631 381.471 159.075C378.812 155.339 373.992 155.028 369.67 155.028C367.011 155.028 364.351 154.872 361.692 154.872C358.866 154.872 356.539 156.273 356.207 158.919C356.041 160.009 357.204 160.787 358.201 160.787C359.365 160.787 360.196 159.853 360.196 158.919C360.196 159.075 360.362 158.919 360.528 158.763C360.861 158.608 361.359 158.608 361.692 158.608C362.855 158.608 363.853 158.608 365.016 158.608C367.177 158.608 369.171 158.608 371.332 158.763C373.161 158.763 374.989 158.919 376.485 159.853C377.15 160.164 378.812 161.565 378.313 162.499C377.981 162.966 376.983 163.122 376.485 163.122C375.654 163.277 374.656 163.433 373.825 163.589C371.997 163.744 370.002 163.744 368.174 163.589C366.346 163.433 364.517 162.966 362.689 162.499C361.858 162.188 361.027 162.032 360.196 161.565C359.864 161.409 359.365 161.098 359.032 160.942C358.7 160.942 359.032 160.631 358.866 160.942C360.362 158.919 356.872 156.896 355.542 159.075Z" fill="#045C45"/>
<path d="M378.977 165.457C380.141 170.905 377.98 176.353 375.986 181.333C375.653 182.267 376.484 183.513 377.482 183.668C378.645 183.98 379.642 183.357 379.975 182.267C382.302 176.508 384.296 170.438 382.967 164.368C382.8 163.278 381.471 162.811 380.473 162.967C379.31 163.278 378.645 164.368 378.977 165.457Z" fill="#045C45"/>
<path d="M352.55 162.499C353.048 166.235 353.879 169.971 355.209 173.551C356.206 176.508 357.37 180.399 360.694 181.8C361.691 182.267 362.855 182.111 363.52 181.178C364.018 180.399 363.852 178.998 362.855 178.531C361.691 178.064 361.193 177.286 360.694 176.197C360.029 174.951 359.531 173.395 359.032 171.994C358.035 168.881 357.204 165.768 356.871 162.655C356.705 161.565 356.04 160.787 354.877 160.787C353.713 160.476 352.384 161.41 352.55 162.499Z" fill="#045C45"/>
<path d="M361.027 181.8C365.681 182.578 370.501 183.512 374.989 184.913C375.986 185.224 377.316 184.602 377.482 183.512C377.815 182.423 377.15 181.489 375.986 181.177C371.332 179.777 366.678 178.843 362.024 178.064C360.861 177.909 359.864 178.376 359.531 179.465C359.365 180.399 360.03 181.644 361.027 181.8Z" fill="#045C45"/>
<path d="M366.678 182.267C365.847 186.47 365.348 190.673 365.681 194.875C365.681 195.965 366.678 196.899 367.675 196.743C368.839 196.743 369.836 195.809 369.67 194.875C369.504 190.984 369.836 186.937 370.667 183.201C370.833 182.267 370.335 181.022 369.171 180.867C368.174 180.711 366.844 181.178 366.678 182.267Z" fill="#045C45"/>
<path d="M356.373 200.322C362.357 200.166 368.506 200.478 374.49 201.1C375.654 201.256 376.485 200.166 376.485 199.233C376.485 198.143 375.487 197.365 374.49 197.365C368.506 196.586 362.523 196.431 356.373 196.586C353.714 196.586 353.714 200.478 356.373 200.322Z" fill="#045C45"/>
<path d="M199.801 172.149C205.12 172.461 210.106 174.173 215.259 174.951C219.747 175.574 225.564 175.885 229.719 173.55C231.548 172.461 232.711 170.437 231.548 168.414C230.55 166.702 228.556 165.612 226.561 164.989C224.068 164.211 221.575 164.055 219.082 163.589C216.422 163.122 213.763 162.655 211.27 162.343C208.61 162.032 205.951 162.032 203.624 163.277C201.463 164.522 199.967 166.546 199.967 168.881C199.967 171.371 204.123 171.371 204.123 168.881C204.123 166.857 206.45 166.079 208.112 165.923C210.439 165.768 212.932 166.39 215.093 166.702C217.752 167.169 220.411 167.48 223.071 167.947C224.068 168.102 225.232 168.258 226.229 168.725C226.561 168.881 227.06 169.036 227.392 169.348C227.725 169.503 228.057 170.126 228.057 169.97C228.057 169.815 227.392 170.282 227.226 170.437C226.727 170.593 226.395 170.748 225.896 170.904C224.733 171.215 223.569 171.371 222.406 171.527C220.079 171.682 217.752 171.371 215.425 171.06C210.272 170.126 205.452 168.725 200.133 168.258C197.142 168.102 197.142 171.994 199.801 172.149Z" fill="#045C45"/>
<path d="M199.136 170.282C199.302 179.777 204.787 188.182 205.286 197.521C205.452 200.011 209.607 200.011 209.441 197.521C208.942 188.182 203.457 179.777 203.291 170.282C203.291 167.791 199.136 167.791 199.136 170.282Z" fill="#045C45"/>
<path d="M228.223 172.773C227.558 181.956 226.063 190.984 223.736 199.856C223.071 202.346 227.06 203.28 227.725 200.945C230.052 191.762 231.714 182.267 232.379 172.773C232.545 170.282 228.389 170.282 228.223 172.773Z" fill="#045C45"/>
<path d="M205.618 200.011C211.768 202.346 218.583 203.436 225.231 203.28C227.891 203.124 227.891 199.233 225.231 199.389C218.915 199.544 212.599 198.61 206.782 196.276C205.785 195.809 204.455 196.743 204.289 197.676C203.956 198.766 204.621 199.544 205.618 200.011Z" fill="#045C45"/>
<path d="M131.487 177.131C135.809 178.532 140.297 179.31 144.784 179.31C147.111 179.31 149.438 179.154 151.599 178.687C153.594 178.376 156.087 178.065 157.749 177.131C159.577 176.041 159.245 173.551 158.746 171.994C158.081 169.815 156.253 169.037 153.926 168.57C149.604 167.636 144.95 167.169 140.463 167.48C136.474 167.792 132.152 169.037 130.158 172.617C128.828 174.796 132.485 176.819 133.814 174.64C135.643 171.527 140.13 171.372 143.288 171.372C145.948 171.372 148.441 171.683 151.1 171.994C151.765 172.15 152.43 172.15 152.929 172.306C153.261 172.461 153.926 172.461 154.258 172.617C154.425 172.772 154.591 173.239 154.591 173.551C154.591 173.706 154.591 173.862 154.591 174.173C154.591 174.485 154.425 174.952 154.757 174.329C154.923 174.173 155.256 173.862 155.422 173.706C154.757 174.173 153.594 174.329 152.762 174.485C151.765 174.796 150.768 174.952 149.604 175.107C147.776 175.419 145.782 175.574 143.953 175.419C139.964 175.419 135.975 174.64 132.152 173.395C129.991 172.617 128.828 176.352 131.487 177.131Z" fill="#045C45"/>
<path d="M130.49 173.551C130.158 176.975 130.657 180.555 131.986 183.824C132.319 184.758 133.316 185.536 134.479 185.225C135.477 184.913 136.308 183.824 135.975 182.89C135.643 182.112 135.31 181.333 135.144 180.555C134.978 180.088 134.978 179.777 134.812 179.31C134.812 179.154 134.812 178.999 134.646 178.843C134.646 178.687 134.646 178.687 134.646 178.532C134.646 178.376 134.646 178.376 134.646 178.376C134.646 178.532 134.646 178.532 134.646 178.22C134.646 178.065 134.646 177.909 134.646 177.909C134.646 177.753 134.646 177.598 134.646 177.442C134.646 176.975 134.646 176.664 134.646 176.197C134.646 175.419 134.646 174.485 134.812 173.706C134.978 172.617 133.815 171.683 132.817 171.839C131.321 171.683 130.657 172.461 130.49 173.551Z" fill="#045C45"/>
<path d="M153.095 178.22C153.095 178.375 153.095 178.375 153.095 178.531C153.095 178.064 153.095 178.842 153.095 178.531C153.095 178.686 153.095 178.842 153.095 179.153C153.095 179.465 153.095 179.932 153.095 180.243C153.095 180.554 153.261 179.776 153.095 180.243C153.095 180.399 153.095 180.399 153.095 180.554C153.095 180.71 152.929 180.866 152.929 181.177C152.929 181.333 152.763 181.488 152.763 181.8C152.763 181.955 152.763 181.955 152.596 182.111C152.43 182.422 152.763 181.799 152.596 182.111C152.43 182.422 152.264 182.733 152.098 183.2C151.932 183.356 151.932 183.512 151.765 183.667C151.765 183.667 151.433 183.979 151.765 183.823C151.932 183.512 151.765 183.823 151.599 183.979C151.267 184.29 151.101 184.601 150.768 184.757C150.602 184.757 150.602 184.913 150.436 184.913C150.103 185.068 150.269 185.068 150.436 184.913C150.269 185.068 150.103 185.224 149.937 185.224C148.94 185.846 148.607 186.936 149.272 187.87C149.937 188.804 151.101 189.115 152.098 188.492C156.087 186.158 158.081 181.644 157.084 177.441C156.918 176.507 155.588 175.729 154.591 176.04C153.427 176.196 152.929 177.13 153.095 178.22Z" fill="#045C45"/>
<path d="M292.381 166.702C298.199 168.258 304.348 169.037 310.332 168.881C313.324 168.881 316.482 168.57 319.474 168.103C321.967 167.791 324.793 167.48 326.787 165.768C328.615 164.056 329.114 161.41 327.452 159.542C325.956 157.674 323.13 157.052 320.97 156.429C315.152 154.872 309.169 154.405 303.185 155.028C297.534 155.651 290.22 157.519 290.054 164.056C290.054 166.546 294.21 166.546 294.21 164.056C294.21 158.919 303.351 158.764 307.174 158.608C310.166 158.608 313.158 158.764 316.15 159.231C318.476 159.698 321.635 160.009 323.629 161.41C326.122 163.122 320.637 164.056 319.64 164.211C316.814 164.678 313.823 164.99 310.997 164.99C305.013 165.145 299.196 164.367 293.545 162.966C290.885 162.344 289.722 166.079 292.381 166.702Z" fill="#045C45"/>
<path d="M290.054 164.056C289.722 174.796 292.049 185.38 294.376 195.809C294.874 198.299 298.864 197.209 298.365 194.719C296.204 184.602 293.877 174.484 294.21 164.056C294.21 161.565 290.054 161.565 290.054 164.056Z" fill="#045C45"/>
<path d="M323.796 164.679C325.458 175.418 322.964 186.47 316.981 195.653C315.651 197.832 319.142 199.7 320.638 197.676C327.12 187.404 329.613 175.418 327.785 163.589C327.452 161.254 323.463 162.344 323.796 164.679Z" fill="#045C45"/>
<path d="M295.041 198.61C298.864 198.299 302.853 198.61 306.509 199.389C310.166 200.167 313.989 202.035 317.812 200.945C320.305 200.167 319.308 196.431 316.648 197.21C314.986 197.677 313.324 197.21 311.662 196.743C309.834 196.276 308.171 195.653 306.343 195.342C302.52 194.564 298.697 194.408 294.874 194.564C293.711 194.564 292.88 195.342 292.88 196.431C293.046 197.677 294.043 198.766 295.041 198.61Z" fill="#045C45"/>
<path d="M208.777 397.688C230.052 392.552 250.995 386.793 271.771 380.411C274.264 379.633 273.267 375.897 270.608 376.675C249.831 383.057 228.722 388.816 207.613 393.953C205.12 394.575 206.117 398.311 208.777 397.688Z" fill="#045C45"/>
<path d="M298.032 372.005C316.814 363.133 336.593 355.973 356.871 350.526C359.365 349.903 358.367 346.012 355.708 346.79C335.098 352.393 314.986 359.709 295.871 368.737C293.544 369.826 295.705 373.095 298.032 372.005Z" fill="#045C45"/>
<path d="M297.201 388.349C301.191 385.236 306.011 383.368 310.665 381.812C315.983 380.1 321.468 378.543 326.953 376.831C337.923 373.407 348.893 369.827 360.362 368.27C363.021 367.959 361.858 364.067 359.199 364.534C347.231 366.247 335.763 370.138 324.128 373.562C313.989 376.675 302.354 379.01 294.043 385.547C292.215 387.104 295.207 389.906 297.201 388.349Z" fill="#045C45"/>
<path d="M360.362 368.737C363.354 368.425 366.512 368.27 369.337 369.515C372.329 370.916 375.155 372.628 377.98 374.34C380.307 375.585 382.302 372.316 380.141 370.916C377.149 369.203 374.157 367.18 370.833 365.935C367.509 364.534 364.018 364.534 360.362 364.845C359.198 365.001 358.367 365.623 358.367 366.713C358.367 367.803 359.364 368.892 360.362 368.737Z" fill="#045C45"/>
<path d="M397.095 381.812C409.228 384.146 421.029 387.882 432.332 392.707C434.659 393.797 436.819 390.372 434.493 389.283C422.858 384.146 410.89 380.411 398.258 377.92C395.599 377.609 394.435 381.345 397.095 381.812Z" fill="#045C45"/>
<path d="M400.253 365.001C406.07 364.846 410.89 369.048 415.877 371.227C421.694 373.718 427.678 375.274 433.828 376.675C436.487 377.298 437.484 373.562 434.991 372.939C428.675 371.539 422.193 369.982 416.375 367.18C411.223 364.69 406.403 361.11 400.419 361.266C397.593 361.11 397.427 365.001 400.253 365.001Z" fill="#045C45"/>
<path d="M298.365 332.782C305.346 333.871 311.828 336.206 318.476 338.541C325.125 340.876 331.773 343.055 338.422 345.078C352.051 349.125 365.681 352.705 379.643 355.662C382.302 356.285 383.299 352.394 380.806 351.927C366.844 348.969 353.049 345.389 339.585 341.343C332.937 339.319 326.288 337.14 319.64 334.805C312.991 332.47 306.509 330.136 299.528 329.046C296.869 328.579 295.705 332.315 298.365 332.782Z" fill="#045C45"/>
<path d="M295.706 346.168C306.177 348.814 316.316 352.238 326.122 356.441C328.449 357.53 330.61 354.106 328.283 353.016C318.144 348.503 307.673 344.923 296.869 342.277C294.21 341.81 293.046 345.545 295.706 346.168Z" fill="#045C45"/>
<path d="M209.109 408.428C214.76 410.918 220.411 413.564 225.896 416.055C228.39 417.144 230.883 418.39 233.376 419.79C235.703 421.191 238.03 422.748 240.523 423.993C245.51 426.172 251.161 427.106 256.313 428.974C261.632 430.842 266.785 433.332 271.771 436.134C274.098 437.379 276.093 434.11 273.932 432.709C269.112 429.908 264.125 427.573 258.806 425.705C253.488 423.682 247.837 422.748 242.684 420.569C240.191 419.479 238.03 418.078 235.703 416.677C233.21 415.121 230.55 413.876 227.891 412.631C222.24 410.14 216.589 407.494 211.104 405.004C208.777 404.07 206.616 407.338 209.109 408.428Z" fill="#045C45"/>
<path d="M210.771 427.729C231.547 436.445 252.324 445.473 272.768 454.812C275.095 455.901 277.256 452.477 274.929 451.388C254.485 442.049 233.708 433.021 212.932 424.304C210.438 423.37 208.278 426.795 210.771 427.729Z" fill="#045C45"/>
<path d="M127 390.683C132.983 391.773 138.468 394.263 144.12 396.598C149.771 398.933 155.422 401.267 161.073 403.758C172.542 408.739 183.844 413.875 194.648 419.79C196.975 421.035 199.136 417.611 196.809 416.365C185.673 410.451 174.204 405.159 162.403 400.022C156.586 397.532 150.768 395.197 144.951 392.707C139.466 390.372 133.814 387.881 127.997 386.792C125.504 386.481 124.34 390.216 127 390.683Z" fill="#045C45"/>
<path d="M127.665 372.784C150.768 381.034 173.373 390.528 195.313 401.268C197.64 402.358 199.801 399.089 197.474 397.844C175.202 386.948 152.264 377.298 128.828 369.049C126.335 368.115 125.338 371.85 127.665 372.784Z" fill="#045C45"/>
<path d="M126.667 235.811C131.488 236.123 136.308 237.523 140.962 238.769C145.616 240.014 150.27 241.259 154.923 242.504C164.231 244.995 173.706 247.485 183.013 250.131C201.795 255.268 220.411 260.404 239.193 265.696C249.665 268.654 260.302 271.611 270.773 274.568C273.267 275.347 274.43 271.455 271.937 270.833C234.207 260.248 196.31 249.664 158.414 239.547C153.095 238.146 147.776 236.745 142.458 235.344C137.305 233.943 132.152 232.543 126.667 232.231C124.008 231.764 124.008 235.656 126.667 235.811Z" fill="#045C45"/>
<path d="M214.427 239.702C219.081 240.636 223.902 241.414 228.223 243.126C232.545 244.839 236.534 246.862 241.021 248.107C250.496 250.598 260.136 252.621 269.776 254.8C272.436 255.423 273.433 251.687 270.94 251.065C261.299 248.886 251.659 246.862 242.185 244.372C237.697 243.126 233.708 241.103 229.387 239.391C224.899 237.679 220.245 236.745 215.425 235.811C212.932 235.5 211.768 239.235 214.427 239.702Z" fill="#045C45"/>
<path d="M220.744 411.852C239.36 404.07 258.807 397.844 278.586 393.33C281.245 392.707 280.082 388.972 277.422 389.594C257.145 394.264 237.532 400.645 218.583 408.584C216.09 409.517 218.251 412.942 220.744 411.852Z" fill="#045C45"/>
<path d="M299.694 271.611C340.25 263.517 380.806 255.267 421.362 247.173C432.664 244.839 444.133 242.66 455.435 240.325C458.095 239.858 456.931 236.122 454.272 236.589C413.716 244.683 373.16 252.932 332.604 261.026C321.302 263.361 309.833 265.54 298.531 267.875C295.871 268.342 297.035 272.078 299.694 271.611Z" fill="#045C45"/>
<path d="M297.368 253.088C307.839 251.843 318.31 250.442 328.782 248.886C338.754 247.485 348.727 246.084 358.201 242.504C360.695 241.57 359.531 237.834 357.038 238.768C347.896 242.348 338.09 243.749 328.449 245.15C318.144 246.706 307.673 247.952 297.368 249.197C294.708 249.508 294.708 253.399 297.368 253.088Z" fill="#045C45"/>
<path d="M530.065 213.086C556.991 215.265 584.084 213.241 610.345 207.171C613.005 206.548 611.841 202.813 609.182 203.435C583.253 209.506 556.493 211.374 530.065 209.195C527.405 209.039 527.405 212.93 530.065 213.086Z" fill="#045C45"/>
<path d="M610.013 206.081C614.168 211.373 616.163 217.755 615.996 224.137C615.996 227.25 615.331 230.518 614.168 233.476C613.669 235.032 612.838 236.433 612.007 237.834C610.844 239.702 609.68 240.791 607.353 241.57C591.563 247.018 575.108 251.531 558.487 253.866C549.013 255.267 539.372 255.734 529.898 255.267C527.239 255.111 527.239 259.003 529.898 259.158C548.348 260.092 566.797 257.135 584.582 252.621C589.07 251.376 593.724 250.131 598.212 248.73C602.367 247.484 606.688 246.239 610.678 244.527C614.168 242.971 615.996 239.702 617.492 236.433C618.988 233.165 619.819 229.74 620.152 226.16C620.817 218.378 618.656 210.284 613.669 204.058C612.007 202.034 608.517 204.058 610.013 206.081Z" fill="#045C45"/>
<path d="M528.07 303.674C530.73 303.674 530.73 299.783 528.07 299.783C525.411 299.783 525.411 303.674 528.07 303.674Z" fill="#045C45"/>
<path d="M586.244 251.22C578.765 263.673 573.945 277.37 570.122 291.223C566.299 305.543 562.808 320.018 560.149 334.494C558.819 341.965 557.822 349.436 557.656 357.063C557.489 364.846 557.822 372.628 557.489 380.411C557.157 388.038 556.492 395.664 556.492 403.447C556.492 411.23 556.991 419.012 557.656 426.639C558.321 434.577 559.318 442.36 560.315 450.142C560.814 453.878 561.312 457.769 561.811 461.505C562.143 464.462 562.974 466.953 566.299 467.886C569.124 468.665 572.947 468.976 575.607 467.886C578.765 466.641 579.762 463.84 580.593 461.038C582.421 453.722 582.92 446.095 582.587 438.624C582.255 430.997 581.59 423.526 581.092 415.899C580.593 408.117 580.261 400.49 580.094 392.707C579.762 377.298 580.261 361.733 581.424 346.323C582.588 330.758 584.416 315.037 587.075 299.628C588.405 292.001 589.735 284.53 591.563 276.903C593.059 270.054 594.555 262.739 597.38 256.201C598.544 253.4 600.372 250.754 602.699 248.73C604.694 247.018 601.702 244.372 599.707 245.928C595.053 249.975 592.726 255.579 591.231 261.182C589.236 268.186 587.574 275.346 586.078 282.506C583.086 297.137 580.759 312.08 579.097 327.022C575.773 356.752 575.108 386.792 576.936 416.677C577.934 430.997 580.261 446.095 576.438 460.26C576.105 461.816 575.607 463.684 573.944 464.306C572.449 464.929 570.62 464.618 569.124 464.462C567.628 464.306 566.465 464.151 566.133 462.594C565.8 460.727 565.634 458.859 565.301 456.991C564.304 449.364 563.307 441.737 562.476 434.266C560.814 419.323 560.149 404.381 561.146 389.438C561.645 381.967 561.977 374.652 561.811 367.336C561.811 359.865 561.811 352.549 562.808 345.078C564.637 330.602 568.127 316.283 571.618 302.274C574.942 288.732 578.765 275.035 585.081 262.272C586.577 259.159 588.239 256.201 589.901 253.244C591.231 251.065 587.574 249.041 586.244 251.22Z" fill="#045C45"/>
<path d="M529.899 304.764C535.384 305.231 541.201 305.698 546.354 307.566C552.005 309.745 555.994 314.103 558.653 318.928C560.149 321.419 559.983 323.753 556.991 324.843C554.332 325.933 551.174 326.399 548.182 326.866C541.201 328.267 534.054 329.357 527.073 328.112C524.414 327.645 523.416 331.38 525.909 331.847C532.392 332.937 538.874 332.47 545.356 331.225C548.514 330.602 551.672 329.979 554.997 329.201C557.324 328.734 559.651 327.956 561.479 326.555C566.133 322.664 562.642 317.06 559.817 313.169C556.659 308.811 552.836 305.542 547.517 303.519C541.866 301.34 535.716 300.873 529.732 300.406C527.239 300.717 527.239 304.608 529.899 304.764Z" fill="#045C45"/>
<path d="M521.089 349.28C536.381 350.681 552.005 345.389 562.975 335.272C564.969 333.559 561.977 330.758 559.983 332.47C549.678 341.809 535.217 346.478 520.923 345.233C518.43 345.233 518.43 349.124 521.089 349.28Z" fill="#045C45"/>
<path d="M274.929 108.333C281.079 84.0517 291.882 60.8598 306.675 40.0025C310.997 34.0878 315.485 28.3287 320.471 22.7253C322.133 20.8575 319.307 18.0558 317.479 19.9236C300.027 39.5356 286.564 61.9493 277.422 86.0752C274.763 93.0795 272.602 100.084 270.773 107.244C270.275 109.734 274.264 110.824 274.929 108.333Z" fill="#045C45"/>
<path d="M244.18 89.6546C243.681 76.7356 241.022 63.8166 235.703 51.8314C230.218 39.2237 222.073 28.4838 213.929 17.4326C212.433 15.4091 208.777 17.2769 210.272 19.4561C218.251 30.196 226.395 40.7802 231.714 52.921C236.7 64.5948 239.526 77.0469 240.024 89.8102C240.191 92.145 244.346 92.145 244.18 89.6546Z" fill="#045C45"/>
<path d="M259.305 122.03C258.973 100.861 262.297 79.6929 268.945 59.4583C269.776 57.1235 265.787 56.034 264.956 58.3687C258.141 78.9147 254.817 100.394 255.15 122.03C255.15 124.52 259.305 124.52 259.305 122.03Z" fill="#045C45"/>
<path d="M326.455 13.8527C328.782 13.3858 331.275 14.0084 333.103 15.4092C333.602 15.7205 334.1 16.1875 334.433 16.6544C334.599 16.8101 334.765 17.1214 334.931 17.277C334.931 17.4327 334.931 17.4327 335.098 17.5884V17.744C335.098 17.5883 335.098 17.8996 335.098 17.744C334.931 17.744 335.264 17.5883 335.098 17.744C334.765 17.8996 334.599 17.744 334.267 17.744C333.435 17.744 332.771 17.5883 332.106 17.4327C330.444 17.1214 328.782 16.4988 327.452 15.5649C326.953 15.2536 326.122 15.4092 325.79 16.0318C325.457 16.6545 325.623 17.2771 326.288 17.5884C327.95 18.6779 329.779 19.3005 331.607 19.7675C333.435 20.0788 336.261 20.7014 337.425 18.9892C338.588 17.4327 337.258 15.5649 336.095 14.3197C334.931 13.2301 333.435 12.2962 331.773 11.8293C329.945 11.2067 327.95 11.2067 325.956 11.518C325.291 11.6736 324.959 12.2962 325.125 12.9188C325.125 13.6971 325.79 14.0084 326.455 13.8527Z" fill="#045C45"/>
<path d="M330.943 8.09394C329.779 6.53743 328.615 4.98091 326.953 3.73571C325.457 2.64615 323.13 2.17921 321.302 2.80182C317.645 4.04702 316.648 8.24959 318.643 11.207C319.806 12.9191 321.635 14.0087 323.629 14.6313C324.294 14.7869 324.959 14.4756 325.125 13.853C325.291 13.2304 324.959 12.6078 324.294 12.4522C323.131 12.1409 321.801 11.3626 320.97 10.4287C320.637 9.96175 320.305 9.4948 320.139 9.02785C319.972 8.71655 319.972 8.56088 319.972 8.40523C319.972 8.24958 319.972 8.09393 319.972 7.93828C319.972 7.78263 319.972 7.47133 319.972 7.62698C320.139 6.53742 320.637 5.75917 321.635 5.29222C322.798 4.82526 324.128 5.13657 325.291 5.75917C326.787 6.69308 327.618 8.09394 328.615 9.33915C328.948 9.8061 329.779 10.1174 330.278 9.80611C330.942 9.33915 331.275 8.56089 330.943 8.09394Z" fill="#045C45"/>
<path d="M315.817 8.24929C314.321 11.051 313.822 14.0084 314.321 17.1214C314.487 18.3666 314.819 19.7674 315.65 20.857C316.482 21.9466 317.645 22.5692 318.808 23.0361C321.468 24.1257 324.626 23.97 327.618 24.1257C329.28 24.1257 331.108 24.437 332.604 23.8144C333.934 23.1918 334.765 21.9466 334.266 20.7014C333.768 19.3005 331.441 19.9231 331.939 21.324C332.105 22.1022 330.111 21.9466 329.779 21.9466C328.449 21.9466 326.953 21.9466 325.623 21.7909C323.629 21.7909 321.302 21.6353 319.473 20.857C317.479 19.9231 316.814 18.0553 316.648 16.1875C316.482 14.0084 316.98 11.6736 317.977 9.65014C318.642 8.09363 316.482 7.00409 315.817 8.24929Z" fill="#045C45"/>
<path d="M334.932 11.207C336.428 11.3626 337.757 12.4522 338.755 13.5417C339.918 14.6313 341.248 16.1878 341.746 17.5886C342.079 18.9895 340.749 19.7678 339.586 20.2347C337.591 20.8573 335.597 21.3242 333.602 21.9469C332.106 22.4138 332.771 24.5929 334.267 24.126C336.594 23.5034 339.087 23.0364 341.248 22.1025C343.409 21.1686 344.738 19.4564 344.24 17.2773C343.741 15.2539 341.913 13.3861 340.417 11.8295C338.921 10.273 337.092 9.18349 334.932 8.87219C334.267 8.71654 333.602 9.4948 333.602 10.1174C333.602 10.74 334.267 11.207 334.932 11.207Z" fill="#045C45"/>
<path d="M338.256 22.7248C336.76 25.3709 334.1 27.0831 331.109 28.017C329.613 28.4839 328.117 28.6395 326.455 28.9508C325.291 29.1065 323.629 29.4178 322.632 28.4839C321.468 27.3944 319.806 29.1065 320.803 30.1961C322.133 31.4413 323.795 31.5969 325.624 31.4413C327.618 31.2856 329.613 30.9743 331.441 30.5074C335.264 29.4178 338.588 27.3944 340.416 24.1257C341.081 22.5692 338.921 21.324 338.256 22.7248Z" fill="#045C45"/>
<path d="M310.997 9.02761C307.506 11.8293 305.346 15.8762 305.013 20.2345C304.681 23.6588 305.678 28.484 309.833 29.2622C311.329 29.5735 311.994 27.3944 310.498 27.0831C307.34 26.4605 307.174 22.1023 307.506 19.7675C308.005 16.3432 310 13.0745 312.659 10.7398C313.989 9.6502 312.16 8.09371 310.997 9.02761Z" fill="#045C45"/>
<path d="M321.468 1.24521C318.975 1.24521 316.482 0 313.989 0C311.496 0 309.335 1.40086 307.673 3.11302C306.011 4.98083 305.013 7.31559 304.182 9.65035C303.517 11.5182 303.185 13.8529 305.013 15.4094C306.177 16.3433 308.005 14.7868 306.842 13.6973C305.678 12.6077 306.343 10.7399 306.842 9.49469C307.673 7.62688 308.504 5.60342 310 4.04691C311.329 2.64605 312.992 1.8678 315.152 2.1791C317.313 2.4904 319.308 3.42431 321.635 3.42431C323.131 3.57997 323.131 1.24521 321.468 1.24521Z" fill="#045C45"/>
<path d="M324.792 23.9703C321.967 27.3946 317.147 29.1067 312.659 28.1728C311.163 27.8615 310.498 30.0406 311.994 30.352C317.313 31.4415 323.13 29.5737 326.455 25.5268C326.787 25.0598 326.953 24.4372 326.455 23.8146C326.122 23.5033 325.125 23.5033 324.792 23.9703Z" fill="#045C45"/>
<path d="M250.496 41.4032C252.158 45.6058 253.986 49.8083 255.981 53.8552C257.975 57.7465 260.634 61.4821 261.299 65.6847C261.632 67.2412 263.959 66.463 263.626 65.0621C262.961 60.8596 260.468 57.2796 258.474 53.3883C256.313 49.1857 254.318 44.9831 252.656 40.6249C252.324 39.3797 249.997 40.0023 250.496 41.4032Z" fill="#045C45"/>
<path d="M282.242 43.1152C278.253 43.2709 275.593 46.6952 273.433 49.4969C271.106 52.6099 269.444 55.8786 267.615 59.3029C266.95 60.7038 269.111 61.7933 269.776 60.5481C271.272 57.5908 272.934 54.4777 274.929 51.676C275.926 50.2752 276.923 49.03 278.087 47.9404C279.25 46.8509 280.58 45.7613 282.076 45.6057C283.904 45.45 283.904 43.1152 282.242 43.1152Z" fill="#045C45"/>
<path d="M279.749 44.6719V44.5162C279.749 44.3606 279.749 44.8275 279.749 44.5162C279.749 44.3606 279.749 44.2049 279.749 44.0493C279.749 43.738 279.749 43.4267 279.749 43.1154C279.749 42.9597 279.749 43.4267 279.749 43.1154V42.9597V42.8041C279.749 42.6484 279.915 42.4928 279.749 42.8041C279.749 42.6484 279.915 42.4928 279.915 42.4928C279.749 42.6484 279.749 42.8041 279.915 42.4928C279.749 42.4928 280.081 42.3371 279.915 42.4928C279.915 42.4928 280.081 42.4928 280.081 42.3371C279.915 42.3371 280.414 42.1815 280.081 42.3371C280.081 42.3371 280.248 42.3371 280.414 42.3371C280.248 42.3371 280.081 42.3371 280.248 42.3371H280.414H280.58C280.414 42.3371 280.414 42.3371 280.414 42.3371C280.58 42.3371 280.58 42.3371 280.746 42.3371C280.912 42.3371 281.079 42.4928 281.245 42.4928C282.242 42.8041 283.073 43.1154 284.07 42.9597C283.572 42.6484 283.073 42.4928 282.575 42.1815V42.3371C282.575 42.0258 282.575 42.4928 282.575 42.3371V42.4928C282.575 42.6484 282.575 42.4928 282.575 42.3371V42.4928L282.408 42.6484C282.076 43.1154 282.242 43.8936 282.907 44.2049C283.572 44.5162 284.237 44.3606 284.569 43.738C285.068 42.9597 285.234 42.0258 284.902 41.2476C284.735 40.625 284.07 40.3137 283.406 40.4693C283.239 40.4693 283.738 40.4693 283.406 40.4693C283.239 40.4693 283.239 40.4693 283.073 40.4693C282.907 40.4693 283.239 40.4693 283.239 40.4693C283.239 40.4693 283.239 40.4693 283.073 40.4693C282.907 40.4693 282.907 40.4693 282.741 40.4693C282.408 40.3137 282.076 40.3137 281.743 40.158C280.912 39.8467 280.081 39.6911 279.25 39.8467C277.754 40.3137 277.09 41.7145 276.923 43.1154C276.923 43.738 276.923 44.5162 277.09 45.1388C277.256 45.7615 278.087 46.0728 278.585 45.9171C279.583 45.9171 279.915 45.2945 279.749 44.6719Z" fill="#045C45"/>
<path d="M283.406 45.4498C283.738 45.2941 284.237 45.4498 284.569 45.6054C284.569 45.6054 284.735 45.6054 284.735 45.7611C284.569 45.7611 284.569 45.7611 284.735 45.7611C284.735 45.7611 285.068 46.0724 284.902 45.9167C284.902 45.9167 285.068 46.3837 285.068 46.0724C285.068 46.228 285.234 46.3837 285.234 46.5393C285.234 46.3837 285.234 46.695 285.234 46.8506V47.0063C285.234 46.8506 285.234 46.8506 285.234 47.0063V47.162C285.234 47.0063 285.234 47.0063 285.234 47.162C285.234 47.162 284.902 47.4732 285.068 47.3176C284.902 47.4732 284.902 47.4732 284.735 47.6289C284.569 47.7845 284.569 47.7845 284.735 47.6289C284.735 47.6289 284.569 47.6289 284.569 47.7845C284.403 47.7845 284.403 47.9402 284.237 47.9402C284.569 47.7846 284.071 47.9402 284.071 47.9402C283.904 47.9402 283.904 47.9402 283.738 48.0958C283.572 48.0958 283.572 48.0958 283.738 48.0958H283.572C283.406 48.0958 283.24 48.0958 283.073 48.0958C283.073 48.0958 282.575 48.0958 282.907 48.0958C282.575 48.0958 282.409 47.9402 282.076 47.9402C282.409 48.0959 281.91 47.7845 281.91 47.7845C281.744 47.6289 281.577 47.6289 281.411 47.4732C281.079 47.1619 280.414 46.695 280.082 46.228C280.248 46.3837 279.915 46.0724 279.915 45.9167C279.749 45.7611 279.749 45.6054 279.583 45.4498C279.417 45.1385 279.25 44.8272 279.084 44.6715C278.752 44.0489 277.921 43.8933 277.422 44.2046C276.757 44.5159 276.591 45.2941 276.924 45.7611C278.253 48.0958 280.414 50.4306 283.572 50.275C284.902 50.275 286.231 49.808 287.062 48.7185C288.06 47.4733 288.226 45.7611 287.395 44.5159C286.564 43.115 284.569 42.3368 282.907 42.8037C282.242 42.9594 281.91 43.582 282.076 44.2046C281.91 45.2941 282.741 45.6054 283.406 45.4498Z" fill="#045C45"/>
<path d="M278.752 45.9174C277.921 45.4504 277.755 44.3608 277.09 43.7382C276.092 42.8043 274.597 42.8043 273.267 42.96C270.94 43.1156 268.28 44.0495 268.28 46.6956C268.28 47.9408 269.112 49.0304 269.943 49.8086C270.774 50.5869 272.103 51.6764 273.433 51.8321C274.597 51.8321 275.594 51.2095 276.591 51.3651C277.588 51.5208 278.586 52.4547 278.419 53.3886C278.253 54.3225 277.256 55.1008 276.425 54.9451C275.261 54.7895 274.43 53.3886 273.765 52.6103C272.103 50.5869 269.444 48.7191 266.618 48.8747C264.125 49.0304 261.964 51.2095 262.131 53.5442C262.297 56.346 264.79 57.9025 267.616 57.9025C269.112 57.9025 270.94 57.4355 272.436 57.9025C273.599 58.3694 274.597 59.459 274.43 60.7042C274.264 61.9494 273.267 62.8833 271.937 62.572C270.275 62.4163 269.278 61.0155 268.447 59.7703C267.616 58.5251 265.455 59.6146 266.286 61.0155C267.616 63.1946 269.943 65.2181 272.934 64.9068C275.428 64.5955 277.256 62.4163 276.924 60.0816C276.757 57.7468 274.597 55.879 272.103 55.412C270.607 55.1007 269.112 55.4121 267.616 55.5677C266.286 55.5677 264.956 55.1008 264.624 53.6999C264.458 52.6103 265.289 51.3651 266.452 51.2095C267.782 51.0538 269.444 51.9877 270.441 52.766C272.27 54.3225 273.433 57.1242 276.259 57.2799C278.586 57.2799 280.746 55.412 280.913 53.0773C280.913 50.7425 278.752 49.0304 276.425 48.7191C275.76 48.7191 275.095 48.7191 274.43 49.0304C273.433 49.3417 273.101 49.0304 272.27 48.4078C271.438 47.7852 269.943 46.3843 271.272 45.4504C272.103 44.9834 274.264 44.6722 275.095 45.1391C275.594 45.4504 275.76 46.073 276.092 46.3843C276.425 46.8513 276.923 47.3182 277.422 47.6295C278.752 48.7191 280.082 46.6956 278.752 45.9174Z" fill="#045C45"/>
<path d="M252.823 40.0024C252.823 40.0024 252.823 39.6911 252.823 39.8467C252.823 39.5354 252.823 40.0024 252.823 39.6911C252.989 39.5354 252.989 39.3798 253.155 39.2241C253.654 38.7572 254.152 38.1346 254.318 37.512C254.817 36.1111 253.986 34.7102 252.656 33.7763C251.493 32.9981 249.664 32.8424 248.335 32.9981C247.504 32.9981 246.673 33.3094 246.174 34.0876C245.675 34.7102 245.675 35.6442 245.842 36.2668C246.008 37.512 247.171 38.7572 248.335 39.2241C249.664 39.8467 251.16 40.0024 252.656 40.3137C253.654 40.4693 255.149 40.7806 255.648 41.8702C255.482 41.7145 255.648 42.0258 255.648 42.0258C255.814 42.3371 255.648 41.8702 255.648 42.1815C255.648 42.3371 255.648 42.3371 255.648 42.4928C255.648 42.8041 255.648 42.3371 255.648 42.6484C255.648 42.6484 255.482 42.9597 255.648 42.8041C255.648 42.9597 255.482 42.9597 255.482 43.1154C255.316 43.271 255.648 42.9597 255.482 43.1154L255.316 43.2711C255.482 43.2711 255.482 43.2711 255.149 43.2711C254.485 43.2711 253.82 42.8041 253.321 42.4928L252.823 42.0258C252.989 41.7145 253.155 41.4032 253.155 41.0919C253.155 39.8467 251.659 39.2241 250.828 40.158C249.997 40.9363 250.496 42.3371 251.659 42.3371C252.324 42.3371 252.989 41.8702 252.989 41.0919C252.989 40.4693 252.49 39.8467 251.659 39.8467C251.991 40.0024 252.324 40.0024 252.49 40.158C252.656 40.4693 252.656 40.9363 252.823 41.2476C252.656 41.4032 252.324 41.7145 252.158 41.8702C251.991 41.8702 251.659 41.8702 251.493 41.8702C251.327 41.7145 251.16 41.7145 250.994 41.5589C250.828 41.4032 250.828 41.2476 250.662 41.0919V41.2476C250.662 41.0919 250.662 40.7806 250.662 40.625C250.662 40.9363 250.329 41.2476 250.329 41.7145C250.329 42.0258 250.329 42.3371 250.496 42.4928C250.828 43.1154 251.327 43.738 251.991 44.0493C253.155 44.8276 254.651 45.6058 256.147 45.1389C258.64 44.3606 258.64 41.2476 257.144 39.5354C256.313 38.6015 254.983 38.1346 253.82 37.9789C252.49 37.6676 251.327 37.6676 249.997 37.2007C249.498 37.045 249.166 36.7337 248.833 36.4224C248.667 36.2668 248.501 36.1111 248.501 35.9554C248.335 35.7998 248.335 35.6442 248.335 35.4885C248.335 35.3329 248.335 35.1772 248.335 35.1772C248.501 35.0215 248.335 35.0215 248.667 35.1772C249.332 35.1772 249.831 35.1772 250.496 35.1772C250.994 35.3328 251.493 35.4885 251.825 35.7998C252.158 36.1111 252.158 36.4224 251.991 36.7337C251.825 37.2007 251.327 37.512 250.994 37.9789C250.496 38.4459 250.329 39.0685 250.329 39.8467C250.329 40.4693 250.828 41.0919 251.659 41.0919C252.324 41.2476 252.989 40.625 252.823 40.0024Z" fill="#045C45"/>
<path d="M251.493 40.0016C249.83 39.6903 248.002 39.2233 246.506 39.8459C244.844 40.4686 243.681 41.7138 243.681 43.4259C243.681 44.2042 243.847 44.9824 244.013 45.7607C244.179 46.3833 244.512 47.1615 245.01 47.6285C245.509 47.9398 246.008 48.0954 246.672 48.0954C247.171 48.0954 247.67 47.7841 248.002 47.6285C248.501 47.3172 249.166 47.1616 249.664 46.6946C250.994 45.7607 252.157 44.5155 252.157 42.959C252.157 42.3364 251.493 41.7138 250.828 41.7138C250.163 41.7138 249.664 42.1807 249.498 42.959V43.1146V43.4259V43.5816C249.498 43.7372 249.332 43.7372 249.332 43.8929C249.332 43.8929 249.332 44.0485 249.166 44.0485C249.166 44.0485 248.999 44.2042 248.999 44.3598C248.833 44.5155 248.667 44.6711 248.501 44.8268C248.335 44.9824 248.667 44.6711 248.501 44.8268C248.501 44.8268 248.335 44.8268 248.335 44.9824C248.168 44.9824 248.168 45.1381 248.002 45.1381C247.836 45.2937 247.504 45.4494 247.337 45.4494C247.171 45.605 246.839 45.605 246.672 45.7607C246.506 45.7607 246.506 45.9163 246.34 45.9163C246.174 45.9163 246.506 45.9163 246.34 45.9163H246.174C246.174 45.9163 246.174 45.9163 246.34 45.9163C246.506 45.9163 246.506 45.9163 246.672 45.9163C246.672 46.072 247.005 46.072 246.672 45.9163L246.506 45.7607V45.605C246.506 45.4494 246.34 45.2937 246.34 45.1381C246.174 44.8268 246.174 44.6711 246.174 44.3598C246.174 44.2042 246.174 44.0485 246.008 43.8929C246.008 43.7372 246.008 43.7372 246.008 43.5816C246.008 43.4259 246.008 43.2703 246.008 43.1146C246.008 43.1146 246.008 42.8033 246.008 42.959C246.008 43.1146 246.008 42.959 246.008 42.8033C246.008 42.6477 246.008 42.6477 246.174 42.492L246.34 42.3364C246.34 42.1807 246.34 42.1807 246.34 42.3364L246.506 42.1807L246.672 42.0251C246.506 42.1807 246.839 41.8694 246.672 42.0251C246.672 42.0251 246.839 42.0251 246.839 41.8694C247.005 41.8694 247.171 41.7138 247.171 41.7138C246.839 41.7138 247.005 41.7138 247.171 41.7138H247.337C247.504 41.7138 247.67 41.7138 247.836 41.5581H248.168C248.335 41.5581 248.501 41.5581 248.667 41.5581C248.833 41.5581 248.833 41.5581 248.999 41.5581C248.999 41.5581 249.332 41.5581 249.166 41.5581C249.332 41.5581 249.498 41.5581 249.664 41.7138C249.997 41.7138 250.495 41.8694 250.828 42.0251C251.493 42.1807 252.157 41.8694 252.324 41.2468C252.49 40.9355 252.157 40.1573 251.493 40.0016Z" fill="#045C45"/>
<path d="M251.326 44.0491C248.667 45.4499 246.174 48.5629 248.168 51.3647C248.999 52.4542 250.495 53.2325 251.991 53.0768C253.653 52.7655 254.651 51.3647 255.648 50.1194C256.645 48.7186 257.642 47.3177 259.138 46.5395C260.468 45.9169 262.463 45.9169 262.961 47.4734C263.46 49.3412 261.133 49.0299 259.803 49.0299C258.141 49.0299 256.313 49.1855 254.817 49.8082C251.825 50.8977 249.498 53.6994 249.997 56.8124C250.163 58.2133 250.994 59.6141 252.49 60.0811C254.152 60.548 255.814 59.6141 256.978 58.6802C258.64 57.435 260.136 56.0342 261.798 54.9446C263.127 54.1664 264.623 53.8551 265.621 55.2559C265.953 55.7229 266.286 56.3455 266.452 56.9681C266.452 57.2794 266.452 57.5907 266.452 57.902C266.452 58.3689 266.452 58.3689 266.119 58.3689C265.122 58.5246 263.959 58.5246 262.961 58.5246C261.798 58.5246 260.634 58.6802 259.471 58.6802C257.643 58.8359 255.316 58.6802 254.318 60.548C253.487 61.9489 253.487 63.9724 253.986 65.3732C254.484 66.9297 255.814 68.175 257.642 68.4863C259.637 68.7976 261.465 68.175 263.294 67.3967C264.79 66.7741 263.46 64.7506 261.964 65.3732C260.634 65.8402 258.806 66.6184 257.31 65.9958C256.147 65.3732 255.98 63.8167 256.147 62.5715C256.313 61.6376 256.645 61.1707 257.642 61.1707C258.64 61.015 259.803 61.015 260.801 61.015C262.795 60.8594 264.623 60.8594 266.618 60.7037C269.776 60.2368 269.277 56.3455 268.114 54.4777C266.618 51.9873 263.626 51.3647 260.967 52.6099C259.471 53.3881 258.141 54.6333 256.811 55.5672C256.147 56.1898 253.653 58.6802 252.656 57.435C251.991 56.3455 252.324 54.789 253.155 53.6994C254.152 52.4542 255.648 51.676 257.144 51.3647C259.803 50.8977 263.959 52.1429 265.122 49.0299C266.119 46.5395 264.291 44.0491 261.632 43.5821C257.975 43.1152 255.316 45.9169 253.487 48.5629C252.989 49.1855 252.49 50.2751 251.825 50.5864C251.16 50.8977 250.329 50.2751 250.163 49.6525C249.498 48.096 251.326 46.6951 252.656 46.0725C253.986 45.2943 252.656 43.2708 251.326 44.0491Z" fill="#045C45"/>
<path d="M265.288 49.9638C265.454 36.4221 269.776 23.3475 274.097 10.5841C274.596 9.18326 272.103 8.56064 271.77 9.9615C267.449 23.0362 262.961 36.1108 262.795 49.9638C262.795 51.5203 265.288 51.5203 265.288 49.9638Z" fill="#045C45"/>
<path d="M272.436 11.6736C274.264 11.8292 276.425 11.8292 277.754 10.4284C278.752 9.33882 278.918 7.62666 277.921 6.5371C275.427 3.89104 270.441 7.31536 270.109 10.1171C269.942 11.3623 271.771 11.5179 272.436 10.7397C274.596 7.93795 271.272 5.44756 268.613 5.13625C267.117 4.9806 265.122 4.66928 263.793 5.60319C262.629 6.38144 262.297 7.93797 263.128 9.02752C263.626 9.49448 264.125 9.80576 264.79 9.49446C264.79 9.49446 266.452 11.6736 266.784 11.9849C267.449 12.6075 268.447 12.9188 269.278 13.0744C270.109 13.2301 270.94 13.2301 271.771 13.3857C273.765 13.5414 274.763 14.164 274.763 16.0318C274.763 16.1875 274.763 17.5883 274.596 17.744C275.095 17.5883 274.264 16.8101 274.43 16.9657C273.932 16.1874 272.934 15.4092 272.103 14.7866C270.275 13.697 267.948 13.0744 265.953 13.6971C262.297 14.631 260.635 19.7674 264.956 21.1683C267.449 21.9465 270.441 19.9231 272.768 21.0126C273.765 21.4796 274.43 22.8805 274.763 23.8144C275.095 24.437 275.427 25.3709 275.427 25.9935C275.261 28.1726 273.599 27.3943 272.768 26.3048C271.771 24.7482 270.94 23.3474 269.111 22.5691C267.449 21.7909 265.288 21.7909 263.46 22.5691C260.635 23.8144 257.643 28.7952 261.133 30.9743C262.795 32.0638 264.79 31.4412 266.452 30.8186C267.782 30.3517 268.945 29.8847 270.275 30.663C271.937 31.7525 272.436 33.776 272.436 35.4882C272.436 35.7995 272.602 37.2003 272.103 37.2003C271.937 37.2003 271.106 36.4221 270.94 36.2664C270.109 35.6438 269.278 34.8656 268.28 34.243C266.618 33.1534 264.79 32.3751 262.629 32.6865C260.801 32.9978 258.972 33.9316 258.474 35.6438C257.975 37.356 258.64 40.3133 260.136 41.5585C261.964 42.9594 264.291 42.0255 266.286 41.5585C267.117 41.2472 268.114 40.9359 268.945 41.4029C269.61 41.8698 270.109 42.9594 269.776 43.7376C269.278 45.4498 266.784 45.4498 265.455 44.6716C264.125 43.8933 262.795 45.9168 264.125 46.695C267.615 48.7185 272.934 46.695 272.103 42.3368C271.771 40.6246 270.441 39.2238 268.613 38.9125C267.283 38.6012 265.953 39.0681 264.624 39.5351C264.125 39.6907 263.294 40.1577 262.629 40.002C261.466 40.002 260.967 39.0681 260.635 38.1342C259.637 34.3986 263.959 34.5543 266.286 36.1108C267.948 37.2003 269.942 39.8464 272.103 39.6907C274.43 39.5351 274.596 37.0447 274.596 35.3325C274.596 32.9977 273.932 30.5073 271.937 28.9508C269.942 27.3943 267.782 27.55 265.455 28.3282C264.291 28.7952 261.964 29.7291 261.798 27.7056C261.632 26.3048 262.961 24.7482 264.291 24.2813C265.787 23.6587 267.449 23.97 268.613 24.9039C269.61 25.6822 269.942 26.7717 270.607 27.7056C271.605 29.1065 273.433 30.0404 275.261 29.2621C279.417 27.2387 276.923 20.39 273.599 18.6779C272.602 18.0553 271.272 18.0553 270.109 18.2109C268.779 18.3666 266.784 19.3005 265.455 18.6779C264.125 18.0553 264.291 16.6544 265.455 16.0318C266.12 15.5649 267.283 15.5649 268.114 15.5649C269.776 15.8762 270.94 16.6544 272.103 17.8996C273.267 19.1448 275.926 20.7013 276.757 18.3666C277.422 16.6544 277.422 14.0083 276.258 12.4518C274.596 10.1171 271.605 11.2066 269.278 10.4284C266.951 9.65012 266.618 5.75885 263.46 7.31536C263.959 7.47101 264.624 7.62666 265.122 7.78231C264.457 7.00406 268.447 7.31537 268.447 7.47102C269.444 7.62667 270.94 8.4049 269.942 9.49446C270.773 9.65011 271.438 9.96142 272.269 10.1171C272.436 9.18317 274.596 7.93795 275.261 8.40491C276.923 9.33881 272.934 9.49446 272.103 9.49446C270.773 9.18316 270.773 11.5179 272.436 11.6736Z" fill="#045C45"/>
<path d="M210.937 18.0552C213.43 17.1213 215.757 16.0317 217.752 14.3196C218.749 13.5413 219.414 12.6074 219.248 11.5178C219.081 10.4283 218.583 9.49438 217.586 8.87178C215.591 7.47092 212.765 8.40483 211.27 10.117C209.607 11.9848 208.943 14.7865 208.111 17.1213C207.779 18.0552 207.447 19.7673 206.449 20.2343C205.452 20.7013 204.122 20.3899 203.125 20.2343C203.458 20.5456 203.79 21.0125 204.122 21.3238C204.122 19.923 204.621 16.9656 206.782 17.5882C208.278 18.0552 208.943 15.7204 207.447 15.4091C205.784 14.9422 204.122 15.5648 203.125 16.81C201.962 18.0552 201.795 19.7673 201.795 21.3238C201.795 21.7908 202.128 22.4134 202.793 22.4134C204.787 22.7247 206.948 23.036 208.61 21.7908C209.441 21.1682 209.774 20.2343 210.272 19.3004C210.605 18.2108 211.103 17.1213 211.436 16.0317C212.101 14.3196 212.599 11.8291 214.428 10.7396C215.092 10.4283 216.09 10.117 216.755 10.5839C217.253 10.8953 217.419 11.5178 217.087 11.9848C216.422 12.7631 215.092 13.3857 214.095 14.0083C212.932 14.6309 211.934 15.0978 210.605 15.5648C209.94 15.7204 209.607 16.343 209.774 16.9656C209.607 17.7439 210.272 18.2108 210.937 18.0552Z" fill="#045C45"/>
<path d="M218.749 13.8529C219.746 13.5416 220.577 13.386 221.574 13.0747C222.073 12.919 222.572 12.7634 223.07 12.6077C223.236 12.6077 223.236 12.6077 223.403 12.4521C223.569 12.4521 223.569 12.4521 223.403 12.4521C223.236 12.4521 223.236 12.4521 223.07 12.4521C223.07 12.4521 223.07 12.4521 223.07 12.6077C223.236 12.919 223.403 13.2303 223.569 13.5416C223.735 13.8529 223.735 14.1642 223.901 14.4755C224.067 15.0981 224.067 15.7207 224.067 16.499C224.067 17.1216 223.901 17.7442 223.569 18.3668C223.403 18.8338 223.07 19.612 222.405 19.612C221.574 19.7676 220.743 19.612 220.078 19.4564C219.247 19.3007 218.416 19.1451 217.585 18.6781C216.92 18.3668 216.255 18.5225 215.923 19.1451C215.591 19.612 215.757 20.5459 216.422 20.7016C218.084 21.4798 219.912 21.7911 221.74 21.9468C222.738 21.9468 223.735 21.7911 224.566 21.1685C225.231 20.7016 225.563 19.9233 225.896 19.3007C226.561 17.8998 226.727 16.3433 226.561 14.9425C226.394 14.1642 226.228 13.386 225.896 12.7634C225.563 11.9851 225.065 11.0512 224.4 10.5843C223.403 10.1173 222.239 10.5843 221.242 10.8956C220.245 11.2069 219.247 11.5182 218.084 11.8295C216.588 11.9851 217.253 14.1642 218.749 13.8529Z" fill="#045C45"/>
<path d="M214.76 19.4567C214.926 21.3245 215.092 23.1923 215.258 25.0602C215.258 25.6828 215.258 26.461 215.092 27.0836C214.926 27.7062 214.76 28.1732 214.427 28.4845C213.596 29.4184 211.934 29.4184 210.937 28.4845C209.94 27.5506 209.275 25.8384 209.94 24.7489C210.272 23.9706 211.269 23.6593 211.602 22.8811C212.1 21.9471 212.1 20.7019 211.103 20.0793C210.604 19.768 209.94 19.6124 209.275 20.0793C208.776 20.5463 208.776 21.3245 209.275 21.7915C209.441 21.9472 209.275 21.7915 209.275 21.6358C209.275 21.7915 209.275 21.7915 209.275 21.7915C208.942 22.1028 208.61 22.4141 208.277 22.7254C207.446 23.5036 207.114 24.4376 207.114 25.3715C206.948 27.3949 207.779 29.4184 209.607 30.6636C211.269 31.9088 213.763 32.0645 215.425 30.8193C216.921 29.7297 217.419 28.0175 217.585 26.3054C217.585 25.3715 217.585 24.4376 217.585 23.5036C217.419 22.2584 217.419 20.8576 217.253 19.6124C217.253 18.9898 216.754 18.3672 215.923 18.3672C215.258 18.3672 214.594 18.8341 214.76 19.4567Z" fill="#045C45"/>
<path d="M227.558 42.337C220.078 43.1153 212.1 44.0492 206.283 49.03C205.119 49.9639 206.781 51.6761 208.111 50.7422C213.43 46.3839 220.909 45.4501 227.558 44.8275C229.22 44.5162 229.22 42.1814 227.558 42.337Z" fill="#045C45"/>
<path d="M206.283 50.8975C206.45 49.9636 206.616 48.874 206.782 47.9401C206.948 47.0062 207.447 45.9167 207.114 45.1384C206.782 44.3602 205.951 44.0489 205.286 43.8932C204.289 43.5819 203.291 43.2706 202.294 43.115C200.632 42.8037 198.471 42.181 197.474 43.8932C196.643 45.2941 196.809 46.8506 197.474 48.2514C198.97 51.3645 202.793 52.1427 206.117 51.8314C208.112 51.6758 210.106 51.2088 212.101 51.2088C212.766 51.2088 213.929 51.2088 214.428 51.6757C214.76 52.1427 214.594 52.7653 214.428 53.0766C213.597 54.3218 211.27 54.1662 209.94 53.6992C208.278 53.2323 206.948 51.987 206.283 50.4305C205.618 49.0297 203.458 49.4966 203.956 51.0532C204.455 52.921 204.455 54.7888 203.956 56.6566C203.79 56.9679 203.79 57.4348 203.291 57.5905C202.959 57.7461 202.46 57.7461 201.962 57.9018C201.131 58.0574 200.133 58.0574 199.302 57.5905C198.804 57.2792 198.305 56.6566 198.305 56.1896C198.305 55.567 198.804 55.1001 199.302 54.7888C200.965 53.6992 202.959 53.0766 204.787 52.1427C206.283 51.5201 204.954 49.4966 203.458 50.1192C201.962 50.7418 200.466 51.5201 199.136 52.1427C198.139 52.6097 197.142 53.2323 196.477 54.0105C194.981 56.034 196.144 58.68 198.305 59.614C199.469 60.2366 200.798 60.2365 202.128 60.2365C203.458 60.0809 204.954 59.7696 205.618 58.5244C207.114 56.1896 206.948 52.921 206.283 50.4305C205.452 50.5862 204.621 50.8975 203.956 51.0532C205.12 53.8549 207.779 55.8783 211.103 56.1896C214.095 56.5009 217.918 54.7888 217.253 51.3645C216.422 47.4732 210.605 48.7184 207.779 49.0297C204.954 49.341 200.3 49.6523 199.469 46.228C199.469 45.9167 199.302 45.6054 199.469 45.2941C199.469 44.8271 199.635 44.8271 199.967 44.6715C200.466 44.6715 201.131 44.8271 201.629 44.9828C202.128 45.1384 202.793 45.2941 203.291 45.4497C203.79 45.6054 204.289 45.761 204.954 45.9167C205.618 46.0723 204.954 45.761 204.954 45.761L204.787 46.6949C204.621 47.7845 204.455 48.874 204.123 49.9636C203.624 51.6757 206.117 52.2984 206.283 50.8975Z" fill="#045C45"/>
<path d="M230.883 44.6716C233.043 36.7334 238.03 29.7292 244.678 24.437C245.842 23.5031 244.18 21.791 242.85 22.7249C235.869 28.1726 230.716 35.7995 228.389 44.049C228.057 45.4499 230.55 46.0725 230.883 44.6716Z" fill="#045C45"/>
<path d="M244.512 22.4139C243.348 21.48 242.185 20.3905 241.52 19.1453C241.188 18.5227 240.855 17.9 240.523 17.2774C240.523 17.1218 240.357 16.9661 240.357 16.8105C240.19 16.9661 240.024 16.9661 240.024 17.1218L241.188 16.9661C242.019 16.9661 242.85 16.9661 243.681 17.1218C244.346 17.2774 244.678 17.2774 244.678 17.9C244.844 19.7679 245.01 21.48 245.177 23.3478C245.177 23.9704 246.008 24.7487 246.673 24.4374C248.002 23.9704 249.664 23.5035 250.828 24.593C251.16 24.9043 251.493 25.5269 251.659 25.9939C251.825 26.3052 251.991 26.6165 252.158 26.9278C252.158 27.0834 252.158 27.0834 252.324 27.2391C252.324 27.706 252.49 27.706 252.656 27.2391C252.656 27.2391 251.825 27.3947 251.825 27.5504C251.493 27.5504 251.16 27.5504 250.662 27.5504C249.997 27.3947 249.332 27.2391 248.667 26.9278C247.337 26.1495 246.174 25.06 245.177 23.9704C244.512 23.1922 243.016 23.8148 243.016 24.7487C243.016 26.6165 243.182 28.4843 243.182 30.3521C243.182 31.286 243.348 32.2199 243.348 33.1538C243.348 33.7764 243.182 34.0877 242.517 33.9321C241.021 33.7764 241.188 31.4417 241.354 30.5077C241.686 28.9512 242.351 27.3947 243.515 26.3052C244.512 25.2156 242.85 23.5035 241.686 24.593C240.024 26.4608 238.861 28.4843 238.694 30.9747C238.528 32.9982 239.193 35.4886 241.52 36.1112C243.847 36.7338 245.675 35.1773 245.675 32.9982C245.675 30.1965 245.509 27.3947 245.343 24.593C244.678 24.9043 243.847 25.2156 243.182 25.3713C244.844 26.9278 246.506 28.6399 248.667 29.4182C250.329 30.0408 253.82 30.1964 254.651 28.173C254.983 27.2391 254.485 26.1495 253.986 25.3713C253.653 24.4374 253.155 23.6591 252.324 22.8809C250.495 21.3244 248.002 21.3244 245.842 22.2583C246.34 22.5696 246.839 23.0365 247.337 23.3478C247.171 21.947 247.171 20.7017 247.005 19.3009C247.005 18.2113 247.005 16.9661 246.34 16.0322C245.841 15.254 244.678 14.9427 243.847 14.787C242.517 14.6314 241.354 14.4757 240.024 14.6314C234.207 15.0983 240.523 22.4139 242.517 23.9704C244.013 25.06 245.842 23.5035 244.512 22.4139Z" fill="#045C45"/>
<path d="M229.719 41.5588C228.556 39.5353 227.725 37.2005 227.392 35.0214C227.226 33.9319 227.226 32.8423 227.558 31.9084C227.725 31.2858 228.057 29.885 228.888 29.5737C229.22 29.418 229.22 30.0406 229.22 30.3519C229.387 30.9745 229.387 31.4415 229.553 32.0641C229.719 33.1536 229.885 34.3988 230.052 35.644C230.218 38.1344 230.052 40.4692 229.22 42.804C228.722 44.2048 231.049 44.8274 231.547 43.4266C232.378 41.0918 232.711 38.7571 232.545 36.2666C232.545 35.0214 232.378 33.9319 232.212 32.6867C232.046 31.5971 231.88 30.3519 231.714 29.2624C231.381 28.1728 230.55 27.3945 229.22 27.3945C228.057 27.3945 227.06 28.0171 226.395 28.951C225.065 30.8189 224.899 33.3093 225.231 35.3327C225.564 37.9788 226.561 40.4692 227.891 42.804C228.389 44.0492 230.55 42.804 229.719 41.5588Z" fill="#045C45"/>
<path d="M227.558 43.8934C227.226 44.049 226.893 44.049 226.561 43.8934C226.062 43.8934 225.564 43.7377 225.065 43.5821C223.902 43.4264 222.738 43.5821 221.741 44.3603C220.91 44.9829 220.245 45.9168 219.58 46.8507C218.915 47.629 218.417 48.5629 218.084 49.6524C217.419 51.3646 217.586 54.6333 220.245 54.9446C222.572 55.2559 223.735 52.4542 224.899 51.0533C226.229 49.3412 227.891 47.7846 229.719 46.5394C230.218 46.2281 230.55 45.4499 230.218 44.9829C229.885 44.516 229.054 44.2047 228.556 44.516C227.06 45.6055 225.564 46.6951 224.4 48.0959C223.735 48.7185 223.237 49.4968 222.572 50.2751C222.073 50.8977 221.741 51.6759 221.242 52.2985C221.076 52.4542 220.91 52.6098 220.91 52.6098C220.744 52.6098 220.744 52.7655 220.744 52.7655L220.577 52.6098C220.245 51.9872 220.245 51.3646 220.577 50.742C221.076 49.1855 222.239 47.7846 223.403 46.5394C224.068 45.9168 224.4 45.9168 225.231 46.0725C226.229 46.2281 227.392 46.5394 228.389 46.0725C229.054 45.9168 229.387 45.2942 229.22 44.6716C228.888 44.049 228.223 43.5821 227.558 43.8934Z" fill="#045C45"/>
<path d="M237.531 63.5051C236.7 60.2364 237.531 56.6564 239.692 54.0103C240.523 52.9208 242.019 51.3643 243.681 51.053C244.346 50.8973 244.678 51.3643 244.678 51.9869C244.512 52.9208 243.681 53.5434 243.016 54.0103C241.022 55.5669 238.695 57.1234 236.368 58.3686C235.038 59.1468 236.201 61.1703 237.697 60.392C240.191 58.9912 242.684 57.4347 245.011 55.5669C246.008 54.7886 247.005 53.699 247.171 52.4538C247.338 51.2086 247.005 49.8078 245.676 49.1852C243.515 47.94 240.855 49.6521 239.193 51.053C237.531 52.6095 236.201 54.4773 235.537 56.6564C234.706 59.1468 234.539 61.6372 235.204 64.1277C235.537 65.5285 237.864 64.9059 237.531 63.5051Z" fill="#045C45"/>
<path d="M239.526 73.1558C238.528 67.2411 231.88 65.062 226.395 64.595C220.91 64.1281 214.76 63.9724 210.605 67.708C209.441 68.7976 211.269 70.3541 212.433 69.4202C215.923 66.3072 221.076 66.4628 225.564 66.9298C230.218 67.2411 236.367 68.6419 237.365 73.7784C237.365 75.1793 239.858 74.5567 239.526 73.1558Z" fill="#045C45"/>
<path d="M209.109 69.4198C209.441 70.5094 210.106 71.2877 210.937 72.0659C211.435 72.5329 212.267 73.1555 212.433 73.9337C212.599 74.712 211.435 75.3346 210.937 74.5563C210.604 74.0894 210.771 73.3111 210.937 72.8442C211.103 72.0659 211.269 71.4433 211.435 70.6651C211.602 69.4198 209.773 69.2642 209.109 70.0425C208.111 71.4433 205.618 72.5329 204.455 70.6651C203.956 70.0424 204.122 69.4199 204.953 68.9529C205.784 68.486 206.283 69.2642 206.948 69.5755C208.111 70.0425 209.441 69.7312 209.94 68.486C210.438 67.3964 210.771 66.1512 211.269 65.0616C211.768 64.1277 212.267 62.7269 213.264 61.9486C213.929 61.4817 215.092 61.793 215.092 62.5712C215.092 63.0382 214.76 63.5051 214.427 63.8164C213.929 64.439 213.264 64.906 212.765 65.5286C211.602 66.7738 210.438 67.8633 209.441 69.1085C210.106 69.2642 210.771 69.4199 211.602 69.5755C211.602 69.7312 211.435 69.8868 211.435 70.0425C212.931 69.4199 211.602 67.3964 210.106 68.019C209.275 68.4859 208.942 69.2642 209.109 70.1981C209.275 70.9763 210.604 71.4433 211.269 70.6651C212.599 69.2642 213.929 67.8633 215.258 66.4625C216.422 65.2173 217.752 63.9721 217.585 62.2599C217.419 60.7034 216.256 59.4582 214.594 59.1469C212.765 58.8356 211.436 59.7695 210.438 61.1704C209.441 62.5712 208.776 64.1277 208.111 65.6842C207.945 65.9955 207.779 66.4625 207.613 66.7738C207.446 67.0851 207.28 67.2407 207.779 67.0851C208.111 66.9294 208.111 66.9294 207.779 66.7738C207.114 66.4625 206.615 65.9955 205.784 65.9955C202.626 65.6842 200.632 69.1085 202.294 71.4433C203.291 72.8442 204.953 73.4668 206.782 73.3111C208.61 73.1555 210.272 72.0659 211.269 70.5094C210.438 70.3538 209.773 70.0424 208.942 69.8868C208.776 71.7546 207.613 73.6224 209.109 75.3346C210.438 76.7354 212.765 76.7354 214.095 75.3346C215.258 74.0894 215.092 72.3772 214.095 70.9763C213.264 69.8868 211.934 69.1085 211.435 67.8633C211.103 67.3964 208.61 68.019 209.109 69.4198Z" fill="#045C45"/>
<path d="M231.714 66.7735C230.218 66.3065 228.39 66.4622 226.894 67.0848C226.229 67.3961 225.564 67.863 224.899 68.4856C224.234 69.1082 223.57 70.0421 223.736 70.8204C223.902 71.2873 224.234 71.7543 224.733 72.0656C224.899 72.2213 225.232 72.2212 225.398 72.2212C225.564 72.2212 225.564 72.2212 225.73 72.2212H225.897C225.73 72.2212 225.73 72.2212 225.897 72.2212L226.063 72.3769C226.229 72.6882 226.395 72.8438 226.395 72.9995C226.728 73.6221 227.06 74.0891 227.725 74.4004C228.722 74.8673 229.719 74.556 230.55 73.9334C232.545 72.5326 234.373 71.2873 236.368 69.8865C236.867 69.5752 237.199 68.9526 236.867 68.33C236.534 67.863 235.703 67.5517 235.204 67.863C234.041 68.6413 232.877 69.4195 231.714 70.1978C231.215 70.6647 230.55 70.976 230.052 71.443C229.719 71.7543 229.055 72.0656 228.888 72.2212C228.888 72.3769 229.055 72.2212 228.888 72.2212C228.722 72.0656 229.055 72.5325 228.888 72.2212L228.722 72.0656C228.556 71.7543 228.39 71.443 228.223 71.1317C227.891 70.8204 227.559 70.3534 227.226 70.1978C226.894 70.0421 226.728 70.0421 226.395 69.8865C226.229 69.8865 226.063 69.8865 225.897 69.8865C225.564 69.8865 225.897 69.8865 226.063 70.0421C226.229 70.1978 226.229 70.3534 226.395 70.5091C226.229 70.8204 226.395 70.6647 226.395 70.5091C226.395 70.3534 226.561 70.3534 226.561 70.1978C226.561 70.1978 226.894 69.8865 227.06 69.7308C227.392 69.4195 227.891 69.2639 228.223 69.1082C229.221 68.6413 230.052 68.6413 231.049 68.9526C231.714 69.1082 232.379 68.6413 232.545 68.1743C232.877 67.5517 232.379 67.0848 231.714 66.7735Z" fill="#045C45"/>
<path d="M242.85 83.4286C244.18 81.8721 245.343 80.3156 247.005 79.2261C248.501 78.2922 250.33 77.5139 252.158 77.8252C251.825 77.5139 251.659 77.3583 251.327 77.047C251.493 77.8252 251.327 78.4478 250.828 79.0704C250.33 79.8487 249.665 80.3156 248.834 80.7826C246.839 81.7165 244.346 81.8721 242.185 82.3391C240.689 82.6504 241.354 84.9852 242.85 84.5182C245.509 83.8956 248.335 83.7399 250.662 82.3391C252.823 81.0939 254.485 78.6035 253.82 76.2687C253.654 75.9574 253.321 75.4905 252.989 75.4905C250.662 75.1792 248.169 75.8018 246.174 77.047C244.18 78.2922 242.684 80.0043 241.188 81.7165C240.689 82.1834 240.689 82.9617 241.188 83.4286C241.52 83.8956 242.518 83.8956 242.85 83.4286Z" fill="#045C45"/>
<path d="M297.533 45.9166C294.542 42.6479 291.716 39.2236 289.057 35.6436C287.893 34.0871 286.397 32.375 286.065 30.3515C285.732 28.0168 287.228 26.9272 289.223 25.9933C290.22 25.5263 291.217 25.0594 292.381 25.5263C293.212 25.8376 293.877 26.6159 294.375 27.3941C295.373 29.2619 295.206 31.4411 295.373 33.4645C295.705 37.9784 296.037 42.4923 296.204 47.1618C296.37 48.7183 298.863 48.7183 298.697 47.1618C298.364 42.8036 298.198 38.2897 297.866 33.9315C297.7 30.5072 297.7 26.1489 294.209 23.9698C292.547 23.0359 290.885 23.0359 289.057 23.6585C287.394 24.2811 285.732 25.0594 284.569 26.4602C282.076 29.7289 284.403 33.6202 286.397 36.4219C289.223 40.3132 292.381 44.2044 295.705 47.7844C296.702 48.7183 298.531 47.1618 297.533 45.9166Z" fill="#045C45"/>
<path d="M294.874 60.2367C297.201 58.9915 298.365 56.6567 300.525 55.4115C303.019 54.0106 306.01 54.322 308.836 54.4776C310.166 54.4776 311.495 54.6333 312.825 54.4776C314.321 54.4776 315.983 54.3219 317.479 54.7889C318.809 55.2559 319.972 56.0341 320.803 56.968C321.634 57.7463 323.297 59.1471 323.463 60.3923C323.463 60.081 323.629 59.7697 323.629 59.4584C323.13 60.3923 321.468 61.1706 320.471 61.6375C319.141 62.2601 317.645 62.4158 316.149 62.2601C313.49 61.7932 310.997 60.7036 308.337 59.9254C303.517 58.2132 298.198 55.7228 293.046 56.968C291.55 57.2793 292.215 59.6141 293.711 59.1471C296.703 58.3689 299.528 59.3028 302.354 60.2367C305.013 61.1706 307.673 62.1045 310.332 62.8827C312.825 63.661 315.318 64.7506 317.978 64.5949C320.305 64.4393 322.299 63.3497 324.128 61.9488C324.792 61.3262 325.79 60.8593 325.79 59.9254C325.79 58.9915 324.959 58.0576 324.294 57.2793C322.964 55.7228 321.468 54.1663 319.64 53.0767C317.645 51.9872 315.485 51.8315 313.158 51.9872C310.664 52.1428 308.337 51.8315 305.844 51.8315C303.517 51.8315 300.858 51.9872 298.863 53.2324C296.703 54.4776 295.539 56.8124 293.378 57.9019C292.215 58.9915 293.544 61.0149 294.874 60.2367Z" fill="#045C45"/>
<path d="M283.905 80.3154C283.905 78.4476 283.905 76.7355 283.905 74.8677C283.905 73.1555 284.071 71.4434 283.905 69.7312C283.738 68.0191 282.242 67.2408 280.747 66.6182C279.251 65.9956 277.755 65.6843 276.259 65.5286C273.267 65.373 269.943 65.9956 267.616 68.019C266.452 69.1086 265.954 70.5095 266.452 71.9103C266.951 73.1555 268.281 74.2451 269.61 74.712C271.605 75.3346 273.599 74.8677 275.594 75.0233C276.757 75.179 278.253 75.4903 278.586 76.7355C279.084 78.1364 281.411 77.5137 280.913 76.1129C280.082 73.7781 277.422 72.8442 275.095 72.6886C273.599 72.6886 271.937 72.8442 270.441 72.5329C269.61 72.3773 268.281 71.599 268.447 70.5095C268.613 69.5756 270.109 68.9529 270.94 68.6416C272.104 68.1747 273.267 67.8634 274.597 67.8634C275.926 67.8634 277.09 68.019 278.253 68.3303C278.752 68.486 279.417 68.6417 279.916 68.953C280.414 69.2643 281.079 69.4199 281.245 70.0425C281.411 70.8208 281.245 71.599 281.245 72.3773C281.245 73.3112 281.245 74.0894 281.245 75.0233C281.245 76.7355 281.245 78.6033 281.245 80.3154C281.411 81.872 283.905 81.872 283.905 80.3154Z" fill="#045C45"/>
<path d="M304.515 41.8695C305.18 42.0252 305.844 42.0252 306.675 42.1808C306.842 42.1808 307.008 42.1808 307.174 42.1808C307.34 42.1808 307.507 42.1808 307.673 42.0252C308.005 41.8695 308.171 41.5582 308.171 41.4026C308.171 41.0913 308.171 40.78 308.005 40.4687C307.839 40.1574 307.506 40.0017 307.34 40.0017C306.675 39.8461 306.011 39.8461 305.18 39.6904C305.013 39.6904 304.847 39.6904 304.681 39.6904C304.515 39.6904 304.348 39.6904 304.182 39.8461C303.85 40.0017 303.684 40.313 303.684 40.4687C303.684 40.78 303.684 41.0913 303.85 41.4026C304.016 41.5582 304.182 41.8695 304.515 41.8695Z" fill="#045C45"/>
<path d="M293.212 50.7424C293.212 50.7424 293.378 50.7424 293.544 50.7424C293.212 50.7424 292.713 50.7424 292.381 50.7424C292.547 50.7424 292.547 50.7424 292.713 50.7424C292.381 50.7424 291.882 50.5868 291.55 50.4312C291.716 50.4312 291.716 50.5868 291.882 50.5868C291.882 50.5868 291.882 50.5868 291.716 50.5868C291.55 50.4312 291.384 50.4312 291.217 50.4312C291.051 50.4312 290.885 50.4312 290.719 50.4312C290.386 50.4312 290.054 50.7425 290.054 50.8981C289.888 51.2094 289.888 51.5207 289.888 51.832C290.054 52.1433 290.22 52.4546 290.386 52.4546C290.885 52.6103 291.384 52.7659 291.882 52.9216C292.215 52.9216 292.547 53.0772 292.879 53.0772C293.212 53.0772 293.544 53.0772 293.877 52.9216C294.209 52.9216 294.542 52.6103 294.542 52.4546C294.708 52.1433 294.708 51.832 294.708 51.5207C294.542 51.2094 294.375 50.8981 294.209 50.8981C294.043 50.8981 294.043 50.7424 293.877 50.7424C293.711 50.7424 293.544 50.7424 293.212 50.7424Z" fill="#045C45"/>
<path d="M287.893 62.4159C287.561 62.2603 287.228 61.949 286.896 61.7934C286.73 61.6377 286.563 61.6377 286.397 61.6377C286.231 61.6377 286.065 61.6377 285.899 61.6377C285.732 61.6377 285.566 61.7934 285.4 61.7934C285.234 61.949 285.234 61.949 285.068 62.1047C285.068 62.2603 284.901 62.2603 284.901 62.4159C284.901 62.5716 284.901 62.8829 284.901 63.0386C284.901 63.1942 285.068 63.1942 285.068 63.3499C285.234 63.5055 285.4 63.6612 285.566 63.8168C285.899 63.9725 286.231 64.2838 286.563 64.4394C286.73 64.5951 286.896 64.5951 287.062 64.5951C287.228 64.5951 287.395 64.5951 287.561 64.5951C287.727 64.5951 287.893 64.4394 288.059 64.4394C288.226 64.2838 288.226 64.2838 288.392 64.1281C288.392 63.9725 288.558 63.9725 288.558 63.8168C288.558 63.6612 288.558 63.3499 288.558 63.1942C288.558 63.0386 288.392 63.0386 288.392 62.8829C288.226 62.7273 288.059 62.5716 287.893 62.4159Z" fill="#045C45"/>
<path d="M306.177 33.3093C306.011 33.1536 305.678 32.8423 305.512 32.6867C305.346 32.531 305.346 32.531 305.18 32.3754C305.013 32.3754 304.847 32.2197 304.681 32.2197C304.515 32.2197 304.349 32.2197 304.182 32.3754C304.016 32.3754 303.85 32.531 303.85 32.6867C303.85 32.8423 303.684 32.8423 303.684 32.998C303.518 33.1536 303.518 33.3093 303.518 33.6206C303.518 33.7762 303.518 33.7762 303.518 33.9319C303.518 34.0875 303.684 34.2432 303.85 34.3988C304.016 34.5545 304.349 34.8658 304.515 35.0214C304.681 35.1771 304.681 35.1771 304.847 35.3327C305.013 35.3327 305.18 35.4884 305.346 35.4884C305.512 35.4884 305.678 35.4884 305.845 35.3327C306.011 35.3327 306.177 35.1771 306.177 35.0214C306.177 34.8658 306.343 34.8658 306.343 34.7101C306.509 34.5545 306.509 34.3988 306.509 34.0875C306.509 33.9319 306.509 33.9319 306.509 33.7762C306.343 33.6206 306.343 33.4649 306.177 33.3093Z" fill="#045C45"/>
<path d="M285.4 76.8912C285.566 76.8912 285.566 76.8912 285.733 76.8912C285.566 76.8912 285.4 76.8912 285.4 76.8912C285.733 76.8912 286.065 76.8912 286.397 76.8912C286.231 76.8912 286.231 76.8912 286.065 76.8912C286.398 76.8912 286.73 77.0468 287.062 77.2025C286.896 77.2025 286.896 77.0468 286.73 77.0468C287.062 77.2025 287.229 77.3581 287.561 77.5138C287.893 77.6695 288.226 77.6694 288.558 77.6694C288.891 77.6694 289.223 77.3581 289.223 77.2025C289.389 76.8912 289.389 76.5799 289.389 76.2686C289.223 75.9573 289.057 75.8016 288.891 75.646C287.727 74.8677 286.231 74.7121 284.735 74.8677C284.403 74.8677 284.071 75.179 284.071 75.3347C283.904 75.646 283.904 75.9573 283.904 76.2686C284.071 76.5799 284.237 76.8912 284.403 76.8912C284.735 76.8912 285.068 76.8912 285.4 76.8912Z" fill="#045C45"/>
<path d="M276.924 96.6591C276.924 96.6591 276.757 96.6591 276.591 96.6591C277.256 96.5034 277.921 96.5034 278.586 96.6591C278.419 96.6591 278.419 96.6591 278.253 96.6591C278.752 96.6591 279.25 96.8148 279.583 96.9704C280.248 97.1261 280.913 96.8148 281.079 96.1921C281.245 95.5695 280.913 94.9469 280.248 94.7913C279.583 94.6356 278.918 94.48 278.087 94.48C277.422 94.48 276.757 94.48 275.926 94.6356C275.594 94.6356 275.261 94.9469 275.261 95.1026C275.095 95.4139 275.095 95.7252 275.095 96.0365C275.261 96.3478 275.428 96.6591 275.594 96.6591C275.76 96.6591 275.76 96.8147 275.926 96.8147C276.591 96.8147 276.757 96.8147 276.924 96.6591Z" fill="#045C45"/>
<path d="M279.25 76.7354C279.25 77.0467 279.25 77.358 279.25 77.6693C279.25 77.5137 279.25 77.5137 279.25 77.358C279.25 77.825 279.084 78.2919 278.918 78.6033C278.918 78.4476 279.084 78.4476 279.084 78.292C278.918 78.6033 278.752 79.0702 278.419 79.3815C278.253 79.5372 278.253 80.0041 278.253 80.3154C278.253 80.6267 278.585 80.938 278.752 80.938C279.084 81.0937 279.416 81.0937 279.749 81.0937C280.081 80.938 280.247 80.7824 280.414 80.6267C281.245 79.5372 281.743 78.1363 281.577 76.7354C281.577 76.1128 281.079 75.4902 280.247 75.4902C279.915 75.6459 279.25 76.1128 279.25 76.7354Z" fill="#045C45"/>
<path d="M237.199 92.9237C244.678 89.4994 252.989 88.7211 261.133 89.3437C267.782 89.8107 275.926 91.0559 279.583 96.9706C279.915 96.348 280.248 95.7254 280.58 95.2584C273.433 95.7254 266.286 95.881 259.139 95.7254C255.648 95.5697 252.158 95.4141 248.668 95.2584C246.839 95.1028 245.177 94.9471 243.349 94.7915C242.518 94.7915 237.365 94.6358 237.697 93.3906C237.365 93.7019 237.199 93.8576 236.866 94.1689C237.365 94.0132 238.03 93.8576 238.529 93.8576C240.024 93.5463 239.36 91.2115 237.864 91.6785C236.534 91.9898 235.204 92.1454 235.038 93.7019C235.038 94.9471 236.035 96.0367 237.199 96.5037C239.027 97.1263 241.354 97.1263 243.182 97.2819C245.676 97.5932 248.335 97.7488 250.828 97.9045C260.635 98.5271 270.608 98.5271 280.414 97.7489C281.411 97.7489 281.91 96.8149 281.411 96.0367C277.588 89.8107 269.444 88.0985 262.297 87.3202C253.155 86.3863 244.014 87.3203 235.703 91.0559C234.539 91.5228 235.703 93.5463 237.199 92.9237Z" fill="#045C45"/>
<path d="M278.586 95.725C274.929 102.885 271.438 110.2 268.28 117.672C267.616 119.073 270.109 119.695 270.607 118.294C273.765 111.134 277.09 103.974 280.746 96.9702C281.411 95.5693 279.25 94.3241 278.586 95.725Z" fill="#045C45"/>
<path d="M234.871 93.5463C234.539 102.73 237.198 111.757 242.683 119.54C243.515 120.785 245.675 119.696 244.844 118.295C239.692 110.979 237.032 102.263 237.365 93.5463C237.365 91.9898 234.871 92.1454 234.871 93.5463Z" fill="#045C45"/>
<path d="M268.447 118.917C268.779 120.629 270.109 122.03 271.438 123.275C272.103 123.898 272.768 124.365 273.267 125.143C273.267 125.299 273.433 125.299 273.433 125.454C273.599 125.61 273.599 125.766 273.765 125.921C273.765 126.077 273.765 126.077 273.932 126.233C273.932 126.388 274.098 126.7 274.098 126.855C274.264 127.478 275.095 127.789 275.594 127.634C276.259 127.478 276.591 126.855 276.425 126.233C276.092 124.521 274.763 123.12 273.433 121.874C272.768 121.252 272.103 120.785 271.605 120.007C271.605 119.851 271.438 119.851 271.438 119.695C271.272 119.54 271.272 119.384 271.106 119.228C271.106 119.073 271.106 119.073 270.94 118.917C270.94 118.761 270.774 118.45 270.774 118.294C270.607 117.672 269.776 117.361 269.278 117.516C268.613 117.672 268.28 118.295 268.447 118.917Z" fill="#045C45"/>
<path d="M242.019 118.139C238.528 120.318 235.536 123.119 233.376 126.388C233.043 126.855 233.209 127.633 233.874 127.945C234.539 128.256 235.204 128.1 235.536 127.478C237.531 124.52 240.19 121.874 243.348 120.006C243.847 119.695 244.179 118.917 243.847 118.45C243.348 117.983 242.517 117.827 242.019 118.139Z" fill="#045C45"/>
<path d="M232.711 127.167C236.534 141.02 241.52 154.717 246.507 168.259C247.005 169.66 249.499 169.037 248.834 167.636C243.847 154.095 238.861 140.397 235.038 126.545C234.706 125.144 232.379 125.766 232.711 127.167Z" fill="#045C45"/>
<path d="M274.596 126.545C271.937 140.709 267.781 154.562 262.463 168.103C261.964 169.504 264.291 170.127 264.79 168.726C270.108 155.184 274.098 141.331 276.923 127.167C277.256 125.766 274.762 125.144 274.596 126.545Z" fill="#045C45"/>
<path d="M248.335 169.97C250.662 171.371 253.487 172.149 256.313 172.149C257.809 172.149 259.139 171.994 260.634 171.682C261.798 171.371 263.128 170.904 264.125 169.97C264.956 169.036 265.122 167.635 264.291 166.546C263.46 165.612 262.13 165.456 260.967 165.145C259.305 164.834 257.643 164.522 255.981 164.211C254.485 163.9 252.822 163.433 251.327 163.589C249.831 163.744 248.335 164.522 247.836 165.923C247.504 166.702 247.67 167.48 248.335 167.947C249 168.414 249.831 168.258 250.329 167.48C250.662 167.013 250.496 166.39 250.163 166.079C249.166 164.989 247.337 166.546 248.335 167.791C248.335 167.324 248.169 166.857 248.169 166.39C248.501 166.235 248.833 166.079 249.166 165.768C249.332 165.768 249.498 165.923 249.664 165.923C249.831 166.079 249.831 166.235 249.997 166.39C249.997 166.702 249.997 166.39 250.163 166.235C250.329 166.079 250.496 165.923 250.828 165.768C251.327 165.612 251.825 165.612 252.324 165.612C253.654 165.768 254.983 166.079 256.479 166.235C257.975 166.546 259.305 166.702 260.801 167.013C261.133 167.013 262.463 167.169 262.629 167.635C262.629 167.947 261.964 168.258 261.798 168.258C261.299 168.414 260.801 168.569 260.302 168.725C259.139 169.036 257.975 169.192 256.812 169.192C254.485 169.192 252.158 168.569 249.997 167.324C248.169 167.168 247.005 169.192 248.335 169.97Z" fill="#045C45"/>
<path d="M254.485 122.498C256.147 134.327 257.809 146.156 256.313 158.142C255.98 160.632 260.136 160.632 260.468 158.142C261.964 145.845 260.302 133.704 258.474 121.564C258.141 118.918 254.152 120.007 254.485 122.498Z" fill="#045C45"/>
<path d="M241.022 91.523C244.013 94.9473 244.678 99.4612 245.343 103.664C246.174 108.489 247.67 113.003 249.166 117.672C250.828 122.653 251.327 127.634 251.825 132.77C252.324 138.374 252.989 143.977 253.487 149.581C253.82 152.071 257.975 152.071 257.643 149.581C256.978 143.822 256.479 137.907 255.814 132.148C255.316 126.7 254.651 121.252 252.823 116.116C251.992 113.625 250.994 111.135 250.329 108.489C249.665 106.154 249.332 103.664 249 101.329C248.169 96.8151 247.005 92.6125 243.847 89.0326C242.185 86.8535 239.359 89.4995 241.022 91.523Z" fill="#045C45"/>
<path d="M272.103 105.842C268.28 106.62 265.621 109.422 263.46 112.535C260.634 116.738 258.308 121.096 255.814 125.454C250.828 134.326 246.008 143.354 241.354 152.382C240.19 154.561 243.681 156.584 245.011 154.405C249.332 146 253.82 137.595 258.474 129.345C260.801 125.298 263.128 121.251 265.455 117.205C267.283 114.247 269.278 110.356 273.267 109.578C275.926 109.111 274.763 105.375 272.103 105.842Z" fill="#045C45"/>
</svg>
